<svg width="182" height="182" viewBox="0 0 182 182" fill="none" xmlns="http://www.w3.org/2000/svg">
<path d="M18.2002 91.0002C18.2002 71.6924 25.8702 53.1755 39.5228 39.5228C53.1755 25.8702 71.6924 18.2002 91.0002 18.2002C110.308 18.2002 128.825 25.8702 142.478 39.5228C156.13 53.1755 163.8 71.6924 163.8 91.0002C163.8 110.308 156.13 128.825 142.478 142.478C128.825 156.13 110.308 163.8 91.0002 163.8C71.6924 163.8 53.1755 156.13 39.5228 142.478C25.8702 128.825 18.2002 110.308 18.2002 91.0002ZM108.818 56.4202C109.079 55.8696 109.226 55.2722 109.252 54.6634C109.278 54.0547 109.181 53.447 108.967 52.8764C108.754 52.3058 108.427 51.784 108.008 51.3418C107.589 50.8996 107.085 50.5461 106.527 50.3023C105.969 50.0585 105.367 49.9293 104.758 49.9224C104.149 49.9155 103.544 50.031 102.98 50.2621C102.417 50.4932 101.905 50.8352 101.476 51.2677C101.047 51.7003 100.709 52.2146 100.482 52.7802L68.6324 125.58C68.3715 126.131 68.2239 126.728 68.1983 127.337C68.1727 127.946 68.2695 128.553 68.4832 129.124C68.6969 129.695 69.023 130.216 69.4422 130.659C69.8613 131.101 70.365 131.454 70.9234 131.698C71.4818 131.942 72.0834 132.071 72.6926 132.078C73.3019 132.085 73.9063 131.969 74.4701 131.738C75.0338 131.507 75.5454 131.165 75.9745 130.733C76.4036 130.3 76.7414 129.786 76.968 129.22L108.818 56.4202ZM62.3716 69.5788C61.9489 69.1551 61.4468 68.8189 60.8941 68.5895C60.3413 68.3601 59.7487 68.2421 59.1502 68.2421C58.5517 68.2421 57.9591 68.3601 57.4063 68.5895C56.8535 68.8189 56.3515 69.1551 55.9288 69.5788L37.7288 87.7788C37.3051 88.2015 36.9689 88.7036 36.7395 89.2563C36.5101 89.8091 36.3921 90.4017 36.3921 91.0002C36.3921 91.5987 36.5101 92.1913 36.7395 92.7441C36.9689 93.2968 37.3051 93.7989 37.7288 94.2216L55.9288 112.422C56.7832 113.276 57.9419 113.756 59.1502 113.756C60.3585 113.756 61.5172 113.276 62.3716 112.422C63.226 111.567 63.7059 110.408 63.7059 109.2C63.7059 107.992 63.226 106.833 62.3716 105.979L47.3839 91.0002L62.3716 76.0216C62.7953 75.5989 63.1315 75.0968 63.3609 74.5441C63.5903 73.9913 63.7083 73.3987 63.7083 72.8002C63.7083 72.2017 63.5903 71.6091 63.3609 71.0563C63.1315 70.5036 62.7953 70.0015 62.3716 69.5788ZM119.629 76.0216L134.617 91.0002L119.629 105.979C118.774 106.833 118.294 107.992 118.294 109.2C118.294 110.408 118.774 111.567 119.629 112.422C120.483 113.276 121.642 113.756 122.85 113.756C124.058 113.756 125.217 113.276 126.072 112.422L144.272 94.2216C144.695 93.7989 145.032 93.2968 145.261 92.7441C145.49 92.1913 145.608 91.5987 145.608 91.0002C145.608 90.4017 145.49 89.8091 145.261 89.2563C145.032 88.7036 144.695 88.2015 144.272 87.7788L126.072 69.5788C125.217 68.7244 124.058 68.2444 122.85 68.2444C121.642 68.2444 120.483 68.7244 119.629 69.5788C118.774 70.4332 118.294 71.5919 118.294 72.8002C118.294 74.0085 118.774 75.1672 119.629 76.0216Z" fill="black"/>
</svg>
