<svg width="131" height="131" viewBox="0 0 131 131" fill="none" xmlns="http://www.w3.org/2000/svg">
<g clip-path="url(#clip0_347_352)">
<path d="M123.77 131C127.762 131 131 127.762 131 123.77V7.22992C131 3.23604 127.762 0 123.77 0H7.23041C3.23653 0 0.000488281 3.23653 0.000488281 7.22992V123.77C0.000488281 127.762 3.23653 131 7.23041 131L123.77 131Z" fill="#485A96"/>
<path d="M90.388 131V80.2696H107.416L109.965 60.499H90.3875V47.8763C90.3875 42.1523 91.9768 38.2516 100.185 38.2516L110.654 38.2467V20.5641C108.844 20.3236 102.629 19.7852 95.3994 19.7852C80.3049 19.7852 69.971 28.9985 69.971 45.9189V60.499H52.8994V80.2696H69.971V130.999L90.388 131Z" fill="white"/>
</g>
<defs>
<clipPath id="clip0_347_352">
<rect width="131" height="131" fill="white"/>
</clipPath>
</defs>
</svg>
