<svg width="131" height="131" viewBox="0 0 131 131" fill="none" xmlns="http://www.w3.org/2000/svg">
<g clip-path="url(#clip0_35_258)">
<path d="M100.297 0H30.7031C13.7463 0 0 13.7463 0 30.7031V100.297C0 117.254 13.7463 131 30.7031 131H100.297C117.254 131 131 117.254 131 100.297V30.7031C131 13.7463 117.254 0 100.297 0Z" fill="#242938"/>
<mask id="mask0_35_258" style="mask-type:luminance" maskUnits="userSpaceOnUse" x="31" y="14" width="69" height="103">
<path d="M31.2148 14.3281H99.4577V116.672H31.2148V14.3281Z" fill="white"/>
</mask>
<g mask="url(#mask0_35_258)">
<path d="M48.2793 116.672C57.6949 116.672 65.3364 109.03 65.3364 99.6148V82.5571H48.2793C38.8637 82.5571 31.2217 90.1991 31.2217 99.6148C31.2217 109.03 38.8637 116.672 48.2793 116.672Z" fill="#0ACF83"/>
<path d="M31.2217 65.5C31.2217 56.0844 38.8637 48.4429 48.2793 48.4429H65.3364V82.5571H48.2793C38.8637 82.5571 31.2217 74.9156 31.2217 65.5Z" fill="#A259FF"/>
<path d="M31.2217 31.3852C31.2217 21.9696 38.8637 14.3281 48.2793 14.3281H65.3364V48.4429H48.2793C38.8637 48.4429 31.2217 40.8009 31.2217 31.3852Z" fill="#F24E1E"/>
<path d="M65.3364 14.3281H82.3935C91.8092 14.3281 99.4512 21.9696 99.4512 31.3852C99.4512 40.8009 91.8092 48.4429 82.3935 48.4429H65.3364V14.3281Z" fill="#FF7262"/>
<path d="M99.4512 65.5C99.4512 74.9156 91.8092 82.5571 82.3935 82.5571C72.9779 82.5571 65.3364 74.9156 65.3364 65.5C65.3364 56.0844 72.9779 48.4429 82.3935 48.4429C91.8092 48.4429 99.4512 56.0844 99.4512 65.5Z" fill="#1ABCFE"/>
</g>
</g>
<defs>
<clipPath id="clip0_35_258">
<rect width="131" height="131" fill="white"/>
</clipPath>
</defs>
</svg>
