<svg width="207" height="369" viewBox="0 0 207 369" fill="none" xmlns="http://www.w3.org/2000/svg">
<g clip-path="url(#clip0_3_228)">
<path d="M129.346 53.8321C76.7642 49.6837 51.0569 73.8284 44.7563 86.5041C73.6245 102.061 81.638 109.901 96.6736 138.421C128.883 116.491 132.046 72.6142 129.346 53.8321Z" fill="#604F7C"/>
<path d="M129.346 312.498C76.7642 316.646 51.0569 292.502 44.7563 279.826C73.6245 264.269 81.638 256.429 96.6736 227.908C128.883 249.839 132.046 293.716 129.346 312.498Z" fill="#F4E9FF" stroke="black" stroke-opacity="0.1" stroke-width="0.895126" stroke-linecap="round"/>
<path d="M1.77605 363.629C-37.7128 328.662 -38.1809 293.397 -33.4313 280.063C-2.1933 290.041 9.01294 290.366 39.9789 281.389C46.5547 319.797 17.1692 352.533 1.77605 363.629Z" fill="url(#paint0_linear_3_228)"/>
<path d="M-0.0142345 1.41835C-39.5031 36.3847 -39.9711 71.6496 -35.2216 84.9843C-3.98359 75.0057 7.22266 74.6806 38.1886 83.658C44.7644 45.2499 15.3789 12.5138 -0.0142345 1.41835Z" fill="#8C7BAA"/>
<path d="M183.164 183.471C149.023 143.266 113.776 142.068 100.345 146.54C109.675 177.978 109.767 189.189 100.15 219.962C138.414 227.332 171.752 198.631 183.164 183.471Z" fill="white"/>
</g>
<path d="M191.843 165.375C188.553 166.598 185.747 168.42 184.033 169.751C185.353 171.235 188.973 175.443 193.29 181.664C200.157 176.809 202.886 172.117 203.673 168.954C204.11 167.195 204.297 166.294 204.343 165.736C204.36 165.527 204.354 165.399 204.343 165.315C200.238 163.367 195.785 163.909 191.843 165.375Z" fill="#97CF50" stroke="#F4E9FF" stroke-width="2.68538"/>
<path d="M176.738 152.465C173.738 154.288 171.327 156.608 169.895 158.24C171.472 159.447 175.823 162.894 181.239 168.186C187.064 162.121 188.856 156.997 189.031 153.742C189.128 151.932 189.141 151.012 189.08 150.456C189.057 150.247 189.027 150.122 189 150.042C184.601 148.906 180.331 150.28 176.738 152.465Z" fill="#97CF50" stroke="#F4E9FF" stroke-width="2.68538"/>
<path d="M159.336 141.177C156.712 143.508 154.755 146.223 153.639 148.084C155.406 148.99 160.304 151.602 166.58 155.839C171.224 148.828 172.07 143.466 171.659 140.232C171.43 138.435 171.278 137.527 171.119 136.99C171.06 136.789 171.007 136.672 170.966 136.598C166.435 136.268 162.481 138.385 159.336 141.177Z" fill="#97CF50" stroke="#F4E9FF" stroke-width="2.68538"/>
<path d="M140.775 133.549C138.434 136.164 136.8 139.085 135.904 141.061C137.763 141.759 142.928 143.795 149.646 147.287C153.459 139.791 153.687 134.368 152.909 131.202C152.477 129.443 152.222 128.558 152.003 128.044C151.921 127.85 151.855 127.74 151.806 127.671C147.266 127.861 143.58 130.415 140.775 133.549Z" fill="#97CF50" stroke="#F4E9FF" stroke-width="2.68538"/>
<path d="M190.165 201.506C186.875 200.283 184.068 198.46 182.354 197.129C183.674 195.646 187.295 191.438 191.612 185.217C198.478 190.071 201.208 194.763 201.995 197.927C202.432 199.685 202.619 200.586 202.665 201.144C202.682 201.354 202.676 201.481 202.664 201.565C198.559 203.513 194.107 202.971 190.165 201.506Z" fill="#97CF50" stroke="#F4E9FF" stroke-width="2.68538"/>
<path d="M175.059 214.416C172.06 212.593 169.649 210.272 168.217 208.641C169.794 207.434 174.145 203.986 179.56 198.694C185.385 204.76 187.178 209.883 187.352 213.139C187.449 214.948 187.462 215.868 187.402 216.425C187.379 216.634 187.349 216.758 187.322 216.838C182.922 217.974 178.653 216.6 175.059 214.416Z" fill="#97CF50" stroke="#F4E9FF" stroke-width="2.68538"/>
<path d="M157.658 225.703C155.034 223.372 153.077 220.657 151.961 218.796C153.728 217.891 158.626 215.279 164.902 211.042C169.546 218.053 170.392 223.414 169.981 226.648C169.752 228.446 169.6 229.353 169.441 229.89C169.381 230.092 169.329 230.209 169.288 230.282C164.756 230.613 160.802 228.496 157.658 225.703Z" fill="#97CF50" stroke="#F4E9FF" stroke-width="2.68538"/>
<path d="M139.097 233.332C136.756 230.716 135.122 227.796 134.226 225.819C136.085 225.122 141.249 223.086 147.968 219.594C151.781 227.089 152.009 232.512 151.231 235.678C150.799 237.438 150.544 238.322 150.325 238.837C150.242 239.03 150.177 239.141 150.128 239.209C145.588 239.02 141.902 236.465 139.097 233.332Z" fill="#97CF50" stroke="#F4E9FF" stroke-width="2.68538"/>
<path d="M121.546 39.4319C120.124 42.6406 119.468 45.9223 119.224 48.0789C121.207 48.1703 126.748 48.5179 134.215 49.7729C135.536 41.4677 134.084 36.2375 132.37 33.4648C131.417 31.9238 130.902 31.1607 130.535 30.7382C130.397 30.5795 130.301 30.4948 130.233 30.4446C125.972 32.0222 123.251 35.5872 121.546 39.4319Z" fill="#FEFFD0" stroke="#F4E9FF" stroke-width="2.68538"/>
<path d="M101.757 41.2271C100.968 44.6469 100.944 47.9934 101.112 50.1573C103.077 49.8719 108.583 49.1654 116.153 48.9854C115.88 40.5803 113.465 35.7191 111.257 33.3207C110.03 31.9877 109.38 31.3357 108.94 30.9903C108.774 30.8606 108.664 30.7955 108.588 30.759C104.702 33.1141 102.704 37.1294 101.757 41.2271Z" fill="#FEFFD0" stroke="#F4E9FF" stroke-width="2.68538"/>
<path d="M81.5254 45.7984C81.3608 49.3044 81.9373 52.6009 82.49 54.6998C84.3723 54.067 89.6626 52.3859 97.078 50.853C95.3037 42.6328 92.057 38.2827 89.4551 36.3186C88.009 35.2269 87.2533 34.7018 86.758 34.4409C86.572 34.3428 86.452 34.2985 86.3704 34.2763C82.9692 37.2892 81.7227 41.5975 81.5254 45.7984Z" fill="#FEFFD0" stroke="#F4E9FF" stroke-width="2.68538"/>
<path d="M63.1024 53.7552C63.3393 57.2571 64.2885 60.4662 65.0773 62.4882C66.875 61.6446 71.9387 59.3702 79.1305 57.0005C76.429 49.0367 72.7067 45.0859 69.8976 43.4317C68.3363 42.5124 67.5255 42.077 67.0037 41.8743C66.8077 41.7982 66.6834 41.7679 66.5998 41.7551C63.565 45.1368 62.8187 49.5592 63.1024 53.7552Z" fill="#FEFFD0" stroke="#F4E9FF" stroke-width="2.68538"/>
<path d="M146.235 65.8668C143.062 67.3674 139.797 68.1033 137.647 68.4005C137.507 66.4196 137.024 60.8897 135.587 53.4552C143.857 51.931 149.121 53.2546 151.935 54.9008C153.499 55.8157 154.274 56.3113 154.706 56.668C154.868 56.8021 154.955 56.8957 155.007 56.9625C153.534 61.261 150.037 64.0688 146.235 65.8668Z" fill="#FEFFD0" stroke="#F4E9FF" stroke-width="2.68538"/>
<path d="M144.924 85.6943C141.525 86.5677 138.18 86.6729 136.012 86.5581C136.25 84.5865 136.821 79.065 136.816 71.4928C145.225 71.5603 150.144 73.8556 152.595 76.0042C153.958 77.1984 154.626 77.8317 154.982 78.2637C155.116 78.4259 155.183 78.5344 155.222 78.6098C152.963 82.5521 148.997 84.6478 144.924 85.6943Z" fill="#FEFFD0" stroke="#F4E9FF" stroke-width="2.68538"/>
<path d="M140.849 106.032C137.348 106.282 134.038 105.787 131.927 105.286C132.513 103.389 134.064 98.0586 135.415 90.6079C143.676 92.1804 148.105 95.3196 150.132 97.8726C151.259 99.2915 151.802 100.034 152.075 100.523C152.178 100.706 152.225 100.825 152.249 100.906C149.32 104.38 145.044 105.732 140.849 106.032Z" fill="#FEFFD0" stroke="#F4E9FF" stroke-width="2.68538"/>
<path d="M133.347 124.644C129.84 124.493 126.609 123.623 124.568 122.884C125.368 121.066 127.517 115.948 129.71 108.7C137.738 111.206 141.779 114.83 143.501 117.598C144.458 119.137 144.913 119.936 145.129 120.453C145.21 120.647 145.243 120.771 145.258 120.854C141.952 123.971 137.549 124.825 133.347 124.644Z" fill="#FEFFD0" stroke="#F4E9FF" stroke-width="2.68538"/>
<path d="M147.802 301.891C144.499 300.703 141.179 300.286 139.01 300.197C139.062 302.183 139.115 307.733 138.401 315.272C146.78 315.991 151.892 314.166 154.534 312.256C156.002 311.194 156.726 310.626 157.121 310.229C157.269 310.08 157.347 309.979 157.392 309.907C155.512 305.771 151.76 303.314 147.802 301.891Z" fill="#8AC5FF" stroke="#F4E9FF" stroke-width="2.68538"/>
<path d="M144.585 282.282C141.117 281.741 137.778 281.959 135.632 282.282C136.058 284.222 137.159 289.662 137.885 297.2C146.248 296.321 150.923 293.562 153.156 291.187C154.397 289.867 155 289.172 155.313 288.708C155.43 288.533 155.487 288.419 155.518 288.34C152.889 284.634 148.74 282.931 144.585 282.282Z" fill="#8AC5FF" stroke="#F4E9FF" stroke-width="2.68538"/>
<path d="M138.567 262.433C135.058 262.521 131.812 263.334 129.758 264.036C130.525 265.868 132.583 271.023 134.647 278.309C142.718 275.947 146.822 272.395 148.594 269.658C149.578 268.137 150.048 267.346 150.272 266.833C150.357 266.64 150.392 266.517 150.408 266.434C147.158 263.259 142.771 262.327 138.567 262.433Z" fill="#8AC5FF" stroke="#F4E9FF" stroke-width="2.68538"/>
<path d="M129.303 244.631C125.827 245.12 122.695 246.298 120.735 247.23C121.706 248.963 124.34 253.849 127.222 260.851C134.97 257.583 138.642 253.586 140.09 250.664C140.894 249.041 141.27 248.201 141.434 247.666C141.496 247.465 141.517 247.339 141.524 247.254C137.932 244.471 133.468 244.046 129.303 244.631Z" fill="#8AC5FF" stroke="#F4E9FF" stroke-width="2.68538"/>
<path d="M123.659 326.645C122.167 323.468 121.44 320.202 121.149 318.051C123.13 317.916 128.661 317.448 136.1 316.031C137.601 324.306 136.263 329.566 134.609 332.376C133.69 333.937 133.192 334.711 132.835 335.141C132.7 335.303 132.606 335.39 132.539 335.442C128.245 333.957 125.447 330.452 123.659 326.645Z" fill="#8AC5FF" stroke="#F4E9FF" stroke-width="2.68538"/>
<path d="M103.835 325.281C102.971 321.879 102.875 318.534 102.996 316.367C104.967 316.609 110.487 317.196 118.059 317.211C117.968 325.62 115.659 330.533 113.504 332.979C112.306 334.338 111.671 335.004 111.238 335.359C111.075 335.492 110.967 335.56 110.891 335.598C106.955 333.328 104.87 329.357 103.835 325.281Z" fill="#8AC5FF" stroke="#F4E9FF" stroke-width="2.68538"/>
<path d="M83.5088 321.151C83.268 317.649 83.7726 314.341 84.2795 312.23C86.1752 312.822 91.5008 314.388 98.9478 315.759C97.3526 324.016 94.2013 328.435 91.6428 330.456C90.2208 331.579 89.4766 332.12 88.9872 332.392C88.8033 332.494 88.6844 332.541 88.6032 332.565C85.1373 329.626 83.7974 325.346 83.5088 321.151Z" fill="#8AC5FF" stroke="#F4E9FF" stroke-width="2.68538"/>
<path d="M64.9173 313.596C65.0779 310.09 65.9571 306.861 66.7017 304.823C68.5174 305.627 73.6293 307.791 80.871 310.003C78.3432 318.024 74.7078 322.055 71.9353 323.77C70.3944 324.723 69.5932 325.176 69.076 325.39C68.8816 325.47 68.7581 325.503 68.6748 325.518C65.5671 322.203 64.7248 317.798 64.9173 313.596Z" fill="#8AC5FF" stroke="#F4E9FF" stroke-width="2.68538"/>
<defs>
<linearGradient id="paint0_linear_3_228" x1="-27.6637" y1="333.787" x2="33.5614" y2="274.735" gradientUnits="userSpaceOnUse">
<stop stop-color="#001226"/>
<stop offset="0.665961" stop-color="#6D2E55"/>
<stop offset="1" stop-color="#6D2E55"/>
</linearGradient>
<clipPath id="clip0_3_228">
<rect width="184.396" height="364.316" fill="white" transform="translate(0 0.546539)"/>
</clipPath>
</defs>
</svg>
