<svg width="1205" height="269" viewBox="0 0 1205 269" fill="none" xmlns="http://www.w3.org/2000/svg">
<path d="M7.2113 136.128C7.2113 136.128 29.1688 116.329 28.4798 92.8558C28.4798 92.8558 7.55024 117.522 7.2113 136.128Z" fill="#0033A9"/>
<path d="M19.6834 189.398C19.6834 189.398 18.8583 196.722 24.2202 199.902C29.5821 203.079 35.083 204.6 37.2819 205.015C39.4823 205.429 42.9203 204.185 44.5705 205.015C46.2208 205.844 48.4253 204.938 48.5559 206.811C48.592 207.329 47.2001 207.381 47.2001 207.381C47.2001 207.381 47.2432 208.053 45.7568 208.262C45.7568 208.262 45.704 209.351 44.8803 209.403C44.8803 209.403 44.6733 210.335 44.1066 210.18C44.1066 210.18 44.158 211.113 42.7661 211.113C41.3728 211.113 40.6005 212.512 38.6405 213.393C36.6804 214.274 31.6408 214.222 28.8515 214.171C26.0594 214.119 24.4605 213.964 20.3877 215.155C16.3149 216.347 12.3448 213.445 13.1699 210.024C13.9937 206.605 10.9515 189.398 10.9515 189.398H19.6834Z" fill="#FFBC9F"/>
<path d="M15.696 203.702C15.696 203.702 16.3836 206.362 16.3141 207.381C16.2461 208.401 17.1393 209.766 18.3075 209.533" stroke="#2B2A2A" stroke-width="1.18596" stroke-miterlimit="10" stroke-linecap="round" stroke-linejoin="round"/>
<path d="M78.3758 104.609C81.6763 115.664 80.183 136.882 77.984 149.319C75.7837 161.758 69.4591 181.521 63.6832 191.264C57.9088 201.007 53.7845 209.022 52.1343 210.957C50.484 212.893 40.4464 215.932 38.178 215.932C35.9096 215.932 25.7344 215.657 26.5596 213.722C26.9874 212.717 32.4674 214.039 35.9096 213.514C39.092 213.029 40.22 210.67 41.409 210.405C43.8844 209.852 44.7054 206.534 48.5573 206.812C52.4093 207.087 55.7098 180.277 60.1091 171.432C64.5098 162.588 65.8836 161.758 65.8836 159.27C65.8836 157.078 66.3114 132.335 67.1657 118.927" fill="#EDEDED"/>
<path d="M47.201 207.382C47.201 207.382 45.8036 206.371 44.4048 206.655" stroke="#2B2A2A" stroke-width="1.18596" stroke-miterlimit="10" stroke-linecap="round" stroke-linejoin="round"/>
<path d="M45.7564 208.262C45.7564 208.262 44.7256 207.589 43.9297 207.77" stroke="#2B2A2A" stroke-width="1.18596" stroke-miterlimit="10" stroke-linecap="round" stroke-linejoin="round"/>
<path d="M44.8802 209.402C44.8802 209.402 44.2399 208.805 43.6161 208.78" stroke="#2B2A2A" stroke-width="1.18596" stroke-miterlimit="10" stroke-linecap="round" stroke-linejoin="round"/>
<path d="M44.1065 210.18C44.1065 210.18 43.6703 209.636 43.0758 209.532" stroke="#2B2A2A" stroke-width="1.18596" stroke-miterlimit="10" stroke-linecap="round" stroke-linejoin="round"/>
<path d="M47.626 179.863C50.9084 194.174 44.4213 214.014 44.4213 214.014C89.9852 217.576 97.0654 188.245 93.2454 165.353C89.7379 144.341 75.1954 139.406 75.1954 139.406C73.3243 139.106 71.5338 138.959 69.8182 138.959C51.346 138.962 42.1404 155.962 47.626 179.863Z" fill="url(#paint0_linear_3_18)"/>
<path d="M86.7501 165.6C89.6579 150.691 82.3075 145.781 77.966 143.237C96.9879 162.69 76.7039 188.615 64.1842 199.146C70.6965 195.123 83.8423 180.51 86.7501 165.6Z" fill="url(#paint1_linear_3_18)"/>
<path d="M86.1297 163.757C89.0758 150.486 81.6288 146.115 77.2301 143.851C96.5023 161.166 75.9514 184.243 63.267 193.617C69.8649 190.036 83.1837 177.028 86.1297 163.757Z" fill="url(#paint2_linear_3_18)"/>
<path d="M89.1855 172.236C92.1316 155.361 84.6846 149.803 80.2859 146.923C99.5581 168.941 79.0072 198.286 66.3228 210.206C72.9207 205.652 86.2395 189.111 89.1855 172.236Z" fill="url(#paint3_linear_3_18)"/>
<path d="M84.6019 162.774C87.5479 148.111 80.1009 143.281 75.7022 140.779C94.9744 159.911 74.4235 185.41 61.7391 195.767C68.337 191.81 81.6558 177.438 84.6019 162.774Z" fill="url(#paint4_linear_3_18)"/>
<path d="M61.928 122.312C61.4377 122.348 60.4139 130.029 60.1277 131.486C60.1305 131.471 60.1333 131.454 60.1361 131.439C60.3569 131.5 60.5764 131.562 60.8001 131.629C66.2842 133.252 72.8533 136.388 74.2799 141.65C74.2827 141.657 74.2841 141.666 74.2855 141.673C74.6036 141.272 74.98 140.924 75.394 140.63C75.3884 140.654 75.387 140.677 75.3801 140.7C77.586 134.809 78.2944 114.02 78.6306 112.901C78.6306 112.901 71.4836 121.614 61.928 122.312Z" fill="#FFBC9F"/>
<path d="M69.6472 145.97C69.212 146.263 74.2865 146.613 73.9473 147.02C73.9423 147.026 73.9374 147.031 73.9324 147.038C73.9307 147.031 73.9291 147.023 73.9274 147.015C72.5787 141.611 65.9426 138.276 60.3855 136.506C60.1506 136.431 59.9156 136.36 59.6855 136.29C57.0675 135.505 54.7573 135.075 53.4648 134.945C52.4901 134.846 51.8006 134.122 50.0419 135.303C49.8465 139.042 48.6156 140.653 48.0877 144.356C47.7501 146.734 47.6148 150.671 47.6148 150.671L46.3671 151.291C45.0729 151.932 44.4549 152.271 45.3518 153.409L48.4785 156.361C49.5261 157.691 49.7761 159.631 49.9896 161.315C50.0872 162.076 50.1965 162.97 50.3123 163.948C50.7409 167.61 50.7062 171.185 50.7062 171.185C50.7062 171.185 56.2947 171.567 59.712 166.447C60.3425 165.503 60.8986 164.371 61.3338 163.018C62.1199 160.561 64.4383 150.491 73.5336 153.606C74.2898 154.79 70.0163 155.688 71.4825 156.023C74.3322 156.678 77.2614 154.923 78.0391 152.088C78.8914 148.988 76.9833 145.84 73.9036 145.156C72.4175 144.825 70.9414 145.135 69.7499 145.896C69.7151 145.921 69.682 145.946 69.6472 145.97Z" fill="#FFBC9F"/>
<path d="M72.3547 153.084C72.0359 153.158 71.7167 152.961 71.6418 152.642C71.5668 152.323 71.7645 152.004 72.0833 151.929L72.3547 153.084ZM71.7749 148.41C71.7749 146.663 73.1908 145.247 74.9375 145.247C76.6841 145.247 78.1 146.663 78.1 148.41C78.1 150.156 76.6841 151.572 74.9375 151.572C73.1908 151.572 71.7749 150.156 71.7749 148.41ZM72.219 152.506C72.0833 151.929 72.083 151.929 72.0827 151.929C72.0827 151.929 72.0824 151.929 72.0823 151.929C72.082 151.929 72.0818 151.929 72.0816 151.929C72.0813 151.93 72.0811 151.93 72.0811 151.93C72.0812 151.93 72.082 151.929 72.0836 151.929C72.0867 151.928 72.0927 151.927 72.1014 151.924C72.1189 151.92 72.1471 151.912 72.1843 151.9C72.2589 151.877 72.3687 151.839 72.5003 151.785C72.766 151.675 73.1079 151.5 73.4284 151.241C74.0447 150.743 74.6064 149.924 74.3538 148.514L75.5211 148.305C75.863 150.213 75.0655 151.443 74.174 152.163C73.7406 152.514 73.2913 152.741 72.9544 152.881C72.7848 152.951 72.6404 153 72.5361 153.033C72.4839 153.049 72.4415 153.061 72.4107 153.069C72.3953 153.073 72.3828 153.077 72.3734 153.079C72.3687 153.08 72.3648 153.081 72.3617 153.082C72.3601 153.082 72.3587 153.083 72.3576 153.083C72.357 153.083 72.3565 153.083 72.356 153.083C72.3558 153.083 72.3554 153.083 72.3553 153.083C72.355 153.083 72.3547 153.084 72.219 152.506Z" fill="#FF9E81"/>
<path d="M60.1784 132.123C60.1618 132.206 60.1451 132.29 60.1271 132.375C60.1105 132.464 60.0925 132.556 60.0732 132.646C60.0386 132.821 60.0026 132.997 59.9666 133.177C59.9513 133.247 59.9375 133.315 59.9237 133.386C59.9015 133.496 59.878 133.606 59.8558 133.717C59.8406 133.791 59.8254 133.864 59.8102 133.937C59.788 134.046 59.7659 134.156 59.7437 134.267C59.7257 134.347 59.7105 134.426 59.6939 134.505C59.6094 134.912 59.5236 135.323 59.4378 135.736C59.4281 135.778 59.4198 135.82 59.4115 135.862C59.3824 135.997 59.3547 136.131 59.327 136.266C59.3146 136.317 59.3049 136.37 59.2938 136.422C59.5208 136.484 59.7506 136.55 59.9818 136.619C65.4455 138.239 71.121 142.595 72.5426 147.844L73.4354 146.619C73.758 146.215 74.1387 145.866 74.5581 145.572C74.5595 145.568 74.5595 145.563 74.5609 145.559C74.5899 145.406 74.6204 145.245 74.6508 145.077C74.6564 145.045 74.6633 145.015 74.6688 144.983C74.6854 144.894 74.7034 144.803 74.72 144.713C74.7283 144.668 74.7367 144.625 74.745 144.579C74.7643 144.481 74.7837 144.381 74.8017 144.28C74.81 144.241 74.8183 144.2 74.8252 144.16C74.8446 144.062 74.8626 143.965 74.882 143.866C74.8986 143.778 74.9152 143.689 74.9332 143.6C74.9581 143.472 74.9817 143.344 75.008 143.211C75.0218 143.136 75.037 143.061 75.0523 142.984C75.073 142.873 75.0952 142.76 75.1173 142.646C75.1256 142.6 75.1353 142.556 75.1436 142.51C75.1644 142.401 75.1865 142.292 75.2073 142.181C75.2198 142.121 75.2322 142.06 75.2433 142C75.2641 141.893 75.2862 141.784 75.307 141.677C75.3153 141.637 75.3222 141.595 75.3305 141.553C75.379 141.305 75.4288 141.053 75.4786 140.8C75.4842 140.777 75.4883 140.754 75.4925 140.73C75.0813 141.024 74.7062 141.371 74.3878 141.77C74.3864 141.763 74.3851 141.755 74.3837 141.748C72.962 136.5 66.4145 133.372 60.9508 131.752C60.7279 131.687 60.5078 131.624 60.2891 131.563C60.2863 131.578 60.2836 131.595 60.2794 131.61C60.2642 131.691 60.2476 131.776 60.231 131.86C60.213 131.947 60.1964 132.034 60.1784 132.123Z" fill="#E0695F"/>
<g opacity="0.5">
<path d="M53.2416 152.67C54.2931 153.092 54.771 151.436 54.771 151.436C54.771 151.436 55.3322 153.064 56.3601 152.591C57.388 152.116 55.3724 148.808 54.7043 148.825C54.0361 148.842 52.1914 152.249 53.2416 152.67Z" fill="#FF222D"/>
</g>
<path d="M57.2189 159.839C57.2189 159.839 56.5178 158.791 54.0188 158.625C51.5193 158.459 50.5632 159.251 50.5632 159.251C50.5632 159.251 54.951 159.38 57.2189 159.839" fill="#2B2A2A"/>
<path d="M51.7347 161.983C51.7347 161.983 52.2785 162.043 53.7683 162.134C55.2577 162.225 56.6498 161.882 56.6498 161.882C56.6498 161.882 55.2611 163.167 53.5557 163.173C51.8503 163.179 51.7347 161.983 51.7347 161.983Z" fill="#2B2A2A"/>
<path d="M51.4578 146.088C51.4578 146.088 52.0715 145.752 50.6279 145.246C49.1843 144.739 47.3035 144.748 47.3035 144.748C47.3035 144.748 49.1013 145.52 49.6028 145.645C50.1038 145.77 50.4535 145.555 50.4535 145.555C50.4535 145.555 48.6163 145.34 49.243 145.54C49.8695 145.742 51.4578 146.088 51.4578 146.088Z" fill="#EE876D"/>
<path d="M51.1696 144.916C51.1696 144.916 50.3508 143.693 48.9125 143.253C47.4741 142.815 47.9208 142.412 47.9208 142.412C47.9208 142.412 47.6023 141.871 49.1828 142.412C50.7638 142.954 51.1696 144.916 51.1696 144.916Z" fill="#FF9E81"/>
<path d="M14.1155 189.398C14.1155 189.398 13.2904 196.722 18.6523 199.902C24.0143 203.079 29.5151 204.6 31.7141 205.015C33.9144 205.429 37.3524 204.185 39.0027 205.015C40.6529 205.844 42.8574 204.938 42.988 206.811C43.0241 207.329 41.6322 207.381 41.6322 207.381C41.6322 207.381 41.6753 208.053 40.189 208.262C40.189 208.262 40.1362 209.351 39.3124 209.403C39.3124 209.403 39.1055 210.335 38.5387 210.18C38.5387 210.18 38.5901 211.113 37.1982 211.113C35.805 211.113 35.0326 212.512 33.0726 213.393C31.1126 214.274 26.0729 214.222 23.2822 214.171C20.4915 214.119 18.8927 213.964 14.8198 215.155C10.747 216.347 6.77554 213.445 7.60206 210.024C8.4258 206.605 5.38367 189.398 5.38367 189.398H14.1155Z" fill="#FF9E81"/>
<path d="M10.1281 203.702C10.1281 203.702 10.8157 206.362 10.7462 207.381C10.6781 208.4 11.5713 209.766 12.7396 209.533" stroke="#FFBC9F" stroke-width="1.18596" stroke-miterlimit="10" stroke-linecap="round" stroke-linejoin="round"/>
<path d="M9.71339 137.572C8.27011 143.171 7.23941 156.852 8.06453 161.827C8.88827 166.803 10.3329 190.435 10.3329 190.435C14.8697 192.3 21.0582 190.435 21.0582 190.435C19.8205 187.532 23.3266 155.608 23.2807 147.316C23.2363 139.024 25.8019 138.818 25.3894 132.183C24.9768 125.55 29.1024 112.489 30.5443 103.368C31.989 94.2467 32.6071 70.6147 32.6071 70.6147L7.77143 69.992C2.40812 114.977 11.1581 131.976 9.71339 137.572" fill="url(#paint5_linear_3_18)"/>
<path d="M1.7395 49.2625C-4.31003 63.9129 7.51538 127.208 5.59009 134.118C3.6648 141.028 -1.01091 151.531 1.46446 159.27C3.93984 167.011 5.03999 191.609 5.03999 191.609C11.9146 194.65 16.589 191.609 16.589 191.609C15.2138 190.503 14.39 155.124 16.589 146.555C18.7893 137.987 20.4395 129.695 20.4395 122.51C20.4395 115.324 30.3397 76.3502 30.3397 76.3502L33.2276 77.1781C42.3026 70.8212 46.5644 49.2625 46.5644 49.2625C38.6507 42.1461 28.8464 38.4825 20.2979 38.4825C11.9133 38.4825 4.73579 42.0093 1.7395 49.2625" fill="url(#paint6_linear_3_18)"/>
<path d="M60.261 98.8078C66.7439 91.0324 74.4353 96.1844 78.3748 104.609C78.7916 108.517 78.9569 112.699 78.1887 115.721C76.7454 121.404 75.9203 127.623 75.9203 127.623C75.9203 127.623 68.4442 128.538 63.2031 125.629C59.2664 119.34 53.3377 107.112 60.261 98.8078Z" fill="#FF9E81"/>
<path d="M46.3054 50.4616C53.4245 50.2549 63.133 71.6517 63.133 71.6517C71.3842 84.089 76.5392 91.5517 77.1587 95.905C77.4476 97.9435 78.0088 101.169 78.3755 104.609C74.4361 96.1843 66.7432 91.0323 60.2617 98.8077C53.337 107.112 59.2671 119.34 63.2038 125.629C62.3509 125.157 61.5563 124.586 60.8645 123.89C55.9152 118.916 46.4276 109.173 41.8894 104.82C37.3526 100.465 46.5652 96.1131 46.5652 96.1131C46.5652 96.1131 45.1344 95.5504 42.9882 92.173C42.9882 92.173 37.5596 84.5037 37.5596 80.1503C37.5596 78.5168 36.0788 77.2923 34.2272 76.4001C41.3783 70.2904 45.3039 54.8763 46.3054 50.4616Z" fill="#E6E0F1"/>
<path d="M78.631 112.902C78.7393 124.444 74.6137 136.883 72.4134 149.32C70.2131 161.759 63.8885 181.521 58.114 191.263C52.3395 201.007 48.2139 209.023 46.565 210.957C44.9148 212.893 34.8771 215.933 32.6087 215.933C30.3389 215.933 20.1652 215.656 20.9889 213.721C21.4181 212.716 26.8981 214.039 30.3389 213.514C33.5228 213.029 34.6507 210.67 35.8398 210.404C38.3151 209.852 39.1361 206.535 42.9881 206.811C46.8387 207.088 50.1392 180.277 54.5398 171.432C58.9391 162.587 60.3143 161.759 60.3143 159.271C60.3143 157.077 60.7422 132.334 61.5965 118.928" fill="#FFBC9F"/>
<path fill-rule="evenodd" clip-rule="evenodd" d="M55.1454 170.448L41.8719 204.844L48.2902 209.145L58.7196 190.279C64.4941 180.536 70.8187 160.775 73.019 148.336C73.7302 144.316 74.6425 140.296 75.548 136.306C77.444 127.951 79.3099 119.729 79.2366 111.918C79.5674 105.978 77.57 94.223 66.9339 94.7145C53.6388 95.3289 54.9059 114.221 60.9199 121.901C60.0656 135.308 60.0572 155.804 60.0572 157.997C60.0572 160.485 59.5447 161.603 55.1454 170.448Z" fill="#E6E0F1"/>
<path d="M41.631 207.382C41.631 207.382 40.2336 206.371 38.8361 206.656" stroke="#FFBC9F" stroke-width="1.18596" stroke-miterlimit="10" stroke-linecap="round" stroke-linejoin="round"/>
<path d="M40.1884 208.262C40.1884 208.262 39.1563 207.589 38.3618 207.769" stroke="#FFBC9F" stroke-width="1.18596" stroke-miterlimit="10" stroke-linecap="round" stroke-linejoin="round"/>
<path d="M39.3114 209.403C39.3114 209.403 38.6697 208.805 38.0474 208.78" stroke="#FFBC9F" stroke-width="1.18596" stroke-miterlimit="10" stroke-linecap="round" stroke-linejoin="round"/>
<path d="M38.5378 210.18C38.5378 210.18 38.1016 209.635 37.5071 209.532" stroke="#FFBC9F" stroke-width="1.18596" stroke-miterlimit="10" stroke-linecap="round" stroke-linejoin="round"/>
<path d="M11.563 216.376H264.617" stroke="#8C7BAA" stroke-width="0.889469" stroke-linecap="round"/>
<path d="M635.307 198.907C635.307 198.907 643.848 199.922 646.689 197.701C649.531 195.48 656.157 192.573 659.999 197.436C663.84 202.298 667.93 205.769 673.125 206.954C678.322 208.141 682.765 208.669 684.466 210.861C686.167 213.053 691.449 214.839 689.259 215.268C688.356 215.445 634.86 207.239 634.86 207.239L635.307 198.907Z" fill="#FF9E81"/>
<path d="M379.301 94.8572C378.786 94.8351 377.559 88.3424 377.229 87.1116L377.24 87.1531C377.469 87.0964 377.698 87.0397 377.931 86.9803C383.632 85.5116 390.44 82.7445 391.824 78.2611C391.825 78.2542 391.827 78.2473 391.829 78.2418C392.17 78.5778 392.571 78.8655 393.009 79.1061C393.004 79.0881 392.998 79.0674 392.992 79.0466C393.846 82.2148 396.253 90.7984 396.63 91.7415C396.63 91.7415 389.309 95.2887 379.301 94.8572Z" fill="#FF9E81"/>
<path d="M386.315 75.0091C385.869 74.7657 391.075 74.4753 390.727 74.1378C390.722 74.1323 390.717 74.1282 390.712 74.1226C390.71 74.1282 390.708 74.1351 390.707 74.142C389.323 78.6253 382.515 81.3925 376.814 82.8611C376.572 82.9233 376.331 82.9828 376.095 83.0409C373.409 83.6922 371.039 84.049 369.713 84.1569C368.713 84.2385 368.006 84.8394 366.202 83.8597C366.001 80.757 364.738 79.4207 364.197 76.348C363.85 74.3746 363.712 71.1086 363.712 71.1086L362.432 70.5942C361.104 70.0618 360.47 69.7807 361.39 68.8362L364.598 66.3867C365.673 65.2832 365.929 63.6735 366.148 62.2768C366.248 61.6448 366.36 60.9036 366.479 60.0918C366.919 57.0536 366.883 54.0873 366.883 54.0873C366.883 54.0873 372.617 53.7707 376.123 58.0189C376.769 58.8016 377.34 59.7406 377.786 60.8635C378.593 62.9019 380.971 71.2573 390.302 68.6727C391.078 67.6908 386.694 66.9454 388.198 66.6675C391.122 66.124 394.127 67.5802 394.925 69.9325C395.799 72.5047 393.842 75.1169 390.682 75.6839C389.157 75.9591 387.643 75.7019 386.421 75.0699C386.385 75.0492 386.351 75.0284 386.315 75.0091Z" fill="#FFBC9F"/>
<path d="M377.113 86.6789C377.093 86.6084 377.076 86.5365 377.055 86.4659C377.035 86.3899 377.013 86.3124 376.992 86.2364C376.952 86.087 376.911 85.9391 376.868 85.7856C376.853 85.7275 376.836 85.6694 376.819 85.6099C376.795 85.5159 376.768 85.4232 376.741 85.3278C376.724 85.267 376.707 85.2061 376.69 85.1439C376.663 85.0499 376.639 84.9572 376.612 84.8645C376.593 84.7968 376.575 84.729 376.556 84.6613C376.459 84.3169 376.361 83.9698 376.262 83.62C376.252 83.5854 376.24 83.5494 376.23 83.5149C376.199 83.4001 376.166 83.2867 376.135 83.1719C376.121 83.129 376.109 83.0834 376.096 83.0405C376.334 82.9824 376.575 82.923 376.814 82.8607C382.517 81.3935 389.323 78.6263 390.709 74.143L390.729 74.1389C391.077 74.4763 391.485 74.7667 391.931 75.0101C391.931 75.0115 391.933 75.0156 391.933 75.0184C391.965 75.1498 392.001 75.2867 392.036 75.4263C392.045 75.454 392.052 75.4803 392.058 75.5079C392.077 75.5826 392.098 75.6587 392.118 75.7361C392.128 75.7734 392.137 75.8122 392.147 75.8495C392.167 75.9325 392.191 76.0168 392.213 76.104C392.221 76.1358 392.23 76.1703 392.238 76.2049C392.261 76.2865 392.283 76.3695 392.305 76.4524C392.323 76.5271 392.344 76.6032 392.362 76.6779C392.391 76.7871 392.422 76.8963 392.449 77.007C392.466 77.0706 392.483 77.1342 392.5 77.1992C392.525 77.2932 392.551 77.3887 392.576 77.4868C392.586 77.5242 392.597 77.5615 392.607 77.6016C392.632 77.6929 392.656 77.7855 392.682 77.8796L392.721 78.0331C392.746 78.123 392.772 78.2142 392.794 78.3055C392.804 78.3415 392.814 78.376 392.822 78.4106C392.879 78.6208 392.936 78.8338 392.994 79.0467C392.999 79.0675 393.004 79.0882 393.009 79.1062C392.571 78.8656 392.171 78.5779 391.829 78.2419C391.828 78.2474 391.826 78.2543 391.824 78.2613C390.44 82.7446 383.632 85.5117 377.931 86.9804C377.699 87.0398 377.469 87.0965 377.24 87.1532L377.23 87.1117C377.211 87.044 377.193 86.9721 377.172 86.9015L377.113 86.6789Z" fill="#FF9E81"/>
<g opacity="0.5">
<path d="M369.595 69.2722C370.687 68.8974 371.22 70.2928 371.22 70.2928C371.22 70.2928 371.773 68.903 372.858 69.2888C373.943 69.6732 371.902 72.5109 371.203 72.5068C370.503 72.504 368.505 69.647 369.595 69.2722Z" fill="#FF9E81"/>
</g>
<path d="M366.405 64.3102C366.405 64.3102 367.485 65.3257 370.765 65.1769C374.046 65.0281 375.166 64.0683 375.166 64.0683C375.166 64.0683 369.431 64.5005 366.405 64.3102" fill="#2B2A2A"/>
<path d="M374.801 61.281C374.801 61.281 374.083 61.2884 372.129 61.3854C370.175 61.4823 368.416 62.0248 368.416 62.0248C368.416 62.0248 370.021 60.489 372.241 60.2612C374.461 60.0334 374.801 61.281 374.801 61.281Z" fill="#2B2A2A"/>
<path d="M385.084 94.2724C379.476 95.2086 372.352 99.0199 371.084 107.068C369.817 115.117 376.024 118.109 376.024 118.109C376.024 118.109 380.206 136.066 379.953 142.051C379.698 148.036 377.418 154.226 380.459 167.333C383.5 180.439 380.206 201.591 380.206 201.591C380.206 201.591 371.845 205.618 363.23 207.682C354.615 209.745 352.334 209.847 352.714 210.571H355.882C355.882 210.571 354.868 211.912 362.342 211.602C369.817 211.292 387.174 210.674 388.568 207.682C389.962 204.689 391.608 176.413 393.383 170.015C395.157 163.619 395.028 152.576 391.987 142.567C388.946 132.558 393.537 123.063 394.535 110.267C395.535 97.471 386.94 93.9627 385.084 94.2724Z" fill="#FF9E81"/>
<path d="M371.084 107.068C372.352 99.0198 379.476 95.2086 385.084 94.2724C386.94 93.9626 395.536 97.471 394.536 110.267C393.537 123.063 388.947 132.558 391.987 142.567C395.028 152.576 395.157 163.619 393.383 170.015C391.609 176.413 389.962 204.689 388.568 207.682L380.206 201.591C380.206 201.591 383.5 180.439 380.459 167.333C377.419 154.226 379.699 148.036 379.953 142.051C380.206 136.066 376.025 118.109 376.025 118.109C376.025 118.109 369.818 115.117 371.084 107.068Z" fill="#EDEDED"/>
<path d="M437.677 141.936C428.231 143.61 423.304 144.612 417.691 143.944C413.585 153.98 397.431 162.9 397.431 162.9C441.375 188.544 536.242 199.807 550.203 197.132C564.167 194.454 639.734 209.174 639.734 209.174C643.019 203.487 639.734 196.462 639.734 196.462C629.876 195.458 601.95 191.109 583.88 182.412C571.474 176.442 557.909 177.724 549.159 179.006C545.165 179.591 542.174 180.176 540.758 180.069C536.242 179.736 469.711 154.315 469.711 154.315C463.118 143.144 455.677 140.526 448.696 140.526C444.804 140.526 441.057 141.338 437.677 141.936" fill="url(#paint7_linear_3_18)"/>
<path d="M409.169 117.534C410.024 109.728 417.692 89.8807 396.821 88.3664L379.968 91.4074C377.549 91.8444 375.546 93.2079 374.593 95.0707C371.629 100.858 364.789 113.56 359.374 118.649C352.256 125.339 367.191 128.708 370.052 133.144C373.644 138.717 385.614 160.079 398.482 161.417C398.482 161.417 413.943 154.097 418.05 144.062C418.05 144.062 408.313 125.339 409.169 117.534Z" fill="#E6E0F1"/>
<path d="M398.868 89.547C392.81 90.5565 385.109 94.6761 383.741 103.373C382.372 112.07 389.079 115.303 389.079 115.303C389.079 115.303 393.598 134.705 393.323 141.173C393.05 147.639 390.586 154.33 393.871 168.491C397.157 182.651 393.598 205.509 393.598 205.509C393.598 205.509 384.562 209.858 375.253 212.089C365.945 214.319 363.481 214.43 363.892 215.21H367.315C367.315 215.21 366.22 216.661 374.294 216.326C382.372 215.991 401.126 215.322 402.632 212.089C404.138 208.854 405.917 178.304 407.834 171.39C409.751 164.477 409.613 152.546 406.33 141.729C403.043 130.915 408.002 120.656 409.082 106.829C410.162 93.0028 398.868 89.547 398.868 89.547Z" fill="#FFBC9F"/>
<path d="M382.835 103.884C384.271 95.1916 392.354 91.0742 398.711 90.0653C398.711 90.0653 410.564 93.5192 409.43 107.338C408.297 121.158 403.092 131.41 406.542 142.218C409.988 153.029 410.132 164.954 408.121 171.864C406.109 178.773 404.242 209.307 402.661 212.54L393.18 205.963C393.18 205.963 396.915 183.118 393.467 168.965C390.019 154.812 392.605 148.126 392.892 141.663C393.18 135.199 388.437 115.807 388.437 115.807C388.437 115.807 381.399 112.576 382.835 103.884Z" fill="#E6E0F1"/>
<path d="M385.767 103.891C387.135 95.1943 394.837 91.0747 400.894 90.0652C395.39 90.7184 384.019 93.3965 382.576 98.8834C380.771 105.742 382.175 112.511 387.989 115.821C390.442 122.547 395.349 137.138 395.349 141.691C395.624 135.223 391.105 115.821 391.105 115.821C391.105 115.821 384.399 112.588 385.767 103.891Z" fill="#EDEDED"/>
<path d="M404.618 143.903C404.618 143.903 405.438 146.915 402.975 147.918" stroke="#EDEDED" stroke-width="1.18596" stroke-miterlimit="10" stroke-linecap="round" stroke-linejoin="round"/>
<path d="M372.818 77.1604C364.907 77.4807 365.2 77.6543 364.335 77.4909C363.971 77.422 364.161 76.3174 364.335 76.1805C365.251 75.4624 366.403 77.4199 372.818 77.1604Z" fill="#FF9E81"/>
<path d="M366.003 80.1038C366.069 79.9405 366.564 79.7119 368.007 80.1038" stroke="#FF9E81" stroke-width="0.889469"/>
<path d="M463.715 98.372C462.615 89.0315 450.055 81.4697 450.055 81.4697C463.715 82.3587 469.357 96.145 469.357 96.145L470.633 94.5164C470.633 88.5832 462.256 78.3537 444.597 76.2768C426.936 74.2067 421.845 73.3177 413.654 70.2017C405.462 67.0857 406.553 59.5239 395.81 51.6626C385.068 43.8094 377.793 44.6984 377.793 44.6984C376.609 44.6536 375.609 44.945 374.876 45.2662C374.132 44.945 373.141 44.6536 371.958 44.6984C361.68 50.6314 368.528 55.1304 373.236 56.6383L381.238 67.3666C383.429 71.0254 388.218 72.1373 391.797 69.8182L394.069 68.3461C396.328 73.1817 389.904 72.4952 392.265 79.7774C393.329 79.9492 395.673 102.639 406.7 120.759C422.432 122.448 422.938 122.246 422.938 122.246C423.827 120.177 424.212 117.053 424.212 117.053C425.846 119.13 426.212 122.246 426.212 122.246L430.084 121.506C431.588 118.981 431.487 114.684 431.487 114.684C432.405 116.612 433.854 120.759 433.854 120.759C437.679 120.168 446.238 117.942 449.22 113.645C452.202 109.341 451.147 105.784 451.147 105.784C451.844 106.703 452.275 107.735 452.54 108.684C453.055 110.492 452.972 112.016 452.972 112.016C452.972 112.016 464.806 107.713 463.715 98.372Z" fill="url(#paint8_linear_3_18)"/>
<path d="M452.553 108.593C452.288 107.644 451.856 106.613 451.159 105.694C451.159 105.694 452.215 109.251 449.233 113.555C446.251 117.851 437.692 120.078 433.867 120.669C433.867 120.669 432.418 116.522 431.5 114.594C431.5 114.594 431.601 118.89 430.096 121.416L426.225 122.155C426.225 122.155 425.858 119.039 424.225 116.962C424.225 116.962 423.839 120.086 422.95 122.155C422.95 122.155 412.324 127.052 393.876 125.779L407.321 120.669C407.321 120.669 386.896 86.1119 392.666 74.5519C394.941 77.4288 408.914 94.874 421.501 95.7406C434.078 96.6154 438.536 100.65 438.536 100.65L439.849 99.3803C437.491 95.778 428.555 94.2315 428.555 94.2315C428.555 94.2315 444.829 91.885 450.352 99.1854C452.94 102.6 453.104 105.97 452.553 108.593Z" fill="url(#paint9_linear_3_18)"/>
<path d="M372.647 62.9169C374.862 59.8016 376.219 57.415 377.046 55.7178C377.758 57.3966 379.19 60.1921 382.023 64.1767C387.028 71.2197 392.399 73.2211 392.399 73.2211L393.945 72.851C393.945 72.851 388.12 68.1804 385.845 64.028C385.845 64.028 389.85 68.4765 393.127 70.478C394.714 71.4482 395.926 71.7046 396.754 71.7111C394.997 72.1829 392.145 73.4062 392.399 76.3481C413.917 96.7602 428.954 96.7602 428.954 96.7602C428.954 96.7602 412.605 86.4308 412.514 77.1643C412.423 67.8964 406.7 56.3211 397.277 49.5671C387.253 42.3819 382.023 41.8917 375.549 43.7288C365.043 42.9138 362 54.4256 361.791 60.2834L365.231 61.8115L369.608 55.7178L366.794 61.8115L372.647 62.9169Z" fill="url(#paint10_linear_3_18)"/>
<path d="M406.299 125.828C405.564 128.114 404.415 133.895 405.698 138.728" stroke="#EDEDED" stroke-width="0.889469"/>
<path d="M381.44 120.765C380.304 123.106 377.029 128.114 373.019 129.42C375.559 128.821 380.798 126.252 381.44 120.765Z" fill="#D9D9D9"/>
<path d="M365.127 216.268H863.23" stroke="#8C7BAA" stroke-width="0.889469" stroke-linecap="round"/>
<path d="M1132.76 216.023C1132.76 216.023 1131.72 216.632 1130.43 216.023C1130.43 216.023 1129.65 216.551 1128.02 215.686C1128.02 215.686 1126.88 216.203 1125.77 214.997C1124.65 213.784 1123.53 213.007 1119.56 210.675C1116.22 208.721 1111.29 205.532 1107.5 203.96C1106.78 203.658 1106.11 203.42 1105.49 203.258C1105.49 203.258 1061.5 192.383 1032.52 182.536C1009.23 174.637 1003.51 166.656 1002.75 161.263C1002.56 159.94 1002.67 158.774 1002.9 157.801C1002.9 157.801 1007.55 149.321 1026.65 153.543C1047.08 158.055 1066.74 173.732 1078.35 180.813C1089.39 187.541 1098.67 191.305 1105.78 191.369C1106.15 191.369 1106.52 191.357 1106.88 191.34C1114.13 190.997 1116.02 191.52 1119.82 195.144C1123.61 198.769 1124.82 203.427 1129.3 206.361C1133.79 209.301 1135.17 213.784 1135.52 214.997C1135.86 216.203 1134.56 216.806 1132.76 216.023Z" fill="url(#paint11_linear_3_18)"/>
<path d="M1103.71 131.574C1106.17 135.036 1108.6 138.725 1110.45 142.147L1078.57 166.21V166.54L1078.35 166.377L1078.13 166.54V166.21L1046.25 142.147C1047.88 139.131 1049.96 135.906 1052.13 132.81C1057.88 124.586 1064.19 117.29 1064.19 117.29C1064.19 117.29 1059.59 110.121 1054.48 99.4092C1052.74 95.7556 1050.94 91.6956 1049.24 87.3631C1042.57 70.3297 1043.26 65.4985 1043.26 65.4985C1045.31 62.6046 1051.32 60.1803 1057.07 57.8488C1062.27 55.7376 1067.27 53.7018 1068.91 51.4578C1070.38 49.4568 1071.1 47.3688 1071.43 45.6345C1071.9 43.2798 1071.67 41.5634 1071.67 41.5634H1085.04C1085.04 41.5634 1084.76 43.663 1085.44 46.4062C1085.84 47.966 1086.54 49.7409 1087.8 51.4578C1090.16 54.6939 1099.48 57.4951 1106.38 60.7137C1109.55 62.1929 1112.21 63.759 1113.44 65.4985C1113.44 65.4985 1114.13 70.3297 1107.46 87.3631C1105.68 91.9101 1103.79 96.1615 1101.96 99.9542C1096.96 110.365 1092.51 117.29 1092.51 117.29C1092.51 117.29 1098.21 123.867 1103.7 131.574H1103.71Z" fill="#E6E0F1"/>
<path d="M1106.38 60.714C1101.78 63.9907 1093.95 67.0528 1081.89 64.3734C1071.3 62.0192 1062.91 59.6639 1057.07 57.849C1062.27 55.7378 1067.27 53.702 1068.91 51.4575C1070.38 49.457 1071.1 47.369 1071.43 45.6348C1074.92 45.4086 1078.81 45.5072 1083.1 46.0754C1083.91 46.1798 1084.68 46.29 1085.44 46.406C1085.84 47.9663 1086.54 49.7411 1087.8 51.4575C1090.16 54.6941 1099.48 57.4953 1106.38 60.714Z" fill="#EDEDED"/>
<path d="M1103.7 131.574C1098.29 132.862 1089.71 134.37 1078.15 134.741C1065.36 135.147 1056.86 133.877 1052.13 132.81C1057.88 124.586 1064.19 117.29 1064.19 117.29C1064.19 117.29 1059.59 110.121 1054.48 99.4093C1058.31 102.587 1065.72 106.734 1077.88 106.004C1089.73 105.296 1097.62 102.228 1101.96 99.9543C1096.96 110.365 1092.51 117.29 1092.51 117.29C1092.51 117.29 1098.21 123.867 1103.7 131.574" fill="#EDEDED"/>
<path d="M1072.14 102.558V113.949C1072.14 113.949 1032.81 139.154 1010.27 125.571C1010.27 125.571 1008.89 121.431 1016.94 111.763C1024.99 102.094 1034.64 79.7713 1034.64 79.7713C1037.41 69.6398 1043.26 65.4986 1043.26 65.4986L1048.2 77.4224L1050.65 83.321L1052.13 86.905L1051.02 88.4422L1033.55 112.516L1033.06 113.189C1034.57 112.766 1036.1 112.429 1037.64 112.221C1051.21 110.382 1068.69 105.551 1072.14 102.558Z" fill="#E6E0F1"/>
<path d="M1081.43 90.7454C1081.13 89.8614 1080.76 89.2816 1080.44 89.9632C1080.35 88.2036 1080.18 86.9305 1079.96 86.5594C1079.35 85.5125 1079.07 85.5263 1078.57 86.6454C1078.52 85.9337 1078.27 85.4456 1078.01 85.3939C1077.56 85.308 1076.77 87.5088 1076.34 89.3211C1076.03 90.6247 1075.68 94.1238 1075.5 95.9925L1074.63 97.6968C1074.71 95.041 1073.78 92.194 1073.23 92.4286C1072.63 92.6879 1072.89 94.1549 1072.98 97.3051C1073.02 98.9002 1073.02 100.083 1073.01 100.865L1072.14 102.556C1072.14 102.556 1071.22 110.612 1072.14 113.949C1072.14 113.949 1074.33 112.951 1076.55 109.976V109.978C1076.55 109.978 1079.62 106.153 1081 101.319C1082.38 96.4854 1081.86 92.0401 1081.43 90.7454Z" fill="#FF9E81"/>
<path d="M1146.93 125.571C1124.39 139.154 1085.05 113.949 1085.05 113.949V102.558C1088.51 105.551 1105.99 110.382 1119.56 112.221C1121.09 112.429 1122.62 112.766 1124.14 113.189L1123.61 112.464L1106.51 88.8885L1105.07 86.9049L1112.43 64.373C1112.43 64.373 1119.18 68.1141 1122.55 79.7712C1122.55 79.7712 1132.21 102.094 1140.26 111.762C1148.31 121.431 1146.93 125.571 1146.93 125.571Z" fill="#E6E0F1"/>
<path d="M1075.77 90.7454C1076.06 89.8614 1076.44 89.2816 1076.76 89.9632C1076.84 88.2036 1077.02 86.9306 1077.23 86.5595C1077.84 85.5126 1078.13 85.5263 1078.62 86.6454C1078.68 85.9338 1078.92 85.4456 1079.19 85.394C1079.64 85.308 1080.43 87.5088 1080.86 89.3211C1081.17 90.6247 1081.52 94.1239 1081.7 95.9926L1082.57 97.6968C1082.48 95.0411 1083.42 92.194 1083.96 92.4286C1084.57 92.6879 1084.31 94.155 1084.22 97.3051C1084.18 98.9002 1084.18 100.083 1084.19 100.865L1085.06 102.556C1085.06 102.556 1085.98 110.612 1085.06 113.949C1085.06 113.949 1082.87 112.951 1080.65 109.976L1080.65 109.979C1080.65 109.979 1077.58 106.153 1076.2 101.319C1074.82 96.4854 1075.34 92.0401 1075.77 90.7454Z" fill="#FF9E81"/>
<path d="M1107.5 203.96C1106.78 203.658 1106.11 203.421 1105.49 203.258C1105.49 203.258 1061.5 192.383 1032.52 182.535C1009.23 174.637 1003.51 166.656 1002.75 161.263C1004.66 163.681 1009.48 167.816 1021.73 173.634C1042.6 183.551 1100.2 197.853 1107.5 203.96Z" fill="url(#paint12_linear_3_18)"/>
<path d="M1123 182.537C1096.12 191.664 1056.34 201.678 1050.69 203.087C1050.25 203.2 1050.01 203.257 1050.01 203.257C1046.13 204.288 1039.93 208.348 1035.96 210.677C1031.99 213.004 1030.87 213.786 1029.75 214.994C1028.62 216.203 1027.5 215.688 1027.5 215.688C1025.86 216.549 1025.09 216.026 1025.09 216.026C1023.79 216.63 1022.76 216.026 1022.76 216.026C1020.95 216.807 1019.65 216.203 1020 214.994C1020.35 213.786 1021.72 209.299 1026.21 206.358C1030.69 203.426 1031.9 198.77 1035.7 195.145C1039.49 191.52 1041.39 190.996 1048.64 191.342C1049.44 191.382 1050.28 191.367 1051.15 191.31C1058.06 190.803 1066.84 187.105 1077.16 180.813C1088.78 173.732 1108.43 158.055 1128.86 153.544C1147.96 149.323 1152.73 157.721 1152.73 157.721C1153.88 162.667 1151.98 172.701 1123 182.537Z" fill="url(#paint13_linear_3_18)"/>
<path d="M1135.57 144.389C1124.84 141.577 1113.66 141.238 1110.37 141.949C1109.06 138.86 1105.9 134.739 1105.9 134.739C1105.9 134.739 1093.42 142.835 1074.44 142.663C1055.47 142.49 1049.19 137.205 1049.19 137.205C1048.41 138.407 1046.25 142.145 1046.25 142.145C1046.25 142.145 1037.01 141.299 1019.94 144.907C1003.61 148.359 1002.9 157.797 1002.9 157.797C1002.9 157.797 1013.71 150.892 1033.96 156.416C1053.74 161.815 1063.86 177.319 1077.41 178.233V178.282C1077.57 178.279 1077.72 178.264 1077.88 178.257C1078.04 178.264 1078.19 178.279 1078.35 178.282V178.233C1091.9 177.319 1102.02 161.815 1121.8 156.416C1142.05 150.892 1152.86 157.797 1152.86 157.797C1152.86 157.797 1153.37 149.05 1135.57 144.389" fill="url(#paint14_linear_3_18)"/>
<path d="M1050.69 203.088C1050.25 203.201 1050.01 203.257 1050.01 203.257C1046.13 204.288 1039.93 208.348 1035.96 210.676C1031.99 213.004 1030.87 213.786 1029.75 214.995C1028.62 216.203 1027.5 215.687 1027.5 215.687C1025.86 216.549 1025.09 216.026 1025.09 216.026C1023.79 216.63 1022.76 216.026 1022.76 216.026C1020.95 216.807 1019.65 216.203 1020 214.995C1020.35 213.786 1021.72 209.299 1026.21 206.359C1030.69 203.427 1031.9 198.77 1035.7 195.145C1039.49 191.52 1041.39 190.996 1048.64 191.343C1049.44 191.383 1050.28 191.367 1051.15 191.31C1049.85 195.668 1050.22 200.22 1050.69 203.088Z" fill="#FF9E81"/>
<path d="M1132.75 216.026C1132.75 216.026 1131.72 216.63 1130.43 216.026C1130.43 216.026 1129.65 216.549 1128.01 215.687C1128.01 215.687 1126.88 216.203 1125.77 214.995C1124.65 213.786 1123.53 213.005 1119.56 210.677C1116.22 208.719 1111.29 205.529 1107.5 203.957C1107.98 198.045 1106.62 193.525 1105.78 191.367C1106.15 191.367 1106.52 191.358 1106.88 191.343C1114.12 190.996 1116.02 191.52 1119.82 195.145C1123.61 198.77 1124.82 203.427 1129.3 206.359C1133.79 209.299 1135.17 213.786 1135.52 214.995C1135.86 216.203 1134.57 216.807 1132.75 216.026Z" fill="#FF9E81"/>
<path d="M1121.84 152.365C1114.64 154.72 1106.33 160.228 1098.13 166.098C1095.97 166.201 1093.44 166.049 1091.04 165.243C1089.06 164.582 1087.91 164.7 1088.03 163.744C1089.12 155.356 1102.82 147.223 1102.82 147.223C1093.82 149.888 1088.15 157.755 1085.89 162.198C1084.2 164.264 1081.42 166.807 1078.13 166.543C1072.68 166.103 1070.88 161.376 1069.11 158.842C1066.28 154.77 1060.37 149.545 1052.53 147.223C1052.53 147.223 1064.73 154.114 1068.96 163.096C1070.12 165.573 1070.22 167.895 1066.2 166.543C1059.74 164.373 1048.54 156 1044.83 154.306C1034.78 149.713 1026.84 151.086 1025.08 151.482C1026.11 151.346 1029.71 151.475 1040.61 155.798C1049.7 159.405 1060.94 167.674 1067.55 172.889L1072.99 177.343C1073.07 177.412 1073.13 177.459 1073.13 177.459C1073.13 177.459 1073.1 177.428 1073.05 177.38C1073.46 177.62 1076.28 179.106 1081.81 177.804C1079.98 179.046 1078.21 180.194 1076.51 181.207C1063.2 189.161 1051.15 191.31 1051.15 191.31C1051.15 191.31 1052.28 193.578 1068.18 187.986C1084.08 182.393 1099.36 166.61 1114.14 158.532C1128.92 150.454 1138.85 151.448 1143.2 152.939C1143.2 152.939 1135.75 147.815 1121.84 152.365Z" fill="url(#paint15_linear_3_18)"/>
<path d="M1051.02 88.442L1033.55 112.516C1030.11 112.986 1027.69 112.383 1027.69 112.383C1035.66 106.137 1046.32 81.8248 1048.2 77.4227C1048.4 76.982 1048.5 76.738 1048.5 76.738C1049.55 78.6288 1050.26 80.8849 1050.65 83.3208C1050.91 84.9618 1051.04 86.6903 1051.02 88.442Z" fill="#EDEDED"/>
<path d="M1129.82 112.383C1129.82 112.383 1127.25 113.027 1123.61 112.464L1106.51 88.8888C1106.4 84.3824 1107.2 80.015 1109.02 76.7384C1109.02 76.7384 1121.05 105.505 1129.82 112.383Z" fill="#EDEDED"/>
<path d="M1050.69 88.8922C1050.69 88.8922 1049.62 73.8999 1043.94 67.1257C1043.94 67.1257 1053.44 73.562 1050.69 88.8922Z" fill="#EDEDED"/>
<path d="M1033.06 113.189C1033.06 113.189 1018.75 114.537 1016.02 120.005C1016.02 120.005 1016.64 116.128 1023.16 113.189C1029.68 110.25 1034.16 111.67 1034.16 111.67L1033.06 113.189Z" fill="#EDEDED"/>
<path d="M1124.17 113.189C1124.17 113.189 1138.48 114.537 1141.21 120.005C1141.21 120.005 1140.59 116.128 1134.07 113.189C1127.55 110.25 1123.07 111.67 1123.07 111.67L1124.17 113.189Z" fill="#EDEDED"/>
<path d="M1069.91 50.2278C1069.91 50.2278 1073.02 52.7824 1078.2 52.5691C1085.14 52.2841 1086.5 49.3674 1086.5 49.3674L1085.15 44.503L1071.74 43.8841L1069.91 50.2278Z" fill="#FF9E81"/>
<path fill-rule="evenodd" clip-rule="evenodd" d="M1134.38 41.6825C1133.69 34.4328 1125.75 28.5637 1125.75 28.5637C1134.38 29.2537 1137.95 39.954 1137.95 39.954L1138.75 38.69C1138.75 34.0849 1133.46 26.1452 1122.3 24.5332C1111.15 22.9265 1107.93 22.2365 1102.75 19.818C1100.11 18.5837 1099 16.4505 1097.64 13.8464C1096.33 11.3481 1094.8 8.4163 1091.48 5.42878C1084.69 -0.666488 1080.1 0.0235326 1080.1 0.0235326C1079.35 -0.0112583 1078.72 0.214884 1078.25 0.464219C1077.78 0.214884 1077.16 -0.0112583 1076.41 0.0235326C1076.41 0.0235326 1071.81 -0.666488 1065.02 5.42878C1061.7 8.41536 1060.17 11.3462 1058.87 13.844C1057.51 16.4492 1056.39 18.5833 1053.75 19.818C1048.58 22.2365 1045.35 22.9265 1034.2 24.5332C1023.04 26.1452 1017.75 34.0849 1017.75 38.69L1018.56 39.954C1018.56 39.954 1022.12 29.2537 1030.75 28.5637C1030.75 28.5637 1022.81 34.4328 1022.12 41.6825C1021.44 48.7988 1028.64 52.1509 1028.9 52.2669L1028.91 52.2727C1028.91 52.2727 1028.79 49.5063 1030.06 47.4357C1030.06 47.4357 1029.39 50.1963 1031.27 53.5367C1033.16 56.8719 1038.57 58.5999 1040.98 59.0585C1040.98 59.0585 1041.9 55.8398 1042.48 54.3432C1042.48 54.3432 1042.41 57.6779 1043.37 59.6383L1045.81 60.2124C1045.81 60.2124 1046.04 57.7939 1047.08 56.1819C1047.08 56.1819 1047.32 58.6062 1047.89 60.2124C1047.89 60.2124 1051.45 62.167 1056.95 62.9208C1058.43 63.125 1059.07 62.3396 1059.82 61.4113C1060.57 60.4947 1061.42 59.4387 1063.32 59.0585C1067.74 58.1729 1065.31 46.4656 1063.32 36.8974C1062.89 34.8363 1062.48 32.8745 1062.16 31.1415C1062.49 31.8639 1062.72 32.2516 1062.72 32.2516C1062.72 32.2516 1064.62 30.462 1064.85 27.1822C1065.08 23.9023 1063.93 21.7158 1063.93 21.7158C1063.93 21.7158 1065.31 21.1401 1067.38 19.5867C1069.45 18.0332 1071.98 14.5805 1071.98 14.5805C1070.54 17.8028 1066.86 21.428 1066.86 21.428L1067.84 21.7158C1067.84 21.7158 1071.23 20.1623 1074.4 14.6954C1075.79 12.2774 1076.65 10.4251 1077.17 9.10775C1077.62 10.4108 1078.53 12.5805 1080.32 15.6732C1083.48 21.1396 1086.87 22.6931 1086.87 22.6931L1087.85 22.4058C1087.85 22.4058 1084.17 18.7807 1082.73 15.5578C1082.73 15.5578 1085.26 19.0105 1087.33 20.564C1089.4 22.118 1090.79 22.6931 1090.79 22.6931C1090.79 22.6931 1089.64 24.8796 1089.87 28.16C1090.06 30.9581 1091.68 33.0656 1092.15 33.6243C1092.16 33.6367 1092.16 33.649 1092.16 33.6613C1092.5 33.7286 1092.11 41.1709 1091.72 48.5363C1091.34 55.7614 1090.96 62.9125 1091.28 62.9556C1101.22 64.266 1108.62 60.2124 1108.62 60.2124C1109.18 58.6062 1109.42 56.1819 1109.42 56.1819C1110.46 57.7939 1110.69 60.2124 1110.69 60.2124L1113.13 59.6383C1114.08 57.6779 1114.02 54.3432 1114.02 54.3432C1114.6 55.8398 1115.52 59.0585 1115.52 59.0585C1117.93 58.5999 1123.34 56.8719 1125.22 53.5367C1127.11 50.1963 1126.44 47.4357 1126.44 47.4357C1126.88 48.1489 1127.15 48.9496 1127.32 49.686C1127.65 51.0892 1127.6 52.2727 1127.6 52.2727C1127.6 52.2727 1135.07 48.9322 1134.38 41.6825Z" fill="url(#paint16_linear_3_18)"/>
<path d="M1094.62 24.5227C1094.62 34.7591 1084.92 47.6476 1078.15 47.6476C1070.98 47.6476 1061.54 34.7591 1061.54 24.5227C1061.54 14.2857 1068.95 5.98704 1078.08 5.98704C1087.21 5.98704 1094.62 14.2857 1094.62 24.5227Z" fill="#FFBC9F"/>
<path d="M1066.52 26.5378C1066.52 26.5378 1067.42 27.8904 1070.65 28.116C1073.88 28.3416 1075.12 27.3269 1075.12 27.3269C1075.12 27.3269 1069.45 27.1392 1066.52 26.5378" fill="#2B2A2A"/>
<path d="M1073.61 23.8059C1073.61 23.8059 1072.91 23.7263 1070.99 23.6019C1069.06 23.4775 1067.26 23.9124 1067.26 23.9124C1067.26 23.9124 1069.06 22.2656 1071.27 22.2656C1073.47 22.2656 1073.61 23.8059 1073.61 23.8059Z" fill="#2B2A2A"/>
<path d="M1089.31 26.5379C1089.31 26.5379 1088.41 27.8905 1085.18 28.1161C1081.95 28.3418 1080.71 27.327 1080.71 27.327C1080.71 27.327 1086.38 27.1394 1089.31 26.5379" fill="#2B2A2A"/>
<path d="M1082.21 23.8057C1082.21 23.8057 1082.91 23.7261 1084.84 23.6017C1086.76 23.4773 1088.56 23.9122 1088.56 23.9122C1088.56 23.9122 1086.76 22.2654 1084.56 22.2654C1082.35 22.2654 1082.21 23.8057 1082.21 23.8057Z" fill="#2B2A2A"/>
<path d="M1076.11 35.3562C1076.11 35.3562 1076.99 35.9951 1078.04 36.0778C1079.09 36.1606 1080 35.4563 1080 35.4563L1078.12 35.0836L1076.11 35.3562Z" fill="#FF9E81"/>
<path d="M1073.95 38.71C1073.95 38.71 1075.95 39.3536 1077.92 39.3995C1079.9 39.4459 1082.21 38.6868 1082.21 38.6868C1082.21 38.6868 1079.69 38.457 1079.03 38.5029C1078.36 38.5487 1078.01 38.9514 1078.01 38.9514C1078.01 38.9514 1077.74 38.4971 1076.89 38.5002C1076.04 38.5029 1073.95 38.71 1073.95 38.71Z" fill="#EE876D"/>
<path d="M1074.76 40.0319C1074.76 40.0319 1076.26 41.2043 1078.2 41.17C1080.14 41.1352 1081.35 40.0319 1081.35 40.0319C1081.35 40.0319 1080.36 42.3424 1078.2 42.3076C1076.04 42.2733 1074.76 40.0319 1074.76 40.0319Z" fill="#FF9E81"/>
<path d="M1084.27 33.0218C1085.05 32.6811 1085.4 34.0192 1085.4 34.0192C1085.4 34.0192 1085.82 32.7036 1086.58 33.0861C1087.35 33.4697 1085.85 36.1425 1085.35 36.129C1084.86 36.1155 1083.49 33.3625 1084.27 33.0218Z" fill="#602B50"/>
<path d="M1069.25 33.0218C1070.03 32.6811 1070.39 34.0192 1070.39 34.0192C1070.39 34.0192 1070.8 32.7036 1071.57 33.0861C1072.33 33.4697 1070.83 36.1425 1070.34 36.129C1069.84 36.1155 1068.47 33.3625 1069.25 33.0218Z" fill="#602B50"/>
<path fill-rule="evenodd" clip-rule="evenodd" d="M1133.99 41.6828C1133.29 34.4331 1125.36 28.5639 1125.36 28.5639C1133.99 29.254 1137.55 39.9543 1137.55 39.9543L1138.36 38.6902C1138.36 34.0852 1133.07 26.1454 1121.91 24.5335C1110.75 22.9268 1107.53 22.2367 1102.36 19.8182C1099.72 18.5839 1098.6 16.4508 1097.24 13.8466C1095.94 11.3483 1094.41 8.41655 1091.08 5.42903C1084.3 -0.666236 1079.7 0.0237844 1079.7 0.0237844C1078.95 -0.0110066 1078.32 0.215136 1077.86 0.464471C1077.39 0.215136 1076.76 -0.0110066 1076.01 0.0237844C1076.01 0.0237844 1071.41 -0.666236 1064.62 5.42903C1061.31 8.41561 1059.78 11.3465 1058.47 13.8443C1057.11 16.4495 1056 18.5835 1053.36 19.8182C1048.18 22.2367 1044.96 22.9268 1033.8 24.5335C1022.65 26.1454 1017.36 34.0852 1017.36 38.6902L1018.16 39.9543C1018.16 39.9543 1021.73 29.254 1030.35 28.5639C1030.35 28.5639 1022.42 34.4331 1021.73 41.6828C1021.05 48.7991 1028.25 52.1511 1028.51 52.2671L1028.51 52.2729C1028.51 52.2729 1028.4 49.5065 1029.66 47.4359C1029.66 47.4359 1029 50.1965 1030.88 53.537C1032.77 56.8722 1038.17 58.6001 1040.59 59.0587C1040.59 59.0587 1041.51 55.84 1042.08 54.3435C1042.08 54.3435 1042.02 57.6782 1042.97 59.6386L1045.42 60.2126C1045.42 60.2126 1045.65 57.7941 1046.69 56.1821C1046.69 56.1821 1046.92 58.6064 1047.49 60.2126C1047.49 60.2126 1051.05 62.1672 1056.55 62.921C1058.06 63.1293 1058.59 62.6125 1059.26 61.9565C1059.9 61.3337 1060.67 60.5854 1062.53 60.2126C1066.98 59.321 1064.65 46.9766 1062.77 37.0319C1062.35 34.813 1061.95 32.7135 1061.65 30.8874C1062.04 31.7728 1062.33 32.2519 1062.33 32.2519C1062.33 32.2519 1064.22 30.4623 1064.45 27.1824C1064.68 23.9026 1063.53 21.716 1063.53 21.716C1063.53 21.716 1064.91 21.1404 1066.98 19.5869C1069.05 18.0335 1071.58 14.5807 1071.58 14.5807C1070.15 17.8031 1066.47 21.4282 1066.47 21.4282L1067.44 21.716C1067.44 21.716 1070.84 20.1626 1074 14.6956C1075.4 12.2777 1076.26 10.4253 1076.78 9.10801C1077.23 10.4111 1078.13 12.5808 1079.92 15.6735C1083.09 21.1399 1086.48 22.6933 1086.48 22.6933L1087.46 22.406C1087.46 22.406 1083.78 18.7809 1082.34 15.558C1082.34 15.558 1084.87 19.0108 1086.94 20.5642C1089.01 22.1182 1090.39 22.6933 1090.39 22.6933C1090.39 22.6933 1089.24 24.8799 1089.47 28.1603C1089.67 30.9592 1091.29 33.0671 1091.76 33.6251C1091.76 33.6373 1091.76 33.6494 1091.77 33.6616C1092.11 33.7289 1091.71 41.1711 1091.32 48.5365C1090.94 55.7616 1090.57 62.9128 1090.89 62.9558C1100.83 64.2663 1108.22 60.2126 1108.22 60.2126C1108.79 58.6064 1109.03 56.1821 1109.03 56.1821C1110.06 57.7941 1110.29 60.2126 1110.29 60.2126L1112.74 59.6386C1113.69 57.6782 1113.63 54.3435 1113.63 54.3435C1114.21 55.84 1115.12 59.0587 1115.12 59.0587C1117.54 58.6001 1122.95 56.8722 1124.83 53.537C1126.71 50.1965 1126.05 47.4359 1126.05 47.4359C1126.49 48.1491 1126.76 48.9498 1126.93 49.6863C1127.25 51.0895 1127.2 52.2729 1127.2 52.2729C1127.2 52.2729 1134.68 48.9325 1133.99 41.6828Z" fill="url(#paint17_linear_3_18)"/>
<path d="M1071.69 44.6748L1069.71 50.8028L1066.55 61.0819C1066.55 61.0819 1060.82 63.5117 1056.76 62.9546C1051.25 62.2008 1047.7 60.2462 1047.7 60.2462C1047.13 58.64 1046.89 56.2157 1046.89 56.2157C1045.85 57.8277 1045.62 60.2462 1045.62 60.2462L1043.17 59.6721C1042.22 57.7117 1042.29 54.3771 1042.29 54.3771C1041.71 55.8736 1040.79 59.0923 1040.79 59.0923C1038.38 58.6342 1032.97 56.9057 1031.08 53.5711C1029.2 50.2301 1029.87 47.4695 1029.87 47.4695C1028.6 49.5401 1028.72 52.3065 1028.72 52.3065L1028.71 52.3007C1028.57 52.0745 1025.3 46.6635 1028.72 41.1075C1032.21 35.4413 1042.49 37.262 1042.49 37.262C1042.49 37.262 1036.84 38.4628 1035.36 41.2582L1036.18 42.244C1036.18 42.244 1039 39.1123 1046.95 38.4339C1054.89 37.7607 1061.35 33.8612 1062.8 31.6282C1066.62 41.6531 1071.69 44.6748 1071.69 44.6748Z" fill="url(#paint18_linear_3_18)"/>
<path d="M1127.13 49.7199C1126.96 48.9835 1126.69 48.1828 1126.25 47.4696C1126.25 47.4696 1126.92 50.2302 1125.03 53.5712C1123.15 56.9058 1117.74 58.6343 1115.32 59.0924C1115.32 59.0924 1114.41 55.8737 1113.83 54.3772C1113.83 54.3772 1113.89 57.7118 1112.94 59.6723L1110.5 60.2463C1110.5 60.2463 1110.26 57.8278 1109.23 56.2158C1109.23 56.2158 1108.99 58.6401 1108.43 60.2463C1108.43 60.2463 1101.71 64.0471 1090.06 63.0588L1084.72 44.2795C1084.72 44.2795 1088.28 42.5693 1091.93 33.597C1093.36 35.8299 1099.56 39.0718 1107.51 39.7444C1115.46 40.4234 1118.27 43.5551 1118.27 43.5551L1119.1 42.5693C1117.61 39.7734 1111.97 38.5731 1111.97 38.5731C1111.97 38.5731 1122.25 36.7519 1125.74 42.4181C1127.37 45.0685 1127.48 47.6841 1127.13 49.7199Z" fill="url(#paint19_linear_3_18)"/>
<path d="M951.287 216.376H1204.34" stroke="#8C7BAA" stroke-width="0.889469" stroke-linecap="round"/>
<rect y="251.955" width="227.704" height="16.8999" fill="#E6E0F1"/>
<rect x="245.049" y="251.955" width="225.925" height="16.8999" fill="#FFBC9F"/>
<rect x="488.318" y="251.955" width="227.704" height="16.8999" fill="#FF9E81"/>
<rect x="733.367" y="251.955" width="225.925" height="16.8999" fill="#EDEDED"/>
<rect x="976.637" y="251.955" width="227.704" height="16.8999" fill="url(#paint20_linear_3_18)"/>
<defs>
<linearGradient id="paint0_linear_3_18" x1="94.1359" y1="176.635" x2="44.4226" y2="176.635" gradientUnits="userSpaceOnUse">
<stop stop-color="#6D2E55"/>
<stop offset="0.334039" stop-color="#6D2E55"/>
<stop offset="1" stop-color="#001226"/>
</linearGradient>
<linearGradient id="paint1_linear_3_18" x1="84.3269" y1="128.15" x2="57.8709" y2="195.359" gradientUnits="userSpaceOnUse">
<stop stop-color="#6D2E55"/>
<stop offset="0.231697" stop-color="#6D2E55"/>
<stop offset="1" stop-color="#001226"/>
</linearGradient>
<linearGradient id="paint2_linear_3_18" x1="83.6747" y1="130.422" x2="62.3327" y2="192.135" gradientUnits="userSpaceOnUse">
<stop stop-color="#6D2E55"/>
<stop offset="0.231697" stop-color="#6D2E55"/>
<stop offset="1" stop-color="#001226"/>
</linearGradient>
<linearGradient id="paint3_linear_3_18" x1="86.7304" y1="129.847" x2="54.3547" y2="203.469" gradientUnits="userSpaceOnUse">
<stop stop-color="#6D2E55"/>
<stop offset="0.231697" stop-color="#6D2E55"/>
<stop offset="1" stop-color="#001226"/>
</linearGradient>
<linearGradient id="paint4_linear_3_18" x1="82.1468" y1="125.941" x2="56.6913" y2="192.558" gradientUnits="userSpaceOnUse">
<stop stop-color="#6D2E55"/>
<stop offset="0.231697" stop-color="#6D2E55"/>
<stop offset="1" stop-color="#001226"/>
</linearGradient>
<linearGradient id="paint5_linear_3_18" x1="19.3101" y1="191.264" x2="19.3101" y2="69.9931" gradientUnits="userSpaceOnUse">
<stop stop-color="#6D2E55"/>
<stop offset="0.334039" stop-color="#6D2E55"/>
<stop offset="1" stop-color="#001226"/>
</linearGradient>
<linearGradient id="paint6_linear_3_18" x1="23.2826" y1="192.961" x2="23.2826" y2="38.4823" gradientUnits="userSpaceOnUse">
<stop stop-color="#001226"/>
<stop offset="0.665961" stop-color="#6D2E55"/>
<stop offset="1" stop-color="#6D2E55"/>
</linearGradient>
<linearGradient id="paint7_linear_3_18" x1="519.312" y1="209.173" x2="519.312" y2="140.526" gradientUnits="userSpaceOnUse">
<stop stop-color="#6D2E55"/>
<stop offset="0.334039" stop-color="#6D2E55"/>
<stop offset="1" stop-color="#001226"/>
</linearGradient>
<linearGradient id="paint8_linear_3_18" x1="366.603" y1="28.0112" x2="453.476" y2="129.711" gradientUnits="userSpaceOnUse">
<stop stop-color="#6D2E55"/>
<stop offset="0.334039" stop-color="#6D2E55"/>
<stop offset="1" stop-color="#001226"/>
</linearGradient>
<linearGradient id="paint9_linear_3_18" x1="391.463" y1="57.7318" x2="417.023" y2="140.276" gradientUnits="userSpaceOnUse">
<stop stop-color="#6D2E55"/>
<stop offset="0.334039" stop-color="#6D2E55"/>
<stop offset="1" stop-color="#001226"/>
</linearGradient>
<linearGradient id="paint10_linear_3_18" x1="404.87" y1="65.4592" x2="348.088" y2="65.4592" gradientUnits="userSpaceOnUse">
<stop stop-color="#6D2E55"/>
<stop offset="0.334039" stop-color="#6D2E55"/>
<stop offset="1" stop-color="#001226"/>
</linearGradient>
<linearGradient id="paint11_linear_3_18" x1="1069.11" y1="216.375" x2="1069.11" y2="152.365" gradientUnits="userSpaceOnUse">
<stop stop-color="#001226"/>
<stop offset="0.665961" stop-color="#6D2E55"/>
<stop offset="1" stop-color="#6D2E55"/>
</linearGradient>
<linearGradient id="paint12_linear_3_18" x1="1055.12" y1="203.96" x2="1055.12" y2="161.263" gradientUnits="userSpaceOnUse">
<stop stop-color="#6D2E55"/>
<stop offset="0.348958" stop-color="#260419"/>
<stop offset="0.536458" stop-color="#001226"/>
</linearGradient>
<linearGradient id="paint13_linear_3_18" x1="1086.46" y1="216.376" x2="1086.46" y2="152.357" gradientUnits="userSpaceOnUse">
<stop stop-color="#001226"/>
<stop offset="0.665961" stop-color="#6D2E55"/>
<stop offset="1" stop-color="#6D2E55"/>
</linearGradient>
<linearGradient id="paint14_linear_3_18" x1="1077.88" y1="178.282" x2="1077.88" y2="134.739" gradientUnits="userSpaceOnUse">
<stop stop-color="#001226"/>
<stop offset="0.665961" stop-color="#6D2E55"/>
<stop offset="1" stop-color="#6D2E55"/>
</linearGradient>
<linearGradient id="paint15_linear_3_18" x1="1084.14" y1="191.765" x2="1084.14" y2="147.223" gradientUnits="userSpaceOnUse">
<stop stop-color="#6D2E55"/>
<stop offset="0.348958" stop-color="#260419"/>
<stop offset="0.536458" stop-color="#001226"/>
</linearGradient>
<linearGradient id="paint16_linear_3_18" x1="1079.91" y1="-18.9203" x2="1079.91" y2="24.173" gradientUnits="userSpaceOnUse">
<stop stop-color="#6D2E55"/>
<stop offset="0.334039" stop-color="#6D2E55"/>
<stop offset="1" stop-color="#001226"/>
</linearGradient>
<linearGradient id="paint17_linear_3_18" x1="1079.52" y1="-18.92" x2="1079.52" y2="24.1733" gradientUnits="userSpaceOnUse">
<stop stop-color="#6D2E55"/>
<stop offset="0.334039" stop-color="#6D2E55"/>
<stop offset="1" stop-color="#001226"/>
</linearGradient>
<linearGradient id="paint18_linear_3_18" x1="1076.25" y1="47.5175" x2="1027.17" y2="47.5175" gradientUnits="userSpaceOnUse">
<stop stop-color="#6D2E55"/>
<stop offset="0.334039" stop-color="#6D2E55"/>
<stop offset="1" stop-color="#001226"/>
</linearGradient>
<linearGradient id="paint19_linear_3_18" x1="1127.29" y1="48.321" x2="1078.21" y2="48.321" gradientUnits="userSpaceOnUse">
<stop stop-color="#6D2E55"/>
<stop offset="0.334039" stop-color="#6D2E55"/>
<stop offset="1" stop-color="#001226"/>
</linearGradient>
<linearGradient id="paint20_linear_3_18" x1="1090.49" y1="251.955" x2="1090.49" y2="268.855" gradientUnits="userSpaceOnUse">
<stop stop-color="#001226"/>
<stop offset="0.665961" stop-color="#6D2E55"/>
<stop offset="1" stop-color="#6D2E55"/>
</linearGradient>
</defs>
</svg>
