<svg width="929" height="201" viewBox="0 0 929 201" fill="none" xmlns="http://www.w3.org/2000/svg">
<path d="M168.141 165.042V184H164.462V174.758H156.078V184H152.399V165.042H156.078V172.056H164.462V165.042H168.141ZM173.005 170.961C173.331 170.83 173.7 170.707 174.113 170.592C174.535 170.478 174.979 170.377 175.444 170.289C175.919 170.192 176.407 170.118 176.908 170.065C177.417 170.012 177.932 169.986 178.45 169.986C179.18 169.986 179.861 170.043 180.494 170.157C181.135 170.271 181.667 170.46 182.089 170.724C182.511 170.988 182.84 171.348 183.078 171.805C183.315 172.253 183.434 172.82 183.434 173.506V178.858C183.434 179.474 183.438 180.023 183.447 180.506C183.456 180.981 183.473 181.447 183.5 181.904C183.517 182.071 183.535 182.225 183.552 182.365C183.57 182.497 183.587 182.629 183.605 182.761C183.631 182.884 183.658 183.016 183.684 183.156C183.719 183.297 183.759 183.451 183.803 183.618C183.258 183.741 182.713 183.859 182.168 183.974C181.632 184.088 181.087 184.198 180.533 184.303C180.437 184.057 180.357 183.807 180.296 183.552C180.243 183.288 180.195 182.989 180.151 182.655H179.953C179.646 182.972 179.338 183.235 179.03 183.446C178.723 183.657 178.402 183.829 178.068 183.96C177.734 184.092 177.387 184.185 177.026 184.237C176.666 184.29 176.288 184.316 175.893 184.316C175.286 184.316 174.724 184.242 174.205 184.092C173.687 183.952 173.234 183.732 172.847 183.433C172.469 183.134 172.17 182.756 171.951 182.299C171.74 181.833 171.634 181.289 171.634 180.665C171.634 180.137 171.687 179.667 171.792 179.254C171.907 178.841 172.065 178.472 172.267 178.146C172.469 177.821 172.711 177.536 172.992 177.29C173.273 177.043 173.585 176.828 173.928 176.644C174.614 176.274 175.378 176.024 176.222 175.892C177.066 175.751 177.927 175.681 178.806 175.681H179.94V173.967C179.94 173.642 179.887 173.387 179.782 173.203C179.685 173.009 179.549 172.864 179.373 172.768C179.206 172.671 179.008 172.609 178.78 172.583C178.551 172.548 178.305 172.53 178.042 172.53C177.33 172.53 176.609 172.623 175.879 172.807C175.159 172.983 174.469 173.203 173.81 173.466L173.005 170.961ZM179.94 177.619H179.676C179.052 177.628 178.455 177.676 177.883 177.764C177.321 177.843 176.824 177.984 176.394 178.186C175.963 178.388 175.616 178.656 175.352 178.99C175.097 179.315 174.97 179.729 174.97 180.229C174.97 180.783 175.128 181.209 175.444 181.508C175.77 181.807 176.222 181.957 176.802 181.957C177.075 181.957 177.356 181.921 177.646 181.851C177.936 181.772 178.222 181.667 178.503 181.535C178.784 181.394 179.048 181.223 179.294 181.021C179.54 180.818 179.755 180.585 179.94 180.322V177.619ZM192.596 167.151V170.289H197.21V172.926H192.596V179.504C192.596 179.935 192.614 180.291 192.649 180.572C192.693 180.854 192.768 181.078 192.873 181.245C192.979 181.403 193.124 181.517 193.308 181.587C193.493 181.649 193.73 181.68 194.02 181.68C194.301 181.68 194.626 181.649 194.996 181.587C195.374 181.526 195.817 181.438 196.327 181.324C196.38 181.482 196.437 181.667 196.499 181.877C196.569 182.088 196.635 182.308 196.696 182.537C196.767 182.756 196.833 182.972 196.894 183.183C196.956 183.385 197.013 183.565 197.065 183.723C196.819 183.811 196.529 183.895 196.195 183.974C195.87 184.044 195.527 184.105 195.167 184.158C194.807 184.211 194.442 184.25 194.073 184.277C193.704 184.303 193.356 184.316 193.031 184.316C192.724 184.316 192.42 184.303 192.122 184.277C191.823 184.25 191.537 184.202 191.265 184.132C191.001 184.07 190.755 183.987 190.526 183.881C190.298 183.776 190.1 183.64 189.933 183.473C189.546 183.095 189.292 182.576 189.168 181.917C189.045 181.249 188.984 180.401 188.984 179.373V172.926H187.006V170.289H188.984V167.151H192.596ZM204.171 165.016V172.636H204.264C204.536 172.231 204.817 171.867 205.107 171.542C205.397 171.216 205.718 170.939 206.07 170.711C206.43 170.474 206.826 170.293 207.256 170.17C207.687 170.047 208.175 169.986 208.72 169.986C209.766 169.986 210.605 170.197 211.238 170.619C211.879 171.032 212.354 171.665 212.662 172.517C212.829 172.974 212.947 173.488 213.018 174.06C213.097 174.631 213.136 175.272 213.136 175.984V184H209.524V174.943C209.524 174.231 209.357 173.668 209.023 173.255C208.689 172.833 208.21 172.623 207.586 172.623C207.234 172.623 206.892 172.71 206.558 172.886C206.224 173.062 205.907 173.282 205.608 173.545C205.31 173.809 205.037 174.099 204.791 174.416C204.545 174.732 204.338 175.035 204.171 175.325V184H200.546V165.016H204.171ZM217.355 170.961C217.68 170.83 218.049 170.707 218.462 170.592C218.884 170.478 219.328 170.377 219.794 170.289C220.269 170.192 220.756 170.118 221.257 170.065C221.767 170.012 222.281 169.986 222.8 169.986C223.529 169.986 224.21 170.043 224.843 170.157C225.485 170.271 226.017 170.46 226.438 170.724C226.86 170.988 227.19 171.348 227.427 171.805C227.665 172.253 227.783 172.82 227.783 173.506V178.858C227.783 179.474 227.788 180.023 227.796 180.506C227.805 180.981 227.823 181.447 227.849 181.904C227.867 182.071 227.884 182.225 227.902 182.365C227.919 182.497 227.937 182.629 227.955 182.761C227.981 182.884 228.007 183.016 228.034 183.156C228.069 183.297 228.108 183.451 228.152 183.618C227.607 183.741 227.062 183.859 226.518 183.974C225.981 184.088 225.437 184.198 224.883 184.303C224.786 184.057 224.707 183.807 224.646 183.552C224.593 183.288 224.544 182.989 224.5 182.655H224.303C223.995 182.972 223.688 183.235 223.38 183.446C223.072 183.657 222.751 183.829 222.417 183.96C222.083 184.092 221.736 184.185 221.376 184.237C221.016 184.29 220.638 184.316 220.242 184.316C219.636 184.316 219.073 184.242 218.555 184.092C218.036 183.952 217.583 183.732 217.197 183.433C216.819 183.134 216.52 182.756 216.3 182.299C216.089 181.833 215.984 181.289 215.984 180.665C215.984 180.137 216.037 179.667 216.142 179.254C216.256 178.841 216.415 178.472 216.617 178.146C216.819 177.821 217.061 177.536 217.342 177.29C217.623 177.043 217.935 176.828 218.278 176.644C218.963 176.274 219.728 176.024 220.572 175.892C221.416 175.751 222.277 175.681 223.156 175.681H224.29V173.967C224.29 173.642 224.237 173.387 224.131 173.203C224.035 173.009 223.898 172.864 223.723 172.768C223.556 172.671 223.358 172.609 223.129 172.583C222.901 172.548 222.655 172.53 222.391 172.53C221.679 172.53 220.958 172.623 220.229 172.807C219.508 172.983 218.818 173.203 218.159 173.466L217.355 170.961ZM224.29 177.619H224.026C223.402 177.628 222.804 177.676 222.233 177.764C221.67 177.843 221.174 177.984 220.743 178.186C220.312 178.388 219.965 178.656 219.702 178.99C219.447 179.315 219.319 179.729 219.319 180.229C219.319 180.783 219.478 181.209 219.794 181.508C220.119 181.807 220.572 181.957 221.152 181.957C221.424 181.957 221.706 181.921 221.996 181.851C222.286 181.772 222.571 181.667 222.853 181.535C223.134 181.394 223.397 181.223 223.644 181.021C223.89 180.818 224.105 180.585 224.29 180.322V177.619ZM252.133 170.289V183.895C252.133 184.923 251.966 185.793 251.632 186.505C251.307 187.226 250.841 187.81 250.235 188.258C249.637 188.707 248.917 189.032 248.073 189.234C247.238 189.436 246.315 189.537 245.304 189.537C244.522 189.537 243.727 189.467 242.918 189.326C242.118 189.194 241.375 188.992 240.69 188.72C240.875 188.28 241.063 187.85 241.257 187.428C241.45 187.006 241.648 186.584 241.85 186.162C242.483 186.364 243.125 186.536 243.775 186.676C244.425 186.826 245.054 186.9 245.66 186.9C245.836 186.9 246.025 186.892 246.227 186.874C246.438 186.865 246.649 186.834 246.86 186.782C247.071 186.729 247.277 186.646 247.479 186.531C247.682 186.426 247.857 186.276 248.007 186.083C248.165 185.898 248.292 185.661 248.389 185.371C248.486 185.09 248.539 184.747 248.547 184.343V181.667H248.429C248.139 182.106 247.835 182.493 247.519 182.827C247.211 183.152 246.877 183.429 246.517 183.657C246.157 183.877 245.761 184.04 245.331 184.145C244.9 184.259 244.421 184.316 243.894 184.316C243.032 184.316 242.32 184.18 241.758 183.908C241.195 183.635 240.743 183.244 240.4 182.734C240.066 182.207 239.829 181.574 239.688 180.836C239.547 180.098 239.477 179.258 239.477 178.318V170.289H243.089V179.359C243.089 180.115 243.265 180.691 243.617 181.086C243.968 181.482 244.452 181.68 245.067 181.68C245.401 181.68 245.726 181.601 246.042 181.442C246.368 181.284 246.68 181.078 246.979 180.823C247.277 180.568 247.554 180.278 247.809 179.953C248.064 179.619 248.292 179.285 248.495 178.951V170.289H252.133ZM262.443 169.986C263.594 169.986 264.592 170.166 265.436 170.526C266.279 170.887 266.974 171.388 267.519 172.029C268.072 172.662 268.481 173.418 268.745 174.297C269.017 175.167 269.153 176.116 269.153 177.145C269.153 178.173 269.017 179.126 268.745 180.005C268.481 180.884 268.072 181.645 267.519 182.286C266.974 182.919 266.279 183.416 265.436 183.776C264.592 184.136 263.594 184.316 262.443 184.316C261.292 184.316 260.294 184.136 259.45 183.776C258.606 183.416 257.908 182.919 257.354 182.286C256.809 181.645 256.4 180.884 256.128 180.005C255.864 179.126 255.732 178.173 255.732 177.145C255.732 176.116 255.864 175.167 256.128 174.297C256.4 173.418 256.809 172.662 257.354 172.029C257.908 171.388 258.606 170.887 259.45 170.526C260.294 170.166 261.292 169.986 262.443 169.986ZM262.443 172.57C261.81 172.57 261.292 172.688 260.887 172.926C260.483 173.163 260.167 173.488 259.938 173.901C259.709 174.314 259.551 174.802 259.463 175.365C259.384 175.918 259.345 176.512 259.345 177.145C259.345 177.786 259.384 178.388 259.463 178.951C259.551 179.504 259.709 179.988 259.938 180.401C260.167 180.814 260.483 181.139 260.887 181.376C261.292 181.614 261.81 181.732 262.443 181.732C263.076 181.732 263.594 181.614 263.999 181.376C264.403 181.139 264.719 180.814 264.948 180.401C265.176 179.988 265.33 179.504 265.409 178.951C265.497 178.388 265.541 177.786 265.541 177.145C265.541 176.512 265.497 175.918 265.409 175.365C265.33 174.802 265.176 174.314 264.948 173.901C264.719 173.488 264.403 173.163 263.999 172.926C263.594 172.688 263.076 172.57 262.443 172.57ZM281.454 170.276C281.875 170.276 282.236 170.271 282.535 170.263C282.833 170.254 283.119 170.232 283.392 170.197C283.664 170.162 283.95 170.109 284.249 170.039C284.547 169.968 284.908 169.876 285.33 169.762C285.461 170.166 285.598 170.588 285.738 171.027C285.879 171.458 286.011 171.889 286.134 172.319C285.844 172.425 285.576 172.513 285.33 172.583C285.092 172.653 284.859 172.715 284.631 172.768C284.411 172.812 284.191 172.847 283.972 172.873C283.761 172.891 283.532 172.904 283.286 172.913C283.453 173.291 283.567 173.664 283.629 174.033C283.69 174.394 283.721 174.776 283.721 175.18C283.721 176.024 283.594 176.762 283.339 177.395C283.084 178.019 282.719 178.551 282.245 178.99C281.955 179.254 281.625 179.474 281.256 179.649C280.887 179.825 280.5 179.97 280.096 180.084C279.691 180.19 279.278 180.265 278.856 180.309C278.443 180.353 278.043 180.375 277.657 180.375C276.945 180.375 276.294 180.322 275.706 180.216C275.556 180.638 275.481 180.972 275.481 181.218C275.481 181.385 275.512 181.53 275.574 181.653C275.644 181.768 275.754 181.869 275.903 181.957C276.132 182.08 276.404 182.159 276.721 182.194C277.046 182.229 277.402 182.247 277.789 182.247C277.903 182.247 278.048 182.247 278.224 182.247C278.408 182.247 278.597 182.247 278.791 182.247C278.984 182.238 279.168 182.233 279.344 182.233C279.529 182.233 279.687 182.233 279.819 182.233C280.522 182.233 281.159 182.299 281.73 182.431C282.302 182.554 282.79 182.756 283.194 183.038C283.607 183.319 283.923 183.692 284.143 184.158C284.372 184.624 284.486 185.191 284.486 185.859C284.486 186.624 284.297 187.265 283.919 187.784C283.55 188.311 283.058 188.737 282.442 189.062C281.827 189.388 281.124 189.621 280.333 189.761C279.542 189.911 278.725 189.985 277.881 189.985C277.274 189.985 276.668 189.95 276.062 189.88C275.464 189.818 274.884 189.735 274.321 189.629C273.882 189.542 273.464 189.44 273.069 189.326C272.682 189.221 272.322 189.106 271.988 188.983C272.102 188.711 272.269 188.364 272.489 187.942C272.717 187.52 272.968 187.067 273.24 186.584C274.137 186.9 274.989 187.133 275.798 187.283C276.606 187.432 277.345 187.507 278.013 187.507C278.426 187.507 278.812 187.48 279.173 187.428C279.533 187.375 279.845 187.287 280.109 187.164C280.373 187.041 280.579 186.874 280.729 186.663C280.887 186.461 280.966 186.202 280.966 185.885C280.966 185.639 280.913 185.441 280.808 185.292C280.702 185.151 280.557 185.042 280.373 184.962C280.188 184.883 279.968 184.831 279.713 184.804C279.467 184.787 279.199 184.778 278.909 184.778C278.786 184.778 278.659 184.778 278.527 184.778C278.395 184.787 278.263 184.791 278.131 184.791H277.709C277.305 184.791 276.901 184.782 276.497 184.765C276.101 184.756 275.719 184.721 275.35 184.659C274.98 184.598 274.638 184.505 274.321 184.382C274.005 184.268 273.728 184.11 273.491 183.908C273.262 183.697 273.078 183.438 272.937 183.13C272.805 182.813 272.739 182.436 272.739 181.996C272.739 181.565 272.823 181.13 272.99 180.691C273.157 180.243 273.368 179.799 273.623 179.359C273.385 179.201 273.148 178.995 272.911 178.74C272.682 178.485 272.476 178.186 272.291 177.843C272.115 177.492 271.97 177.096 271.856 176.657C271.75 176.217 271.698 175.725 271.698 175.18C271.698 174.354 271.825 173.625 272.08 172.992C272.344 172.35 272.713 171.805 273.188 171.357C273.469 171.093 273.785 170.874 274.137 170.698C274.488 170.522 274.857 170.381 275.244 170.276C275.631 170.17 276.031 170.096 276.444 170.052C276.857 170.008 277.261 169.986 277.657 169.986C278.158 169.986 278.628 170.017 279.067 170.078C279.507 170.131 279.894 170.197 280.228 170.276H281.454ZM277.709 172.425C276.936 172.425 276.325 172.658 275.877 173.124C275.429 173.589 275.205 174.275 275.205 175.18C275.205 176.112 275.429 176.806 275.877 177.263C276.334 177.711 276.945 177.936 277.709 177.936C278.483 177.936 279.094 177.703 279.542 177.237C279.99 176.771 280.214 176.085 280.214 175.18C280.214 174.266 279.981 173.581 279.516 173.124C279.059 172.658 278.457 172.425 277.709 172.425ZM289.126 170.961C289.452 170.83 289.821 170.707 290.234 170.592C290.656 170.478 291.1 170.377 291.565 170.289C292.04 170.192 292.528 170.118 293.029 170.065C293.539 170.012 294.053 169.986 294.571 169.986C295.301 169.986 295.982 170.043 296.615 170.157C297.256 170.271 297.788 170.46 298.21 170.724C298.632 170.988 298.961 171.348 299.199 171.805C299.436 172.253 299.555 172.82 299.555 173.506V178.858C299.555 179.474 299.559 180.023 299.568 180.506C299.577 180.981 299.594 181.447 299.621 181.904C299.638 182.071 299.656 182.225 299.673 182.365C299.691 182.497 299.708 182.629 299.726 182.761C299.752 182.884 299.779 183.016 299.805 183.156C299.84 183.297 299.88 183.451 299.924 183.618C299.379 183.741 298.834 183.859 298.289 183.974C297.753 184.088 297.208 184.198 296.654 184.303C296.558 184.057 296.479 183.807 296.417 183.552C296.364 183.288 296.316 182.989 296.272 182.655H296.074C295.767 182.972 295.459 183.235 295.151 183.446C294.844 183.657 294.523 183.829 294.189 183.96C293.855 184.092 293.508 184.185 293.147 184.237C292.787 184.29 292.409 184.316 292.014 184.316C291.407 184.316 290.845 184.242 290.326 184.092C289.808 183.952 289.355 183.732 288.968 183.433C288.59 183.134 288.292 182.756 288.072 182.299C287.861 181.833 287.755 181.289 287.755 180.665C287.755 180.137 287.808 179.667 287.914 179.254C288.028 178.841 288.186 178.472 288.388 178.146C288.59 177.821 288.832 177.536 289.113 177.29C289.395 177.043 289.707 176.828 290.049 176.644C290.735 176.274 291.5 176.024 292.343 175.892C293.187 175.751 294.048 175.681 294.927 175.681H296.061V173.967C296.061 173.642 296.008 173.387 295.903 173.203C295.806 173.009 295.67 172.864 295.494 172.768C295.327 172.671 295.129 172.609 294.901 172.583C294.672 172.548 294.426 172.53 294.163 172.53C293.451 172.53 292.73 172.623 292 172.807C291.28 172.983 290.59 173.203 289.931 173.466L289.126 170.961ZM296.061 177.619H295.797C295.173 177.628 294.576 177.676 294.004 177.764C293.442 177.843 292.945 177.984 292.515 178.186C292.084 178.388 291.737 178.656 291.473 178.99C291.218 179.315 291.091 179.729 291.091 180.229C291.091 180.783 291.249 181.209 291.565 181.508C291.891 181.807 292.343 181.957 292.923 181.957C293.196 181.957 293.477 181.921 293.767 181.851C294.057 181.772 294.343 181.667 294.624 181.535C294.905 181.394 295.169 181.223 295.415 181.021C295.661 180.818 295.876 180.585 296.061 180.322V177.619Z" fill="#808080"/>
<path d="M8.10791 109.78C8.10791 109.78 32.794 87.5198 32.0194 61.1301C32.0194 61.1301 8.48897 88.8619 8.10791 109.78Z" fill="#0033A9"/>
<path d="M22.1299 169.669C22.1299 169.669 21.2023 177.904 27.2305 181.478C33.2588 185.051 39.4432 186.76 41.9154 187.226C44.3891 187.693 48.2544 186.294 50.1097 187.226C51.965 188.159 54.4435 187.14 54.5903 189.247C54.6309 189.829 53.066 189.887 53.066 189.887C53.066 189.887 53.1144 190.642 51.4434 190.877C51.4434 190.877 51.3841 192.102 50.458 192.16C50.458 192.16 50.2253 193.208 49.5881 193.034C49.5881 193.034 49.6459 194.083 48.081 194.083C46.5146 194.083 45.6463 195.656 43.4427 196.646C41.2391 197.637 35.5732 197.579 32.4373 197.52C29.2982 197.462 27.5007 197.288 22.9217 198.627C18.3428 199.968 13.8794 196.704 14.8071 192.858C15.7332 189.014 12.313 169.669 12.313 169.669H22.1299Z" fill="#FFBC9F"/>
<path d="M17.647 185.751C17.647 185.751 18.42 188.741 18.3419 189.887C18.2654 191.033 19.2696 192.568 20.583 192.306" stroke="#2B2A2A" stroke-width="1.33333" stroke-miterlimit="10" stroke-linecap="round" stroke-linejoin="round"/>
<path d="M88.1147 74.3437C91.8254 86.7726 90.1465 110.627 87.6743 124.61C85.2006 138.595 78.0901 160.814 71.5964 171.767C65.1044 182.72 60.4676 191.732 58.6123 193.908C56.757 196.083 45.472 199.5 42.9217 199.5C40.3714 199.5 28.9319 199.191 29.8595 197.016C30.3405 195.885 36.5015 197.372 40.3714 196.782C43.9493 196.237 45.2175 193.584 46.5543 193.286C49.3373 192.664 50.2602 188.935 54.5909 189.247C58.9215 189.556 62.6322 159.415 67.5781 149.471C72.5257 139.527 74.0702 138.595 74.0702 135.797C74.0702 133.333 74.5512 105.515 75.5117 90.441" fill="#EDEDED"/>
<path d="M53.0666 189.887C53.0666 189.887 51.4955 188.751 49.9229 189.071" stroke="#2B2A2A" stroke-width="1.33333" stroke-miterlimit="10" stroke-linecap="round" stroke-linejoin="round"/>
<path d="M51.4428 190.878C51.4428 190.878 50.284 190.121 49.3892 190.324" stroke="#2B2A2A" stroke-width="1.33333" stroke-miterlimit="10" stroke-linecap="round" stroke-linejoin="round"/>
<path d="M50.4573 192.16C50.4573 192.16 49.7373 191.488 49.0361 191.46" stroke="#2B2A2A" stroke-width="1.33333" stroke-miterlimit="10" stroke-linecap="round" stroke-linejoin="round"/>
<path d="M49.5875 193.034C49.5875 193.034 49.0971 192.422 48.4287 192.306" stroke="#2B2A2A" stroke-width="1.33333" stroke-miterlimit="10" stroke-linecap="round" stroke-linejoin="round"/>
<path d="M53.5438 158.95C57.2341 175.039 49.9409 197.345 49.9409 197.345C101.167 201.349 109.127 168.373 104.832 142.636C100.889 119.014 84.5392 113.465 84.5392 113.465C82.4356 113.127 80.4225 112.962 78.4938 112.962C57.7261 112.966 47.3766 132.078 53.5438 158.95Z" fill="url(#paint0_linear_0_21)"/>
<path d="M97.5292 142.914C100.798 126.152 92.5346 120.632 87.6536 117.771C109.039 139.642 86.2347 168.789 72.1592 180.629C79.4807 176.106 94.2601 159.676 97.5292 142.914Z" fill="url(#paint1_linear_0_21)"/>
<path d="M96.8323 140.842C100.144 125.922 91.772 121.008 86.8267 118.462C108.494 137.929 85.3891 163.874 71.1284 174.412C78.5463 170.386 93.5201 155.762 96.8323 140.842Z" fill="url(#paint2_linear_0_21)"/>
<path d="M100.268 150.375C103.58 131.402 95.208 125.153 90.2628 121.916C111.93 146.67 88.8252 179.661 74.5645 193.062C81.9823 187.943 96.9561 169.347 100.268 150.375Z" fill="url(#paint3_linear_0_21)"/>
<path d="M95.1145 139.737C98.4267 123.251 90.0542 117.822 85.1089 115.009C106.776 136.519 83.6714 165.185 69.4106 176.83C76.8285 172.381 91.8023 156.223 95.1145 139.737Z" fill="url(#paint4_linear_0_21)"/>
<path d="M69.6236 94.2464C69.0723 94.2872 67.9213 102.922 67.5996 104.561C67.6027 104.544 67.6059 104.525 67.609 104.508C67.8573 104.577 68.104 104.646 68.3555 104.721C74.5211 106.547 81.9065 110.072 83.5104 115.988C83.5135 115.996 83.5151 116.006 83.5166 116.013C83.8743 115.563 84.2975 115.172 84.7629 114.841C84.7566 114.868 84.7551 114.894 84.7473 114.919C87.2273 108.297 88.0238 84.924 88.4017 83.6667C88.4017 83.6667 80.3667 93.4616 69.6236 94.2464Z" fill="#FFBC9F"/>
<path d="M78.3021 120.844C77.8128 121.174 83.5179 121.568 83.1365 122.025C83.1309 122.032 83.1253 122.038 83.1197 122.045C83.1179 122.038 83.116 122.028 83.1141 122.019C81.5978 115.944 74.1371 112.195 67.8895 110.205C67.6253 110.121 67.3611 110.04 67.1025 109.961C64.1591 109.079 61.5618 108.595 60.1087 108.449C59.0129 108.339 58.2377 107.524 56.2604 108.852C56.0407 113.056 54.6569 114.866 54.0634 119.03C53.6838 121.704 53.5318 126.129 53.5318 126.129L52.1289 126.826C50.674 127.548 49.9792 127.929 50.9876 129.208L54.5028 132.527C55.6805 134.023 55.9616 136.204 56.2016 138.096C56.3114 138.953 56.4342 139.957 56.5644 141.057C57.0463 145.174 57.0072 149.193 57.0072 149.193C57.0072 149.193 63.2902 149.622 67.1322 143.866C67.8411 142.805 68.4662 141.533 68.9555 140.011C69.8393 137.249 72.4459 125.928 82.6713 129.43C83.5216 130.76 78.717 131.77 80.3654 132.147C83.5692 132.883 86.8624 130.91 87.7368 127.723C88.695 124.238 86.5498 120.698 83.0874 119.93C81.4166 119.557 79.757 119.905 78.4174 120.762C78.3784 120.79 78.3411 120.818 78.3021 120.844Z" fill="#FFBC9F"/>
<path d="M81.346 128.842C80.9876 128.926 80.6287 128.704 80.5444 128.346C80.4601 127.987 80.6823 127.628 81.0408 127.544L81.346 128.842ZM80.6941 123.588C80.6941 121.624 82.286 120.032 84.2496 120.032C86.2133 120.032 87.8052 121.624 87.8052 123.588C87.8052 125.551 86.2133 127.143 84.2496 127.143C82.286 127.143 80.6941 125.551 80.6941 123.588ZM81.1934 128.193C81.0408 127.544 81.0405 127.544 81.0402 127.544C81.0401 127.544 81.0398 127.544 81.0397 127.544C81.0394 127.544 81.0391 127.545 81.0389 127.545C81.0385 127.545 81.0383 127.545 81.0384 127.545C81.0384 127.545 81.0394 127.544 81.0411 127.544C81.0446 127.543 81.0514 127.541 81.0612 127.539C81.0808 127.533 81.1125 127.525 81.1543 127.512C81.2382 127.485 81.3616 127.443 81.5097 127.382C81.8084 127.258 82.1927 127.062 82.5531 126.771C83.2459 126.21 83.8775 125.29 83.5934 123.705L84.9059 123.47C85.2902 125.615 84.3936 126.997 83.3913 127.807C82.904 128.201 82.3989 128.457 82.0201 128.614C81.8294 128.693 81.6671 128.748 81.5499 128.785C81.4912 128.803 81.4435 128.817 81.4089 128.826C81.3916 128.831 81.3775 128.834 81.367 128.837C81.3617 128.838 81.3573 128.839 81.3538 128.84C81.352 128.841 81.3505 128.841 81.3492 128.841C81.3485 128.841 81.3479 128.842 81.3474 128.842C81.3471 128.842 81.3468 128.842 81.3466 128.842C81.3463 128.842 81.346 128.842 81.1934 128.193Z" fill="#FF9E81"/>
<path d="M67.6556 105.277C67.6369 105.371 67.6182 105.465 67.598 105.56C67.5793 105.66 67.5591 105.764 67.5373 105.865C67.4984 106.061 67.4579 106.26 67.4175 106.462C67.4004 106.54 67.3848 106.617 67.3692 106.697C67.3443 106.82 67.3179 106.944 67.293 107.069C67.2759 107.152 67.2587 107.234 67.2416 107.317C67.2167 107.439 67.1918 107.562 67.1669 107.688C67.1467 107.777 67.1296 107.866 67.1109 107.955C67.016 108.413 66.9195 108.874 66.823 109.339C66.8121 109.386 66.8028 109.433 66.7934 109.48C66.7607 109.632 66.7296 109.782 66.6985 109.934C66.6845 109.992 66.6736 110.052 66.6611 110.11C66.9164 110.18 67.1747 110.254 67.4346 110.332C73.5772 112.153 79.958 117.05 81.5563 122.952L82.5601 121.574C82.9227 121.12 83.3507 120.727 83.8222 120.397C83.8238 120.392 83.8238 120.387 83.8253 120.383C83.858 120.211 83.8923 120.029 83.9265 119.841C83.9327 119.805 83.9405 119.771 83.9467 119.735C83.9654 119.634 83.9856 119.533 84.0043 119.431C84.0137 119.381 84.023 119.332 84.0323 119.281C84.0541 119.171 84.0759 119.058 84.0961 118.944C84.1055 118.9 84.1148 118.855 84.1226 118.809C84.1444 118.7 84.1646 118.59 84.1864 118.479C84.2051 118.38 84.2237 118.28 84.244 118.18C84.272 118.036 84.2985 117.892 84.328 117.743C84.3436 117.659 84.3607 117.574 84.3778 117.488C84.4012 117.363 84.4261 117.236 84.451 117.108C84.4603 117.056 84.4712 117.006 84.4805 116.954C84.5039 116.832 84.5288 116.71 84.5521 116.585C84.5661 116.517 84.5801 116.449 84.5926 116.381C84.6159 116.261 84.6408 116.139 84.6642 116.018C84.6735 115.973 84.6813 115.926 84.6906 115.879C84.7451 115.6 84.8011 115.317 84.8572 115.032C84.8634 115.007 84.868 114.98 84.8727 114.953C84.4105 115.284 83.9888 115.674 83.6308 116.123C83.6293 116.115 83.6277 116.106 83.6261 116.098C82.0278 110.197 74.6666 106.681 68.524 104.86C68.2734 104.787 68.026 104.716 67.7801 104.647C67.777 104.665 67.7739 104.683 67.7692 104.701C67.7521 104.791 67.7334 104.887 67.7147 104.981C67.6945 105.079 67.6758 105.177 67.6556 105.277Z" fill="#E0695F"/>
<g opacity="0.5">
<path d="M59.8567 128.377C61.0389 128.851 61.5761 126.99 61.5761 126.99C61.5761 126.99 62.2071 128.82 63.3627 128.288C64.5184 127.754 62.2524 124.036 61.5012 124.054C60.75 124.073 58.676 127.903 59.8567 128.377Z" fill="#FF222D"/>
</g>
<path d="M64.328 136.437C64.328 136.437 63.5399 135.259 60.7302 135.072C57.9201 134.885 56.8453 135.775 56.8453 135.775C56.8453 135.775 61.7784 135.921 64.328 136.437" fill="#2B2A2A"/>
<path d="M58.1626 138.847C58.1626 138.847 58.774 138.914 60.449 139.017C62.1234 139.119 63.6885 138.734 63.6885 138.734C63.6885 138.734 62.1273 140.178 60.2099 140.185C58.2926 140.192 58.1626 138.847 58.1626 138.847Z" fill="#2B2A2A"/>
<path d="M57.8513 120.978C57.8513 120.978 58.5413 120.599 56.9183 120.03C55.2953 119.461 53.1808 119.471 53.1808 119.471C53.1808 119.471 55.202 120.338 55.7658 120.479C56.3291 120.62 56.7222 120.378 56.7222 120.378C56.7222 120.378 54.6568 120.136 55.3613 120.362C56.0656 120.588 57.8513 120.978 57.8513 120.978Z" fill="#EE876D"/>
<path d="M57.5283 119.659C57.5283 119.659 56.6077 118.284 54.9907 117.791C53.3736 117.297 53.8758 116.845 53.8758 116.845C53.8758 116.845 53.5178 116.236 55.2946 116.845C57.0721 117.453 57.5283 119.659 57.5283 119.659Z" fill="#FF9E81"/>
<path d="M15.8692 169.669C15.8692 169.669 14.9415 177.904 20.9698 181.478C26.998 185.051 33.1824 186.76 35.6546 187.226C38.1284 187.693 41.9936 186.294 43.849 187.226C45.7043 188.159 48.1827 187.14 48.3295 189.247C48.3701 189.829 46.8053 189.887 46.8053 189.887C46.8053 189.887 46.8537 190.642 45.1827 190.877C45.1827 190.877 45.1233 192.102 44.1972 192.16C44.1972 192.16 43.9645 193.208 43.3273 193.034C43.3273 193.034 43.3851 194.083 41.8203 194.083C40.2539 194.083 39.3856 195.656 37.182 196.646C34.9784 197.637 29.3125 197.579 26.175 197.52C23.0375 197.462 21.24 197.288 16.661 198.627C12.082 199.968 7.61709 196.704 8.54631 192.858C9.47241 189.014 6.05225 169.669 6.05225 169.669H15.8692Z" fill="#FF9E81"/>
<path d="M11.3862 185.751C11.3862 185.751 12.1593 188.741 12.0812 189.887C12.0047 191.033 13.0089 192.568 14.3223 192.306" stroke="#FFBC9F" stroke-width="1.33333" stroke-miterlimit="10" stroke-linecap="round" stroke-linejoin="round"/>
<path d="M10.921 111.403C9.29833 117.698 8.13954 133.079 9.0672 138.672C9.9933 144.266 11.6175 170.835 11.6175 170.835C16.7181 172.932 23.6755 170.835 23.6755 170.835C22.284 167.572 26.2258 131.681 26.1743 122.358C26.1243 113.036 29.0088 112.803 28.545 105.344C28.0811 97.8866 32.7194 83.2036 34.3405 72.9488C35.9647 62.6939 36.6596 36.1252 36.6596 36.1252L8.73768 35.4251C2.70789 86.0008 12.5451 105.112 10.921 111.403" fill="url(#paint5_linear_0_21)"/>
<path d="M1.95566 12.1197C-4.84562 28.5905 8.44929 99.7512 6.28475 107.52C4.12021 115.288 -1.13654 127.097 1.64644 135.798C4.42943 144.5 5.66629 172.155 5.66629 172.155C13.3952 175.574 18.6504 172.155 18.6504 172.155C17.1043 170.912 16.1782 131.136 18.6504 121.503C21.1242 111.869 22.9795 102.547 22.9795 94.4692C22.9795 86.39 34.1099 42.5734 34.1099 42.5734L37.3567 43.5042C47.5594 36.3574 52.3507 12.1197 52.3507 12.1197C43.4536 4.1189 32.431 -2.29743e-06 22.8202 -2.29743e-06C13.3937 -2.29743e-06 5.32429 3.96507 1.95566 12.1197" fill="url(#paint6_linear_0_21)"/>
<path d="M67.7494 67.8217C75.038 59.08 83.6852 64.8722 88.1142 74.3438C88.5827 78.7373 88.7686 83.4386 87.905 86.837C86.2823 93.2257 85.3547 100.217 85.3547 100.217C85.3547 100.217 76.9495 101.247 71.0571 97.9756C66.6312 90.9056 59.9658 77.1582 67.7494 67.8217Z" fill="#FF9E81"/>
<path d="M52.0591 13.4675C60.0629 13.2352 70.9778 37.2908 70.9778 37.2908C80.2544 51.2737 86.0499 59.6638 86.7464 64.5581C87.0713 66.8498 87.7022 70.4758 88.1145 74.3436C83.6855 64.872 75.0367 59.0798 67.7497 67.8215C59.9645 77.1581 66.6315 90.9055 71.0574 97.9754C70.0985 97.4448 69.2052 96.8028 68.4275 96.0211C62.8631 90.4283 52.1966 79.4749 47.0944 74.5806C41.9938 69.6847 52.3512 64.792 52.3512 64.792C52.3512 64.792 50.7426 64.1594 48.3297 60.3623C48.3297 60.3623 42.2265 51.7399 42.2265 46.8456C42.2265 45.009 40.5618 43.6324 38.48 42.6294C46.5197 35.7604 50.9331 18.4309 52.0591 13.4675Z" fill="#E6E0F1"/>
<path d="M88.4022 83.6669C88.524 96.6436 83.8857 110.628 81.412 124.611C78.9382 138.595 71.8277 160.813 65.3356 171.766C58.8436 182.721 54.2053 191.733 52.3515 193.907C50.4962 196.084 39.2112 199.501 36.6609 199.501C34.1091 199.501 22.671 199.19 23.5971 197.015C24.0797 195.885 30.2407 197.373 34.1091 196.782C37.6885 196.236 38.9566 193.585 40.2935 193.285C43.0765 192.665 43.9994 188.936 48.3301 189.246C52.6592 189.557 56.3698 159.414 61.3173 149.47C66.2633 139.526 67.8094 138.595 67.8094 135.798C67.8094 133.332 68.2904 105.514 69.2509 90.4417" fill="#FFBC9F"/>
<path fill-rule="evenodd" clip-rule="evenodd" d="M61.9982 148.364L47.0752 187.035L54.2911 191.87L66.0165 170.66C72.5086 159.706 79.6191 137.489 82.0928 123.504C82.8924 118.985 83.9181 114.465 84.9362 109.979C87.0677 100.587 89.1655 91.3428 89.0831 82.5605C89.455 75.8833 87.2094 62.6671 75.2516 63.2197C60.3044 63.9104 61.7289 85.1507 68.4903 93.785C67.5298 108.857 67.5203 131.9 67.5203 134.366C67.5203 137.163 66.9442 138.42 61.9982 148.364Z" fill="#E6E0F1"/>
<path d="M46.8048 189.888C46.8048 189.888 45.2337 188.751 43.6626 189.071" stroke="#FFBC9F" stroke-width="1.33333" stroke-miterlimit="10" stroke-linecap="round" stroke-linejoin="round"/>
<path d="M45.1821 190.877C45.1821 190.877 44.0217 190.121 43.1284 190.323" stroke="#FFBC9F" stroke-width="1.33333" stroke-miterlimit="10" stroke-linecap="round" stroke-linejoin="round"/>
<path d="M44.197 192.16C44.197 192.16 43.4755 191.488 42.7759 191.46" stroke="#FFBC9F" stroke-width="1.33333" stroke-miterlimit="10" stroke-linecap="round" stroke-linejoin="round"/>
<path d="M43.3273 193.034C43.3273 193.034 42.8369 192.422 42.1685 192.305" stroke="#FFBC9F" stroke-width="1.33333" stroke-miterlimit="10" stroke-linecap="round" stroke-linejoin="round"/>
<path d="M13 200H297.5" stroke="#8C7BAA" stroke-linecap="round"/>
<path d="M757.729 163.822C758.652 163.822 759.474 163.95 760.195 164.205C760.924 164.451 761.54 164.816 762.041 165.299C762.542 165.782 762.924 166.38 763.188 167.092C763.451 167.804 763.583 168.621 763.583 169.544C763.583 170.546 763.42 171.425 763.095 172.181C762.77 172.928 762.304 173.552 761.698 174.053C761.091 174.554 760.357 174.932 759.496 175.187C758.635 175.442 757.672 175.569 756.609 175.569C756.117 175.569 755.651 175.556 755.211 175.529C754.781 175.494 754.398 175.459 754.064 175.424V182.78H750.386V163.822H757.729ZM754.064 172.906C754.346 172.95 754.623 172.985 754.895 173.011C755.176 173.029 755.449 173.038 755.712 173.038C756.389 173.038 756.982 172.981 757.492 172.866C758.011 172.752 758.441 172.563 758.784 172.299C759.136 172.036 759.399 171.693 759.575 171.271C759.751 170.849 759.839 170.326 759.839 169.702C759.839 169.087 759.773 168.569 759.641 168.147C759.509 167.716 759.298 167.369 759.008 167.105C758.718 166.841 758.345 166.653 757.888 166.538C757.431 166.415 756.877 166.354 756.227 166.354H754.064V172.906ZM773.115 168.766C774.266 168.766 775.264 168.946 776.107 169.307C776.951 169.667 777.646 170.168 778.19 170.81C778.744 171.443 779.153 172.198 779.417 173.077C779.689 173.947 779.825 174.897 779.825 175.925C779.825 176.953 779.689 177.907 779.417 178.786C779.153 179.665 778.744 180.425 778.19 181.067C777.646 181.699 776.951 182.196 776.107 182.556C775.264 182.917 774.266 183.097 773.115 183.097C771.963 183.097 770.966 182.917 770.122 182.556C769.278 182.196 768.58 181.699 768.026 181.067C767.481 180.425 767.072 179.665 766.8 178.786C766.536 177.907 766.404 176.953 766.404 175.925C766.404 174.897 766.536 173.947 766.8 173.077C767.072 172.198 767.481 171.443 768.026 170.81C768.58 170.168 769.278 169.667 770.122 169.307C770.966 168.946 771.963 168.766 773.115 168.766ZM773.115 171.35C772.482 171.35 771.963 171.469 771.559 171.706C771.155 171.944 770.838 172.269 770.61 172.682C770.381 173.095 770.223 173.583 770.135 174.145C770.056 174.699 770.017 175.292 770.017 175.925C770.017 176.567 770.056 177.169 770.135 177.731C770.223 178.285 770.381 178.768 770.61 179.181C770.838 179.594 771.155 179.92 771.559 180.157C771.963 180.394 772.482 180.513 773.115 180.513C773.748 180.513 774.266 180.394 774.67 180.157C775.075 179.92 775.391 179.594 775.62 179.181C775.848 178.768 776.002 178.285 776.081 177.731C776.169 177.169 776.213 176.567 776.213 175.925C776.213 175.292 776.169 174.699 776.081 174.145C776.002 173.583 775.848 173.095 775.62 172.682C775.391 172.269 775.075 171.944 774.67 171.706C774.266 171.469 773.748 171.35 773.115 171.35ZM795.408 180.223C795.654 179.634 795.892 179.076 796.12 178.549C796.357 178.021 796.564 177.503 796.74 176.993C796.924 176.474 797.069 175.947 797.175 175.411C797.28 174.866 797.333 174.281 797.333 173.657C797.333 173.341 797.315 173.038 797.28 172.748C797.245 172.458 797.188 172.154 797.109 171.838C797.039 171.522 796.946 171.179 796.832 170.81C796.727 170.432 796.595 170.001 796.437 169.518C796.744 169.421 797.039 169.333 797.32 169.254C797.601 169.175 797.878 169.1 798.15 169.03C798.423 168.96 798.695 168.894 798.968 168.832C799.24 168.771 799.53 168.709 799.838 168.648C800.04 169.07 800.207 169.434 800.339 169.742C800.471 170.049 800.581 170.348 800.668 170.638C800.765 170.937 800.835 171.24 800.879 171.548C800.932 171.847 800.958 172.163 800.958 172.497C800.958 173.077 800.893 173.671 800.761 174.277C800.638 174.875 800.475 175.481 800.273 176.096C800.062 176.712 799.816 177.327 799.535 177.942C799.253 178.549 798.959 179.146 798.651 179.735C798.353 180.315 798.049 180.878 797.742 181.423C797.434 181.967 797.144 182.482 796.872 182.965H792.653L791.414 178.166L789.41 182.965H785.244L781.684 169.056H785.204L787.999 180.223L790.491 174.409L789.093 169.056H792.679L795.408 180.223ZM815.46 182.161C815.1 182.31 814.705 182.442 814.274 182.556C813.852 182.671 813.408 182.767 812.942 182.846C812.477 182.925 812.002 182.987 811.519 183.031C811.044 183.075 810.578 183.097 810.121 183.097C807.81 183.097 806.061 182.543 804.874 181.436C803.696 180.32 803.107 178.614 803.107 176.32C803.107 175.301 803.226 174.334 803.463 173.42C803.701 172.506 804.083 171.706 804.61 171.021C805.146 170.326 805.845 169.777 806.707 169.373C807.577 168.968 808.64 168.766 809.897 168.766C812.094 168.766 813.733 169.351 814.814 170.52C815.896 171.68 816.436 173.455 816.436 175.846V176.887H806.693C806.711 177.485 806.781 178.012 806.904 178.469C807.027 178.926 807.229 179.313 807.511 179.63C807.801 179.937 808.179 180.174 808.645 180.341C809.11 180.5 809.695 180.579 810.398 180.579C811.013 180.579 811.677 180.504 812.389 180.355C813.101 180.196 813.843 179.972 814.617 179.682L815.46 182.161ZM812.824 174.541C812.762 172.37 811.787 171.284 809.897 171.284C808.921 171.284 808.179 171.566 807.669 172.128C807.168 172.691 806.86 173.495 806.746 174.541H812.824ZM823.74 171.416C824.056 170.95 824.351 170.568 824.623 170.269C824.887 169.979 825.164 169.742 825.454 169.557C825.744 169.364 826.034 169.21 826.324 169.096C826.623 168.973 826.921 168.889 827.22 168.845C827.519 168.793 827.813 168.766 828.104 168.766C828.35 168.766 828.587 168.784 828.815 168.819C829.053 168.845 829.272 168.881 829.475 168.924C829.448 169.171 829.413 169.434 829.369 169.716C829.325 169.988 829.277 170.265 829.224 170.546C829.171 170.827 829.11 171.104 829.04 171.377C828.978 171.649 828.912 171.904 828.842 172.141C828.341 172.045 827.906 171.966 827.537 171.904C827.167 171.834 826.838 171.799 826.548 171.799C826.275 171.799 826.025 171.838 825.796 171.917C825.577 171.987 825.357 172.115 825.137 172.299C824.917 172.484 824.689 172.73 824.452 173.038C824.223 173.337 823.964 173.715 823.674 174.172V182.78H820.062V174.33C820.062 173.82 820.057 173.345 820.048 172.906C820.04 172.458 820.022 172.04 819.996 171.654C819.969 171.258 819.93 170.884 819.877 170.533C819.824 170.181 819.754 169.839 819.666 169.505C820.237 169.355 820.804 169.219 821.367 169.096C821.938 168.973 822.514 168.863 823.094 168.766C823.155 168.951 823.212 169.135 823.265 169.32C823.318 169.496 823.362 169.689 823.397 169.9C823.432 170.102 823.463 170.326 823.489 170.572C823.516 170.819 823.542 171.1 823.568 171.416H823.74ZM855.38 163.822L848.854 174.237V182.78H845.163V174.237L838.637 163.822H842.645L847.009 171.772L851.373 163.822H855.38ZM864.266 168.766C865.417 168.766 866.415 168.946 867.259 169.307C868.103 169.667 868.797 170.168 869.342 170.81C869.896 171.443 870.304 172.198 870.568 173.077C870.84 173.947 870.977 174.897 870.977 175.925C870.977 176.953 870.84 177.907 870.568 178.786C870.304 179.665 869.896 180.425 869.342 181.067C868.797 181.699 868.103 182.196 867.259 182.556C866.415 182.917 865.417 183.097 864.266 183.097C863.115 183.097 862.117 182.917 861.273 182.556C860.43 182.196 859.731 181.699 859.177 181.067C858.632 180.425 858.224 179.665 857.951 178.786C857.688 177.907 857.556 176.953 857.556 175.925C857.556 174.897 857.688 173.947 857.951 173.077C858.224 172.198 858.632 171.443 859.177 170.81C859.731 170.168 860.43 169.667 861.273 169.307C862.117 168.946 863.115 168.766 864.266 168.766ZM864.266 171.35C863.633 171.35 863.115 171.469 862.71 171.706C862.306 171.944 861.99 172.269 861.761 172.682C861.533 173.095 861.375 173.583 861.287 174.145C861.208 174.699 861.168 175.292 861.168 175.925C861.168 176.567 861.208 177.169 861.287 177.731C861.375 178.285 861.533 178.768 861.761 179.181C861.99 179.594 862.306 179.92 862.71 180.157C863.115 180.394 863.633 180.513 864.266 180.513C864.899 180.513 865.417 180.394 865.822 180.157C866.226 179.92 866.542 179.594 866.771 179.181C867 178.768 867.153 178.285 867.232 177.731C867.32 177.169 867.364 176.567 867.364 175.925C867.364 175.292 867.32 174.699 867.232 174.145C867.153 173.583 867 173.095 866.771 172.682C866.542 172.269 866.226 171.944 865.822 171.706C865.417 171.469 864.899 171.35 864.266 171.35ZM883.277 169.056C883.699 169.056 884.059 169.052 884.358 169.043C884.657 169.034 884.942 169.012 885.215 168.977C885.487 168.942 885.773 168.889 886.072 168.819C886.371 168.749 886.731 168.656 887.153 168.542C887.285 168.946 887.421 169.368 887.562 169.808C887.702 170.238 887.834 170.669 887.957 171.1C887.667 171.205 887.399 171.293 887.153 171.363C886.916 171.434 886.683 171.495 886.454 171.548C886.234 171.592 886.015 171.627 885.795 171.654C885.584 171.671 885.355 171.684 885.109 171.693C885.276 172.071 885.391 172.445 885.452 172.814C885.514 173.174 885.544 173.556 885.544 173.961C885.544 174.804 885.417 175.543 885.162 176.175C884.907 176.799 884.542 177.331 884.068 177.771C883.778 178.034 883.448 178.254 883.079 178.43C882.71 178.606 882.323 178.751 881.919 178.865C881.515 178.97 881.102 179.045 880.68 179.089C880.267 179.133 879.867 179.155 879.48 179.155C878.768 179.155 878.118 179.102 877.529 178.997C877.379 179.419 877.305 179.753 877.305 179.999C877.305 180.166 877.335 180.311 877.397 180.434C877.467 180.548 877.577 180.649 877.727 180.737C877.955 180.86 878.228 180.939 878.544 180.974C878.869 181.009 879.225 181.027 879.612 181.027C879.726 181.027 879.871 181.027 880.047 181.027C880.231 181.027 880.42 181.027 880.614 181.027C880.807 181.018 880.992 181.014 881.167 181.014C881.352 181.014 881.51 181.014 881.642 181.014C882.345 181.014 882.982 181.08 883.554 181.212C884.125 181.335 884.613 181.537 885.017 181.818C885.43 182.099 885.747 182.473 885.966 182.939C886.195 183.404 886.309 183.971 886.309 184.639C886.309 185.404 886.12 186.046 885.742 186.564C885.373 187.091 884.881 187.518 884.266 187.843C883.65 188.168 882.947 188.401 882.156 188.542C881.365 188.691 880.548 188.766 879.704 188.766C879.098 188.766 878.491 188.731 877.885 188.66C877.287 188.599 876.707 188.515 876.145 188.41C875.705 188.322 875.288 188.221 874.892 188.107C874.505 188.001 874.145 187.887 873.811 187.764C873.925 187.491 874.092 187.144 874.312 186.722C874.541 186.3 874.791 185.848 875.063 185.364C875.96 185.681 876.812 185.914 877.621 186.063C878.43 186.213 879.168 186.287 879.836 186.287C880.249 186.287 880.636 186.261 880.996 186.208C881.356 186.155 881.668 186.068 881.932 185.945C882.196 185.821 882.402 185.654 882.552 185.444C882.71 185.241 882.789 184.982 882.789 184.666C882.789 184.42 882.736 184.222 882.631 184.072C882.525 183.932 882.38 183.822 882.196 183.743C882.011 183.664 881.792 183.611 881.537 183.585C881.291 183.567 881.022 183.558 880.732 183.558C880.609 183.558 880.482 183.558 880.35 183.558C880.218 183.567 880.086 183.571 879.955 183.571H879.533C879.128 183.571 878.724 183.563 878.32 183.545C877.924 183.536 877.542 183.501 877.173 183.44C876.804 183.378 876.461 183.286 876.145 183.163C875.828 183.049 875.551 182.89 875.314 182.688C875.085 182.477 874.901 182.218 874.76 181.91C874.628 181.594 874.562 181.216 874.562 180.777C874.562 180.346 874.646 179.911 874.813 179.471C874.98 179.023 875.191 178.579 875.446 178.14C875.208 177.982 874.971 177.775 874.734 177.52C874.505 177.265 874.299 176.966 874.114 176.624C873.938 176.272 873.793 175.877 873.679 175.437C873.574 174.998 873.521 174.506 873.521 173.961C873.521 173.134 873.648 172.405 873.903 171.772C874.167 171.131 874.536 170.586 875.011 170.137C875.292 169.874 875.608 169.654 875.96 169.478C876.312 169.302 876.681 169.162 877.067 169.056C877.454 168.951 877.854 168.876 878.267 168.832C878.68 168.788 879.084 168.766 879.48 168.766C879.981 168.766 880.451 168.797 880.891 168.859C881.33 168.911 881.717 168.977 882.051 169.056H883.277ZM879.533 171.205C878.759 171.205 878.148 171.438 877.7 171.904C877.252 172.37 877.028 173.055 877.028 173.961C877.028 174.892 877.252 175.587 877.7 176.044C878.157 176.492 878.768 176.716 879.533 176.716C880.306 176.716 880.917 176.483 881.365 176.017C881.813 175.551 882.038 174.866 882.038 173.961C882.038 173.047 881.805 172.361 881.339 171.904C880.882 171.438 880.28 171.205 879.533 171.205ZM890.95 169.742C891.275 169.61 891.644 169.487 892.057 169.373C892.479 169.258 892.923 169.157 893.389 169.07C893.863 168.973 894.351 168.898 894.852 168.845C895.362 168.793 895.876 168.766 896.395 168.766C897.124 168.766 897.805 168.823 898.438 168.938C899.08 169.052 899.611 169.241 900.033 169.505C900.455 169.768 900.785 170.129 901.022 170.586C901.259 171.034 901.378 171.601 901.378 172.286V177.639C901.378 178.254 901.382 178.803 901.391 179.287C901.4 179.761 901.417 180.227 901.444 180.684C901.461 180.851 901.479 181.005 901.497 181.146C901.514 181.278 901.532 181.409 901.549 181.541C901.576 181.664 901.602 181.796 901.628 181.937C901.664 182.077 901.703 182.231 901.747 182.398C901.202 182.521 900.657 182.64 900.112 182.754C899.576 182.868 899.031 182.978 898.478 183.084C898.381 182.838 898.302 182.587 898.24 182.332C898.188 182.069 898.139 181.77 898.095 181.436H897.897C897.59 181.752 897.282 182.016 896.975 182.227C896.667 182.438 896.346 182.609 896.012 182.741C895.678 182.873 895.331 182.965 894.971 183.018C894.61 183.07 894.232 183.097 893.837 183.097C893.23 183.097 892.668 183.022 892.149 182.873C891.631 182.732 891.178 182.512 890.792 182.214C890.414 181.915 890.115 181.537 889.895 181.08C889.684 180.614 889.579 180.069 889.579 179.445C889.579 178.918 889.631 178.447 889.737 178.034C889.851 177.621 890.009 177.252 890.211 176.927C890.414 176.602 890.655 176.316 890.937 176.07C891.218 175.824 891.53 175.609 891.873 175.424C892.558 175.055 893.323 174.804 894.167 174.673C895.01 174.532 895.872 174.462 896.75 174.462H897.884V172.748C897.884 172.423 897.832 172.168 897.726 171.983C897.629 171.79 897.493 171.645 897.317 171.548C897.15 171.451 896.953 171.39 896.724 171.363C896.496 171.328 896.25 171.311 895.986 171.311C895.274 171.311 894.553 171.403 893.824 171.588C893.103 171.763 892.413 171.983 891.754 172.247L890.95 169.742ZM897.884 176.4H897.621C896.997 176.408 896.399 176.457 895.828 176.545C895.265 176.624 894.769 176.764 894.338 176.966C893.907 177.169 893.56 177.437 893.296 177.771C893.042 178.096 892.914 178.509 892.914 179.01C892.914 179.564 893.072 179.99 893.389 180.289C893.714 180.588 894.167 180.737 894.747 180.737C895.019 180.737 895.3 180.702 895.59 180.632C895.88 180.552 896.166 180.447 896.447 180.315C896.729 180.174 896.992 180.003 897.238 179.801C897.484 179.599 897.7 179.366 897.884 179.102V176.4Z" fill="#808080"/>
<path d="M671.754 177.701C671.754 177.701 681.357 178.842 684.551 176.346C687.746 173.849 695.196 170.581 699.515 176.047C703.833 181.513 708.431 185.416 714.272 186.748C720.115 188.082 725.11 188.676 727.023 191.14C728.935 193.605 734.873 195.613 732.411 196.095C731.396 196.294 671.252 187.069 671.252 187.069L671.754 177.701Z" fill="#FF9E81"/>
<path d="M383.935 60.7216C383.357 60.6967 381.977 53.3972 381.606 52.0135L381.618 52.0602C381.876 51.9964 382.133 51.9327 382.395 51.8658C388.804 50.2147 396.459 47.1037 398.014 42.0632C398.016 42.0555 398.018 42.0477 398.02 42.0415C398.404 42.4193 398.854 42.7426 399.346 43.0132C399.341 42.993 399.335 42.9696 399.327 42.9463C400.287 46.5082 402.994 56.1584 403.418 57.2188C403.418 57.2188 395.187 61.2067 383.935 60.7216Z" fill="#FF9E81"/>
<path d="M391.822 38.407C391.32 38.1334 397.173 37.8069 396.782 37.4275C396.776 37.4213 396.77 37.4167 396.764 37.4104C396.763 37.4167 396.761 37.4244 396.759 37.4322C395.203 42.4726 387.549 45.5837 381.139 47.2348C380.868 47.3048 380.597 47.3716 380.332 47.4369C377.312 48.1692 374.648 48.5703 373.157 48.6916C372.033 48.7833 371.237 49.459 369.209 48.3575C368.983 44.8692 367.564 43.3669 366.955 39.9123C366.565 37.6937 366.409 34.0219 366.409 34.0219L364.97 33.4435C363.478 32.8449 362.765 32.529 363.799 31.4671L367.406 28.7132C368.614 27.4725 368.902 25.6629 369.148 24.0926C369.261 23.3821 369.387 22.5487 369.521 21.6361C370.015 18.2203 369.975 14.8854 369.975 14.8854C369.975 14.8854 376.421 14.5294 380.362 19.3055C381.09 20.1855 381.731 21.2412 382.233 22.5036C383.14 24.7953 385.814 34.189 396.304 31.2832C397.177 30.1794 392.248 29.3414 393.939 29.0289C397.226 28.4179 400.604 30.055 401.501 32.6996C402.484 35.5914 400.283 38.5283 396.731 39.1657C395.017 39.4751 393.315 39.1859 391.94 38.4754C391.9 38.4521 391.862 38.4288 391.822 38.407Z" fill="#FFBC9F"/>
<path d="M381.475 51.527C381.452 51.4477 381.433 51.3669 381.41 51.2876C381.387 51.2021 381.362 51.115 381.339 51.0295C381.294 50.8616 381.248 50.6952 381.2 50.5227C381.183 50.4574 381.164 50.3921 381.145 50.3252C381.118 50.2195 381.087 50.1153 381.057 50.0081C381.038 49.9396 381.019 49.8712 381 49.8013C380.969 49.6956 380.942 49.5914 380.912 49.4872C380.891 49.411 380.87 49.3349 380.849 49.2587C380.74 48.8715 380.629 48.4813 380.519 48.088C380.507 48.0491 380.494 48.0087 380.482 47.9698C380.448 47.8408 380.41 47.7133 380.375 47.5842C380.36 47.536 380.347 47.4847 380.332 47.4365C380.599 47.3712 380.87 47.3044 381.139 47.2344C387.55 45.5848 395.203 42.4738 396.76 37.4334L396.783 37.4287C397.174 37.8081 397.633 38.1345 398.135 38.4082C398.135 38.4097 398.136 38.4144 398.136 38.4175C398.173 38.5652 398.213 38.7191 398.253 38.8762C398.262 38.9072 398.27 38.9368 398.278 38.9679C398.299 39.0518 398.322 39.1373 398.345 39.2244C398.356 39.2664 398.366 39.3099 398.377 39.3519C398.4 39.4452 398.427 39.54 398.451 39.638C398.461 39.6737 398.471 39.7126 398.48 39.7515C398.505 39.8432 398.53 39.9365 398.554 40.0298C398.575 40.1137 398.598 40.1992 398.619 40.2832C398.652 40.406 398.686 40.5288 398.717 40.6532C398.736 40.7247 398.755 40.7963 398.774 40.8693C398.803 40.975 398.831 41.0823 398.86 41.1927C398.871 41.2347 398.883 41.2767 398.894 41.3218C398.923 41.4244 398.95 41.5285 398.978 41.6343L399.022 41.8068C399.051 41.9079 399.079 42.0105 399.104 42.1131C399.116 42.1535 399.127 42.1924 399.137 42.2313C399.2 42.4676 399.265 42.707 399.329 42.9464C399.335 42.9698 399.341 42.9931 399.347 43.0133C398.854 42.7428 398.404 42.4194 398.02 42.0416C398.018 42.0478 398.016 42.0556 398.014 42.0634C396.459 47.1038 388.805 50.2148 382.395 51.866C382.133 51.9328 381.876 51.9966 381.618 52.0603L381.607 52.0137C381.586 51.9375 381.565 51.8566 381.542 51.7773L381.475 51.527Z" fill="#FF9E81"/>
<g opacity="0.5">
<path d="M373.023 31.9573C374.251 31.5359 374.85 33.1047 374.85 33.1047C374.85 33.1047 375.472 31.5422 376.692 31.9759C377.912 32.4082 375.617 35.5985 374.831 35.5938C374.045 35.5907 371.798 32.3786 373.023 31.9573Z" fill="#FF9E81"/>
</g>
<path d="M369.437 26.3785C369.437 26.3785 370.651 27.5202 374.339 27.3529C378.028 27.1856 379.286 26.1066 379.286 26.1066C379.286 26.1066 372.839 26.5924 369.437 26.3785" fill="#2B2A2A"/>
<path d="M378.876 22.973C378.876 22.973 378.069 22.9813 375.872 23.0903C373.675 23.1992 371.698 23.8092 371.698 23.8092C371.698 23.8092 373.502 22.0825 375.998 21.8264C378.494 21.5703 378.876 22.973 378.876 22.973Z" fill="#2B2A2A"/>
<path d="M390.437 60.0642C384.132 61.1167 376.123 65.4016 374.697 74.4501C373.273 83.4987 380.252 86.8631 380.252 86.8631C380.252 86.8631 384.953 107.051 384.669 113.78C384.382 120.509 381.819 127.468 385.237 142.204C388.656 156.938 384.953 180.719 384.953 180.719C384.953 180.719 375.552 185.247 365.867 187.566C356.182 189.886 353.617 190.001 354.044 190.814H357.606C357.606 190.814 356.467 192.322 364.869 191.974C373.273 191.626 392.787 190.931 394.354 187.566C395.921 184.202 397.772 152.412 399.767 145.219C401.762 138.028 401.616 125.613 398.198 114.36C394.779 103.107 399.941 92.4322 401.063 78.0462C402.187 63.6603 392.523 59.7159 390.437 60.0642Z" fill="#FF9E81"/>
<path d="M374.697 74.45C376.123 65.4015 384.133 61.1166 390.437 60.0641C392.523 59.7158 402.187 63.6601 401.063 78.0461C399.941 92.4321 394.78 103.107 398.198 114.36C401.617 125.613 401.762 138.028 399.767 145.218C397.773 152.412 395.921 184.202 394.354 187.566L384.953 180.719C384.953 180.719 388.656 156.938 385.238 142.204C381.819 127.468 384.383 120.509 384.669 113.78C384.953 107.051 380.252 86.863 380.252 86.863C380.252 86.863 373.274 83.4986 374.697 74.45Z" fill="#EDEDED"/>
<path d="M449.566 113.651C438.945 115.532 433.406 116.659 427.096 115.908C422.48 127.191 404.318 137.219 404.318 137.219C453.723 166.05 560.379 178.714 576.074 175.705C591.774 172.695 676.731 189.244 676.731 189.244C680.425 182.851 676.731 174.953 676.731 174.953C665.649 173.824 634.252 168.934 613.937 159.157C599.989 152.445 584.738 153.886 574.901 155.327C570.411 155.985 567.048 156.643 565.456 156.523C560.379 156.148 485.58 127.567 485.58 127.567C478.168 115.008 469.802 112.065 461.953 112.065C457.579 112.065 453.366 112.978 449.566 113.651" fill="url(#paint7_linear_0_21)"/>
<path d="M417.515 86.2167C418.477 77.4402 427.097 55.1267 403.633 53.4243L384.686 56.8431C381.966 57.3344 379.714 58.8674 378.643 60.9616C375.31 67.4682 367.62 81.7484 361.533 87.4698C353.53 94.9916 370.321 98.779 373.537 103.767C377.576 110.032 391.033 134.048 405.5 135.553C405.5 135.553 422.883 127.323 427.5 116.041C427.5 116.041 416.553 94.9916 417.515 86.2167Z" fill="#E6E0F1"/>
<path d="M405.934 54.7515C399.124 55.8865 390.466 60.518 388.927 70.2958C387.389 80.0735 394.928 83.7085 394.928 83.7085C394.928 83.7085 400.01 105.521 399.7 112.793C399.393 120.063 396.623 127.585 400.317 143.505C404.01 159.426 400.01 185.124 400.01 185.124C400.01 185.124 389.851 190.013 379.385 192.521C368.92 195.029 366.15 195.153 366.612 196.03H370.46C370.46 196.03 369.229 197.661 378.307 197.285C387.389 196.909 408.473 196.156 410.166 192.521C411.859 188.885 413.86 154.538 416.015 146.765C418.17 138.993 418.015 125.579 414.323 113.418C410.628 101.26 416.204 89.7269 417.417 74.1811C418.631 58.6368 405.934 54.7515 405.934 54.7515Z" fill="#FFBC9F"/>
<path d="M387.909 70.8699C389.523 61.0975 398.61 56.4685 405.757 55.3342C405.757 55.3342 419.083 59.2173 417.809 74.753C416.535 90.2902 410.683 101.817 414.562 113.968C418.436 126.123 418.598 139.529 416.336 147.297C414.075 155.065 411.975 189.393 410.199 193.028L399.539 185.635C399.539 185.635 403.738 159.951 399.862 144.039C395.986 128.127 398.892 120.609 399.215 113.344C399.539 106.076 394.207 84.2752 394.207 84.2752C394.207 84.2752 386.294 80.6422 387.909 70.8699Z" fill="#E6E0F1"/>
<path d="M391.206 70.8784C392.744 61.1007 401.403 56.4691 408.213 55.3341C402.024 56.0685 389.241 59.0794 387.618 65.2481C385.589 72.959 387.167 80.5687 393.704 84.2911C396.462 91.8528 401.979 108.256 401.979 113.375C402.288 106.104 397.207 84.2911 397.207 84.2911C397.207 84.2911 389.667 80.6561 391.206 70.8784Z" fill="#EDEDED"/>
<path d="M412.399 115.863C412.399 115.863 413.321 119.249 410.551 120.376" stroke="#EDEDED" stroke-width="1.33333" stroke-miterlimit="10" stroke-linecap="round" stroke-linejoin="round"/>
<path d="M376.647 40.8257C367.752 41.1858 368.082 41.3809 367.11 41.1972C366.7 41.1198 366.914 39.878 367.11 39.7241C368.139 38.9167 369.434 41.1174 376.647 40.8257Z" fill="#FF9E81"/>
<path d="M368.984 44.1348C369.059 43.9512 369.615 43.6942 371.238 44.1348" stroke="#FF9E81"/>
<path d="M478.84 64.6732C477.602 54.172 463.482 45.6705 463.482 45.6705C478.84 46.67 485.183 62.1695 485.183 62.1695L486.617 60.3385C486.617 53.668 477.199 42.1673 457.346 39.8323C437.491 37.505 431.767 36.5055 422.558 33.0023C413.347 29.4991 414.574 20.9976 402.497 12.1594C390.42 3.33031 382.241 4.32981 382.241 4.32981C380.909 4.27941 379.785 4.60699 378.96 4.96815C378.124 4.60699 377.011 4.27941 375.68 4.32981C364.125 11.0001 371.824 16.0582 377.118 17.7534L386.114 29.8149C388.577 33.9284 393.961 35.1784 397.985 32.5711L400.539 30.9161C403.078 36.3527 395.856 35.5808 398.51 43.7679C399.707 43.9611 402.342 69.4707 414.739 89.8424C432.426 91.7406 432.995 91.5139 432.995 91.5139C433.995 89.1873 434.428 85.6757 434.428 85.6757C436.265 88.0107 436.676 91.5139 436.676 91.5139L441.03 90.6824C442.721 87.8427 442.606 83.0124 442.606 83.0124C443.638 85.1802 445.268 89.8425 445.268 89.8425C449.569 89.1782 459.191 86.6752 462.544 81.8442C465.896 77.0055 464.71 73.0067 464.71 73.0067C465.494 74.0398 465.978 75.1997 466.276 76.2664C466.855 78.299 466.762 80.0132 466.762 80.0132C466.762 80.0132 480.066 75.1745 478.84 64.6732Z" fill="url(#paint8_linear_0_21)"/>
<path d="M466.291 76.1645C465.993 75.0978 465.507 73.938 464.723 72.9049C464.723 72.9049 465.91 76.9036 462.558 81.7431C459.205 86.5734 449.583 89.0771 445.282 89.7406C445.282 89.7406 443.653 85.0783 442.621 82.9106C442.621 82.9106 442.734 87.7409 441.043 90.5805L436.69 91.4121C436.69 91.4121 436.278 87.9088 434.441 85.5739C434.441 85.5739 434.008 89.0855 433.008 91.4121C433.008 91.4121 421.062 96.9176 400.322 95.486L415.438 89.7406C415.438 89.7406 392.474 50.8897 398.961 37.8931C401.518 41.1275 417.228 60.7406 431.379 61.7149C445.519 62.6984 450.531 67.2347 450.531 67.2347L452.007 65.8068C449.356 61.7569 439.31 60.0183 439.31 60.0183C439.31 60.0183 457.606 57.3802 463.816 65.5877C466.725 69.4269 466.909 73.2157 466.291 76.1645Z" fill="url(#paint9_linear_0_21)"/>
<path d="M376.455 24.8122C378.945 21.3097 380.471 18.6266 381.401 16.7184C382.201 18.606 383.811 21.7488 386.996 26.2286C392.623 34.1467 398.661 36.3969 398.661 36.3969L400.4 35.9808C400.4 35.9808 393.851 30.7298 391.293 26.0614C391.293 26.0614 395.795 31.0627 399.479 33.3129C401.265 34.4036 402.627 34.6919 403.557 34.6993C401.582 35.2297 398.376 36.6049 398.661 39.9125C422.854 62.8611 439.758 62.8611 439.758 62.8611C439.758 62.8611 421.378 51.2481 421.276 40.8301C421.174 30.4105 414.739 17.3968 404.146 9.80344C392.876 1.7254 386.996 1.17426 379.718 3.23963C367.906 2.32335 364.485 15.2657 364.25 21.8514L368.117 23.5694L373.039 16.7184L369.875 23.5694L376.455 24.8122Z" fill="url(#paint10_linear_0_21)"/>
<path d="M414.289 95.5406C413.462 98.1109 412.17 104.61 413.613 110.044" stroke="#EDEDED"/>
<path d="M386.339 89.8491C385.062 92.4806 381.381 98.1107 376.873 99.5795C379.728 98.9063 385.618 96.0178 386.339 89.8491Z" fill="#D9D9D9"/>
<path d="M368 197.219H928" stroke="#8C7BAA" stroke-linecap="round"/>
<defs>
<linearGradient id="paint0_linear_0_21" x1="105.833" y1="155.32" x2="49.9423" y2="155.32" gradientUnits="userSpaceOnUse">
<stop stop-color="#6D2E55"/>
<stop offset="0.334039" stop-color="#6D2E55"/>
<stop offset="1" stop-color="#001226"/>
</linearGradient>
<linearGradient id="paint1_linear_0_21" x1="94.8049" y1="100.81" x2="65.0614" y2="176.371" gradientUnits="userSpaceOnUse">
<stop stop-color="#6D2E55"/>
<stop offset="0.231697" stop-color="#6D2E55"/>
<stop offset="1" stop-color="#001226"/>
</linearGradient>
<linearGradient id="paint2_linear_0_21" x1="94.0721" y1="103.365" x2="70.078" y2="172.746" gradientUnits="userSpaceOnUse">
<stop stop-color="#6D2E55"/>
<stop offset="0.231697" stop-color="#6D2E55"/>
<stop offset="1" stop-color="#001226"/>
</linearGradient>
<linearGradient id="paint3_linear_0_21" x1="97.5081" y1="102.718" x2="61.1092" y2="185.488" gradientUnits="userSpaceOnUse">
<stop stop-color="#6D2E55"/>
<stop offset="0.231697" stop-color="#6D2E55"/>
<stop offset="1" stop-color="#001226"/>
</linearGradient>
<linearGradient id="paint4_linear_0_21" x1="92.3543" y1="98.3267" x2="63.7356" y2="173.222" gradientUnits="userSpaceOnUse">
<stop stop-color="#6D2E55"/>
<stop offset="0.231697" stop-color="#6D2E55"/>
<stop offset="1" stop-color="#001226"/>
</linearGradient>
<linearGradient id="paint5_linear_0_21" x1="21.7102" y1="171.767" x2="21.7102" y2="35.4264" gradientUnits="userSpaceOnUse">
<stop stop-color="#6D2E55"/>
<stop offset="0.334039" stop-color="#6D2E55"/>
<stop offset="1" stop-color="#001226"/>
</linearGradient>
<linearGradient id="paint6_linear_0_21" x1="26.1758" y1="173.675" x2="26.1758" y2="-0.000203045" gradientUnits="userSpaceOnUse">
<stop stop-color="#001226"/>
<stop offset="0.665961" stop-color="#6D2E55"/>
<stop offset="1" stop-color="#6D2E55"/>
</linearGradient>
<linearGradient id="paint7_linear_0_21" x1="541.345" y1="189.243" x2="541.345" y2="112.065" gradientUnits="userSpaceOnUse">
<stop stop-color="#6D2E55"/>
<stop offset="0.334039" stop-color="#6D2E55"/>
<stop offset="1" stop-color="#001226"/>
</linearGradient>
<linearGradient id="paint8_linear_0_21" x1="369.66" y1="-14.4311" x2="467.329" y2="99.9064" gradientUnits="userSpaceOnUse">
<stop stop-color="#6D2E55"/>
<stop offset="0.334039" stop-color="#6D2E55"/>
<stop offset="1" stop-color="#001226"/>
</linearGradient>
<linearGradient id="paint9_linear_0_21" x1="397.609" y1="18.9828" x2="426.345" y2="111.785" gradientUnits="userSpaceOnUse">
<stop stop-color="#6D2E55"/>
<stop offset="0.334039" stop-color="#6D2E55"/>
<stop offset="1" stop-color="#001226"/>
</linearGradient>
<linearGradient id="paint10_linear_0_21" x1="412.682" y1="27.6704" x2="348.844" y2="27.6704" gradientUnits="userSpaceOnUse">
<stop stop-color="#6D2E55"/>
<stop offset="0.334039" stop-color="#6D2E55"/>
<stop offset="1" stop-color="#001226"/>
</linearGradient>
</defs>
</svg>
