<svg width="631" height="429" viewBox="0 0 631 429" fill="none" xmlns="http://www.w3.org/2000/svg">
<g clip-path="url(#clip0_0_175)">
<path d="M555.543 377.046C555.543 377.046 569.149 300.294 559.879 280.941C550.608 261.59 528.779 352.541 528.779 352.541C528.779 352.541 549.114 262.557 541.04 249.979C532.965 237.401 515.622 336.093 515.622 336.093C515.622 336.093 518.313 279.974 512.631 280.941C506.949 281.909 508.145 338.995 508.145 338.995C508.145 338.995 498.277 289.649 493.493 301.261C488.707 312.87 497.08 353.509 497.08 353.509C497.08 353.509 485.119 317.709 479.735 330.287C474.354 342.865 506.052 377.046 506.052 377.046H555.543Z" fill="#97CF50"/>
<path d="M616.942 268.12C616.942 268.12 634.288 268.074 629.221 260.552C624.154 253.029 616.942 268.12 616.942 268.12Z" fill="#FEFFD0"/>
<path d="M609.647 273.578C609.647 273.578 621.396 286.347 623.518 277.528C625.64 268.709 609.647 273.578 609.647 273.578Z" fill="#FEFFD0"/>
<path d="M597.194 284.913C597.194 284.913 608.943 297.681 611.065 288.862C613.187 280.043 597.194 284.913 597.194 284.913Z" fill="#FEFFD0"/>
<path d="M586.068 296.689C586.068 296.689 597.304 309.912 599.773 301.183C602.242 292.454 586.068 296.689 586.068 296.689Z" fill="#FEFFD0"/>
<path d="M574.385 311.566C574.385 311.566 588.702 321.364 588.788 312.294C588.874 303.224 574.385 311.566 574.385 311.566Z" fill="#FEFFD0"/>
<path d="M565.168 325.971C565.168 325.971 576.402 338.9 577.552 330.456C578.702 322.01 565.168 325.971 565.168 325.971Z" fill="#FEFFD0"/>
<path d="M556.734 340.827C556.734 340.827 571.056 350.218 569.871 341.779C568.685 333.339 556.734 340.827 556.734 340.827Z" fill="#FEFFD0"/>
<path d="M548.884 357.515C548.884 357.515 565.093 363.036 561.842 355.159C558.591 347.282 548.884 357.515 548.884 357.515Z" fill="#FEFFD0"/>
<path d="M542.893 370.624C542.893 370.624 559.101 376.144 555.852 368.267C552.6 360.39 542.893 370.624 542.893 370.624Z" fill="#FEFFD0"/>
<path d="M609.638 273.505C609.638 273.505 617.779 262.818 610.664 262.041C603.548 261.266 609.638 273.505 609.638 273.505Z" fill="#FEFFD0"/>
<path d="M597.123 284.682C597.123 284.682 604.729 270.697 596.538 270.916C588.514 271.131 597.123 284.682 597.123 284.682Z" fill="#FEFFD0"/>
<path d="M586.058 296.917C586.058 296.917 593.664 282.932 585.473 283.152C577.449 283.368 586.058 296.917 586.058 296.917Z" fill="#FEFFD0"/>
<path d="M574.479 311.605C574.479 311.605 582.084 297.619 573.893 297.838C565.87 298.054 574.479 311.605 574.479 311.605Z" fill="#FEFFD0"/>
<path d="M565.27 325.582C565.27 325.582 566.807 315.866 562.084 317.689C557.457 319.475 565.27 325.582 565.27 325.582Z" fill="#FEFFD0"/>
<path d="M556.484 340.476C556.484 340.476 554.737 325.031 549.151 330.594C543.681 336.042 556.484 340.476 556.484 340.476Z" fill="#FEFFD0"/>
<path d="M548.88 357.527C548.88 357.527 547.134 342.08 541.547 347.644C536.076 353.092 548.88 357.527 548.88 357.527Z" fill="#FEFFD0"/>
<path d="M626.845 261.911C626.845 261.911 572.977 288.427 541.22 376.116" stroke="#FEFFD0" stroke-width="1.34519" stroke-miterlimit="10"/>
<path d="M627.22 311.819C627.22 311.819 561.681 304.407 559.014 376.683C559.014 376.683 622.239 382.32 627.22 311.819Z" fill="#97CF50"/>
<path d="M627.22 311.819C627.22 311.819 567.692 364.515 559.014 376.683" stroke="white" stroke-width="0.896796" stroke-miterlimit="10" stroke-linecap="round" stroke-linejoin="round"/>
<path d="M610.628 316.354C610.628 316.354 612.163 323.403 610.342 326.946C610.342 326.946 618.042 325.781 621.652 328.917" stroke="white" stroke-width="0.896796" stroke-miterlimit="10" stroke-linecap="round" stroke-linejoin="round"/>
<path d="M599.468 319.594C599.468 319.594 602.84 325.239 601.745 334.761C601.745 334.761 612.607 334.11 614.51 339.72" stroke="white" stroke-width="0.896796" stroke-miterlimit="10" stroke-linecap="round" stroke-linejoin="round"/>
<path d="M586.285 327.53C586.285 327.53 593.275 334.443 591.293 344.38C591.293 344.38 603.564 342.882 607.92 351.239" stroke="white" stroke-width="0.896796" stroke-miterlimit="10" stroke-linecap="round" stroke-linejoin="round"/>
<path d="M596.721 359.694C596.721 359.694 589.024 354.242 579.131 355.814C579.131 355.814 581.401 344.955 574.727 339.776" stroke="white" stroke-width="0.896796" stroke-miterlimit="10" stroke-linecap="round" stroke-linejoin="round"/>
<path d="M567.675 354.531C567.675 354.531 570.799 357.593 571.31 363.403C571.31 363.403 578.95 363.528 580.953 367.906" stroke="white" stroke-width="0.896796" stroke-miterlimit="10" stroke-linecap="round" stroke-linejoin="round"/>
<path d="M505.793 377.046L493.905 372.646L496.712 366.669L509.756 377.046H517.846L497.207 365.73L498.033 358.461L518.672 372.646L499.684 352.018L503.812 347.061C503.812 347.061 522.799 375.643 525.936 374.652C529.075 373.66 507.609 344.584 507.609 344.584L512.892 340.949C512.892 340.949 515.699 354.001 517.846 354.33C519.993 354.661 517.021 338.139 517.021 338.139L522.47 336.983C522.47 336.983 533.202 374.817 535.678 374.487C538.156 374.156 527.588 336.983 527.588 336.983H535.183L538.485 360.692V338.139L544.264 340.618C544.264 340.618 540.632 357.636 543.274 358.296C545.916 358.957 549.383 342.435 549.383 342.435L556.483 348.879L548.061 369.365L557.473 357.015C557.473 357.015 560.775 361.931 561.932 368.54L551.199 372.646L565.07 369.53V377.046H505.793Z" fill="#FEFFD0"/>
<g opacity="0.100006">
<path d="M30.8944 377.844H119.886C119.886 377.844 105.811 382.419 87.6922 382.419C69.5736 382.419 30.8944 377.844 30.8944 377.844Z" fill="url(#paint0_linear_0_175)"/>
</g>
<path d="M62.306 362.603C62.306 362.603 57.8833 271.351 36.6557 271.885C15.4291 272.419 50.3653 303.903 52.1342 360.468C52.1342 360.468 41.0784 290.562 22.0621 290.562C22.0621 290.562 11.8913 290.562 18.9658 304.971C26.0424 319.379 41.6709 332.719 39.384 366.339C39.384 366.339 36.6557 338.59 19.4083 324.716C19.4083 324.716 13.6592 316.711 8.795 324.716C3.93085 332.719 22.9471 340.724 28.6952 361.537V379.146H62.306V362.603Z" fill="#97CF50"/>
<path d="M34.0067 379.146C34.0067 379.146 10.9102 371.942 16.5083 361.42C22.1074 350.897 43.1053 372.857 43.1053 372.857C43.1053 372.857 34.0067 356.845 38.9049 350.897C43.8041 344.95 58.8529 365.022 58.8529 365.022C58.8529 365.022 52.2029 341.291 58.8529 337.631C65.5019 333.969 70.4012 362.792 70.4012 362.792C70.4012 362.792 80.5496 322.99 91.047 325.735C101.546 328.48 91.047 352.372 91.047 352.372C91.047 352.372 96.8546 315.67 107.423 315.67C117.994 315.67 105.396 357.76 105.396 357.76C105.396 357.76 115.894 322.532 126.393 323.448C136.891 324.362 122.193 364.623 122.193 364.623C122.193 364.623 123.243 348.151 134.092 350.44C144.939 352.728 129.892 379.146 129.892 379.146H34.0067Z" fill="#FEFFD0"/>
<path d="M43.2151 292.41C43.2151 292.41 54.6719 281.243 50.9363 264.241C50.9363 264.241 40.8282 279.057 43.2151 292.41Z" fill="#FEFFD0"/>
<path d="M31.6394 277.16C31.6394 277.16 30.1066 259.146 9.32788 257.001C9.32788 257.001 18.8158 273.412 31.6394 277.16Z" fill="#FEFFD0"/>
<path d="M37.8921 284.887C37.8921 284.887 44.6836 270.709 35.201 256.056C35.201 256.056 30.957 273.2 37.8921 284.887Z" fill="#FEFFD0"/>
<path d="M50.0536 304.401C50.0536 304.401 64.1387 291.406 62.3539 274.502C62.3539 274.502 49.2516 291.052 50.0536 304.401Z" fill="#FEFFD0"/>
<path d="M57.7118 325.431C57.7118 325.431 78.4395 314.663 82.6037 296.842C82.6037 296.842 61.6899 311.472 57.7118 325.431Z" fill="#FEFFD0"/>
<path d="M33.6618 279.617C33.6618 279.617 21.6359 266.513 3.98862 269.336C3.98862 269.336 19.7862 281.245 33.6618 279.617Z" fill="#FEFFD0"/>
<path d="M39.1688 287.041C39.1688 287.041 25.3028 275.204 6.02701 281.509C6.02701 281.509 23.9839 291.365 39.1688 287.041Z" fill="#FEFFD0"/>
<path d="M44.8667 295.336C44.8667 295.336 30.9996 283.5 11.7238 289.804C11.7238 289.804 29.6807 299.66 44.8667 295.336Z" fill="#FEFFD0"/>
<path d="M51.0102 306.538C51.0102 306.538 34.4244 291.558 14.6147 295.73C14.6147 295.73 35.3126 309.118 51.0102 306.538Z" fill="#FEFFD0"/>
<path d="M54.4687 314.919C54.4687 314.919 38.2329 300.488 17.9179 305.529C17.9179 305.529 38.4009 318.18 54.4687 314.919Z" fill="#FEFFD0"/>
<path d="M57.5029 324.639C57.5029 324.639 42.0063 310.758 23.0421 315.127C23.0421 315.127 42.4903 327.412 57.5029 324.639Z" fill="#FEFFD0"/>
<path d="M60.0936 334.954C60.0936 334.954 45.7702 321.717 29.8524 324.084C29.8524 324.084 47.4402 336.233 60.0936 334.954Z" fill="#FEFFD0"/>
<path d="M61.6195 344.294C61.6195 344.294 48.4651 330.141 32.4654 331.348C32.4654 331.348 48.9501 344.655 61.6195 344.294Z" fill="#FEFFD0"/>
<path d="M63.5012 354.312C63.5012 354.312 51.3339 341.056 37.168 341.597C37.168 341.597 52.2646 354.202 63.5012 354.312Z" fill="#FEFFD0"/>
<path d="M64.6079 363.821C64.6079 363.821 51.7013 351.286 37.5896 352.64C37.5896 352.64 53.383 364.357 64.6079 363.821Z" fill="#FEFFD0"/>
<path d="M29.5676 274.6C36.0379 281.199 41.5924 288.652 46.3704 296.569C47.6 298.53 48.6839 300.576 49.789 302.609L51.3313 305.721L52.0961 307.28L52.7928 308.871C54.7447 313.076 56.2359 317.482 57.607 321.912C58.81 326.374 59.962 330.849 60.8852 335.375C61.8351 339.892 62.7009 344.429 63.3561 348.997C64.7261 358.123 65.6845 367.308 65.9717 376.53L65.5728 376.549C65.2069 371.968 64.7378 367.389 64.14 362.832C63.5806 358.269 62.9062 353.721 62.1265 349.195C60.6012 340.135 58.6738 331.145 56.1625 322.322C53.6353 313.545 49.9103 305.114 45.2961 297.203C43.0145 293.231 40.5383 289.365 37.8483 285.648C35.1955 281.908 32.3374 278.299 29.2826 274.881L29.5676 274.6Z" fill="#FEFFD0"/>
<path d="M551.82 375.157C551.82 377.94 549.543 380.216 546.762 380.216H71.2514C68.4688 380.216 66.1926 377.94 66.1926 375.157V80.3136C66.1926 77.5283 68.4688 75.2507 71.2514 75.2507H546.762C549.543 75.2507 551.82 77.5283 551.82 80.3136V375.157Z" fill="#A69CBA"/>
<path d="M9.28336 376.065V400.779C9.28336 404.215 12.0936 407.026 15.5282 407.026H602.486C605.919 407.026 608.73 404.215 608.73 400.779V376.065H9.28336Z" fill="#8C7BAA"/>
<g opacity="0.399994">
<path d="M213.843 376.065V387.968C213.843 389.059 214.734 389.952 215.826 389.952H402.188C403.277 389.952 404.17 389.059 404.17 387.968V376.065H213.843Z" fill="#A9BEFF"/>
</g>
<path d="M537.183 364.751H80.7118V88.2529H537.183V364.751Z" fill="#EDEDED"/>
<path d="M537.242 106.465H80.7708V88.2529H537.242V106.465Z" fill="#D4E6F9"/>
<path d="M95.9128 96.7632C95.9128 98.8599 94.213 100.559 92.1187 100.559C90.0232 100.559 88.3246 98.8599 88.3246 96.7632C88.3246 94.6665 90.0232 92.9668 92.1187 92.9668C94.213 92.9668 95.9128 94.6665 95.9128 96.7632Z" fill="#F26B7F"/>
<path d="M108.559 96.7632C108.559 98.8599 106.86 100.559 104.764 100.559C102.669 100.559 100.97 98.8599 100.97 96.7632C100.97 94.6665 102.669 92.9668 104.764 92.9668C106.86 92.9668 108.559 94.6665 108.559 96.7632Z" fill="#F9CB64"/>
<path d="M121.205 96.7632C121.205 98.8599 119.506 100.559 117.411 100.559C115.317 100.559 113.618 98.8599 113.618 96.7632C113.618 94.6665 115.317 92.9668 117.411 92.9668C119.506 92.9668 121.205 94.6665 121.205 96.7632Z" fill="#88E2B5"/>
<path d="M154.459 148.408C154.459 149.07 153.406 149.606 152.108 149.606C150.81 149.606 149.757 149.07 149.757 148.408C149.757 147.746 150.81 147.209 152.108 147.209C153.406 147.209 154.459 147.746 154.459 148.408Z" fill="white"/>
<path d="M136.138 152.776C136.138 153.438 135.086 153.975 133.787 153.975C132.489 153.975 131.436 153.438 131.436 152.776C131.436 152.114 132.489 151.577 133.787 151.577C135.086 151.577 136.138 152.114 136.138 152.776Z" fill="white"/>
<path d="M412.125 104.392C385.704 117.328 341.61 124.074 298.999 123.771C242.499 123.37 215.228 136.157 162.962 157.568C129.319 171.352 99.2772 174.415 80.052 175.165V170.019C97.0565 169.31 110.221 164.425 110.221 158.495C110.221 152.566 97.0565 147.68 80.052 146.967V134.287C161.325 147.708 234.556 112.079 296.649 108.988C313.37 108.154 326.672 106.453 337.195 104.392H412.125Z" fill="#FEFFD0"/>
<path d="M374.573 326.354C442.326 325.578 491.819 332.494 518.329 337.475H537.163V325.818C512.034 326.518 491.317 321.752 488.476 313.969C485.197 304.984 506.978 295.378 537.163 292.471V270.166C501.728 294.69 432.512 309.146 336.482 310.969C259.313 312.433 203.536 326.636 171.794 337.475H237.694C267.057 332.748 314.375 327.043 374.573 326.354Z" fill="#FEFFD0"/>
<path d="M383.574 128.577C345.204 134.371 297.664 155.945 256.396 154.346C215.119 152.752 168.219 167.399 140.217 184.181C123.487 194.204 97.9248 198.53 80.0518 200.385V211.442C96.4072 207.76 149.981 195.173 169.947 183.864C193.653 170.438 233.34 158.719 268.272 160.001C303.195 161.278 364.055 139.998 396.528 135.364C423.461 131.523 502.807 133.826 537.163 158.915V143.205C493.381 120.848 412.902 124.148 383.574 128.577ZM370.811 263.695C300.617 264.124 314.281 264.424 238.075 276.053C137.126 291.458 83.8001 279.489 80.0518 275.074V290.416C81.3134 290.85 82.6208 291.222 84.0012 291.534C84.0012 291.534 128.167 304.657 218.264 290.201C308.352 275.745 292.161 275.284 375.099 274.752C428.416 274.412 498.409 253.924 537.163 225.25V210.701C503.273 239.921 422.3 263.383 370.811 263.695Z" fill="#FEFFD0"/>
<path d="M499.197 186.223C506.425 218.315 429.812 257.011 328.077 272.654C226.342 288.297 138.011 274.964 130.782 242.872C123.555 210.782 200.168 172.085 301.903 156.442C403.637 140.799 491.968 154.132 499.197 186.223Z" fill="#97CF50"/>
<path d="M506.093 183.599C515.208 215.446 440.788 257.264 339.872 277.001C238.954 296.738 149.755 286.922 140.639 255.074C131.523 223.228 205.943 181.411 306.86 161.673C407.778 141.936 496.977 151.753 506.093 183.599Z" stroke="#FEFFD0" stroke-width="1.79359" stroke-miterlimit="10"/>
<path d="M320.444 158.861C320.444 158.861 309.542 175.965 281.061 177.454C252.578 178.943 249.568 182.505 242.148 188.659C234.728 194.813 231.81 198.454 210.929 197.404C190.048 196.354 194.194 207.769 177.832 213.761C161.47 219.753 168.536 226.221 165.561 231.57C162.586 236.92 155.148 235.948 158.123 242.102C161.098 248.256 168.938 241.978 170.767 254.494C172.595 267.01 187.501 260.24 196.426 261.86C205.351 263.479 208.326 271.876 217.622 272.212C226.919 272.548 235.844 265.098 253.694 268.337C271.544 271.576 281.287 280.088 298.318 275.463C315.351 270.838 326.581 264.519 339.225 265.619C351.869 266.718 360.793 269.309 369.718 260.564C378.643 251.819 393.518 245.989 406.533 246.313C419.55 246.636 418.062 241.778 430.705 234.005C443.349 226.231 449.299 231.413 457.852 227.851C466.406 224.288 465.29 210.112 478.677 202.787C492.065 195.461 490.205 186.957 482.396 182.302C474.586 177.646 461.199 176.675 460.456 169.874C459.711 163.072 445.581 160.156 435.541 163.719C425.5 167.282 410.818 163.072 404.028 158.861C397.237 154.65 383.106 155.946 366.743 160.156C350.382 164.367 325.836 161.128 320.444 158.861Z" fill="#FEFFD0"/>
<path d="M387.106 189.594C379.544 190.743 369.831 180.533 357.051 184.198C344.27 187.863 335.978 186.359 323.277 183.325C310.577 180.29 298.3 181.588 292.815 189.594C287.33 197.6 283.412 201.928 267.48 199.114C251.547 196.302 240.055 198.52 230.913 209.419C221.771 220.319 197.741 219.67 195.913 227.134C194.085 234.6 205.578 234.383 233.263 233.95C260.95 233.517 246.845 238.69 277.405 241.837C307.965 244.985 299.694 235.689 318.674 235.032C337.653 234.375 346.36 239.359 366.472 235.681C386.584 232.003 383.711 219.438 395.203 213.712C406.696 207.986 428.374 211.231 437.778 199.114C447.18 186.998 431.508 192.407 417.926 188.512C404.344 184.617 392.244 188.814 387.106 189.594Z" fill="#97CF50"/>
<path d="M201.774 256.995C201.774 257.639 200.75 258.16 199.489 258.16C198.226 258.16 197.203 257.639 197.203 256.995C197.203 256.351 198.226 255.83 199.489 255.83C200.75 255.83 201.774 256.351 201.774 256.995Z" fill="#F9A830"/>
<path d="M428.797 240.764C428.797 242.037 426.772 243.07 424.276 243.07C421.777 243.07 419.753 242.037 419.753 240.764C419.753 239.491 421.777 238.458 424.276 238.458C426.772 238.458 428.797 239.491 428.797 240.764Z" fill="#F9A830"/>
<path d="M149.612 306.126C149.612 307.399 147.587 308.432 145.089 308.432C142.592 308.432 140.567 307.399 140.567 306.126C140.567 304.853 142.592 303.82 145.089 303.82C147.587 303.82 149.612 304.853 149.612 306.126Z" fill="#F9A830"/>
<path d="M436.192 164.949C436.192 166.223 434.167 167.255 431.67 167.255C429.172 167.255 427.147 166.223 427.147 164.949C427.147 163.676 429.172 162.643 431.67 162.643C434.167 162.643 436.192 163.676 436.192 164.949Z" fill="#F9A830"/>
<path d="M183.898 188.891C183.898 190.164 181.873 191.196 179.376 191.196C176.878 191.196 174.853 190.164 174.853 188.891C174.853 187.617 176.878 186.585 179.376 186.585C181.873 186.585 183.898 187.617 183.898 188.891Z" fill="white"/>
<path d="M160.712 268.938C160.712 268.938 163.434 268.674 165.248 267.087C167.063 265.502 167.192 264.466 167.192 264.466C167.192 264.466 168.723 267.682 171.975 268.475C175.227 269.268 176.134 269.268 176.134 269.268C176.134 269.268 171.209 270.458 169.525 272.11C167.84 273.762 167.321 275.149 167.321 275.149C167.321 275.149 165.248 271.515 163.174 270.788C161.101 270.061 156.393 269.4 156.393 269.4L160.712 268.938Z" fill="#F9A830"/>
<path d="M452.246 236.512C452.246 236.512 455.524 236.193 457.709 234.283C459.894 232.373 460.051 231.126 460.051 231.126C460.051 231.126 461.894 235 465.81 235.955C469.728 236.91 470.82 236.91 470.82 236.91C470.82 236.91 464.889 238.342 462.86 240.332C460.831 242.322 460.207 243.993 460.207 243.993C460.207 243.993 457.709 239.616 455.212 238.74C452.715 237.864 447.044 237.069 447.044 237.069L452.246 236.512Z" fill="white"/>
<path d="M406.239 146.472C406.239 146.472 408.718 146.231 410.371 144.787C412.023 143.342 412.141 142.4 412.141 142.4C412.141 142.4 413.534 145.328 416.496 146.05C419.458 146.773 421.945 146.848 421.945 146.848C421.945 146.848 415.799 147.856 414.264 149.36C412.731 150.865 412.258 152.129 412.258 152.129C412.258 152.129 410.371 148.819 408.482 148.157C406.594 147.495 402.305 146.893 402.305 146.893L406.239 146.472Z" fill="white"/>
<path d="M138.315 231.048C138.315 231.048 141.168 230.771 143.07 229.109C144.972 227.446 145.108 226.361 145.108 226.361C145.108 226.361 146.711 229.732 150.121 230.563C153.531 231.394 156.392 231.482 156.392 231.482C156.392 231.482 149.319 232.641 147.553 234.373C145.787 236.105 145.243 237.56 145.243 237.56C145.243 237.56 143.07 233.75 140.896 232.988C138.723 232.226 133.787 231.533 133.787 231.533L138.315 231.048Z" fill="white"/>
<path d="M97.9282 232.216C97.9282 232.216 99.0436 232.108 99.7877 231.458C100.531 230.808 100.584 230.383 100.584 230.383C100.584 230.383 101.211 231.702 102.544 232.027C103.877 232.352 104.996 232.386 104.996 232.386C104.996 232.386 102.231 232.84 101.54 233.516C100.85 234.193 100.637 234.763 100.637 234.763C100.637 234.763 99.7877 233.273 98.9375 232.975C98.0873 232.677 96.1573 232.406 96.1573 232.406L97.9282 232.216Z" fill="white"/>
<path d="M97.9282 252.713C97.9282 252.713 99.0436 252.605 99.7877 251.955C100.531 251.305 100.584 250.88 100.584 250.88C100.584 250.88 101.211 252.199 102.544 252.524C103.877 252.849 104.996 252.883 104.996 252.883C104.996 252.883 102.231 253.336 101.54 254.014C100.85 254.69 100.637 255.26 100.637 255.26C100.637 255.26 99.7877 253.77 98.9375 253.472C98.0873 253.173 96.1573 252.903 96.1573 252.903L97.9282 252.713Z" fill="#F9A830"/>
<path d="M199.403 174.724C199.403 174.724 202.519 174.421 204.597 172.606C206.674 170.789 206.822 169.604 206.822 169.604C206.822 169.604 208.574 173.286 212.298 174.194C216.022 175.102 219.149 175.197 219.149 175.197C219.149 175.197 211.422 176.464 209.493 178.356C207.564 180.247 206.97 181.836 206.97 181.836C206.97 181.836 204.597 177.675 202.221 176.842C199.848 176.01 194.456 175.253 194.456 175.253L199.403 174.724Z" fill="#F9A830"/>
<path d="M451.532 187.894C451.532 187.894 454.648 187.592 456.726 185.776C458.803 183.96 458.952 182.774 458.952 182.774C458.952 182.774 460.703 186.457 464.427 187.365C468.151 188.273 471.278 188.368 471.278 188.368C471.278 188.368 463.551 189.634 461.622 191.526C459.694 193.418 459.1 195.007 459.1 195.007C459.1 195.007 456.726 190.845 454.351 190.013C451.977 189.18 446.586 188.424 446.586 188.424L451.532 187.894Z" fill="white"/>
<path d="M485.723 161.359C485.723 161.359 486.916 161.243 487.711 160.548C488.507 159.854 488.562 159.4 488.562 159.4C488.562 159.4 489.234 160.809 490.659 161.157C492.085 161.504 493.282 161.541 493.282 161.541C493.282 161.541 490.323 162.026 489.585 162.75C488.847 163.474 488.62 164.082 488.62 164.082C488.62 164.082 487.711 162.489 486.803 162.171C485.894 161.852 483.83 161.562 483.83 161.562L485.723 161.359Z" fill="white"/>
<path d="M513.58 177.125C513.58 177.125 514.773 177.009 515.568 176.314C516.363 175.619 516.42 175.165 516.42 175.165C516.42 175.165 517.091 176.575 518.516 176.923C519.941 177.27 521.139 177.306 521.139 177.306C521.139 177.306 518.18 177.792 517.443 178.515C516.704 179.239 516.476 179.848 516.476 179.848C516.476 179.848 515.568 178.255 514.659 177.936C513.75 177.618 511.687 177.328 511.687 177.328L513.58 177.125Z" fill="#F9A830"/>
<path d="M508.854 205.253C508.854 205.253 510.047 205.137 510.842 204.443C511.637 203.748 511.693 203.293 511.693 203.293C511.693 203.293 512.364 204.703 513.789 205.05C515.216 205.398 516.412 205.435 516.412 205.435C516.412 205.435 513.454 205.919 512.716 206.643C511.977 207.368 511.751 207.976 511.751 207.976C511.751 207.976 510.842 206.383 509.933 206.064C509.025 205.746 506.96 205.456 506.96 205.456L508.854 205.253Z" fill="white"/>
<path d="M171.607 304.314C171.607 304.314 174.292 304.053 176.083 302.488C177.873 300.923 178.001 299.901 178.001 299.901C178.001 299.901 179.51 303.075 182.72 303.857C185.929 304.639 188.623 304.721 188.623 304.721C188.623 304.721 181.965 305.813 180.302 307.443C178.64 309.074 178.128 310.443 178.128 310.443C178.128 310.443 176.083 306.857 174.037 306.14C171.99 305.422 167.344 304.77 167.344 304.77L171.607 304.314Z" fill="white"/>
<path d="M397.026 166.493C397.026 166.975 396.26 167.366 395.314 167.366C394.369 167.366 393.602 166.975 393.602 166.493C393.602 166.011 394.369 165.62 395.314 165.62C396.26 165.62 397.026 166.011 397.026 166.493Z" fill="#F9A830"/>
<path d="M238.504 167.637C238.504 168.854 236.571 169.84 234.186 169.84C231.801 169.84 229.869 168.854 229.869 167.637C229.869 166.422 231.801 165.436 234.186 165.436C236.571 165.436 238.504 166.422 238.504 167.637Z" fill="#F9A830"/>
<path d="M417.662 182.774C417.662 184.834 414.387 186.504 410.348 186.504C406.308 186.504 403.034 184.834 403.034 182.774C403.034 180.715 406.308 179.045 410.348 179.045C414.387 179.045 417.662 180.715 417.662 182.774Z" fill="#FEFFD0"/>
<path d="M148.415 252.323C148.415 254.383 145.14 256.053 141.101 256.053C137.062 256.053 133.787 254.383 133.787 252.323C133.787 250.264 137.062 248.594 141.101 248.594C145.14 248.594 148.415 250.264 148.415 252.323Z" fill="#FEFFD0"/>
<path d="M160.952 208.88C160.952 212.705 154.871 215.806 147.37 215.806C139.869 215.806 133.787 212.705 133.787 208.88C133.787 205.055 139.869 201.954 147.37 201.954C154.871 201.954 160.952 205.055 160.952 208.88Z" fill="#FEFFD0"/>
<path d="M497.287 271.392C497.287 274.36 492.568 276.765 486.748 276.765C480.928 276.765 476.209 274.36 476.209 271.392C476.209 268.424 480.928 266.018 486.748 266.018C492.568 266.018 497.287 268.424 497.287 271.392Z" fill="#FEFFD0"/>
<path d="M158.673 150.018C158.673 153.843 152.592 156.944 145.09 156.944C137.589 156.944 131.508 153.843 131.508 150.018C131.508 146.193 137.589 143.092 145.09 143.092C152.592 143.092 158.673 146.193 158.673 150.018Z" fill="#9FA7C0"/>
<path d="M445.253 315.708C445.253 319.534 439.172 322.634 431.67 322.634C424.169 322.634 418.088 319.534 418.088 315.708C418.088 311.883 424.169 308.783 431.67 308.783C439.172 308.783 445.253 311.883 445.253 315.708Z" fill="#9FA7C0"/>
<path d="M472.515 220.934C472.515 224.758 466.434 227.859 458.933 227.859C451.432 227.859 445.349 224.758 445.349 220.934C445.349 217.108 451.432 214.008 458.933 214.008C466.434 214.008 472.515 217.108 472.515 220.934Z" fill="#FEFFD0"/>
<path d="M206.802 236.303C206.802 238.362 203.528 240.032 199.489 240.032C195.45 240.032 192.175 238.362 192.175 236.303C192.175 234.243 195.45 232.573 199.489 232.573C203.528 232.573 206.802 234.243 206.802 236.303Z" fill="#FEFFD0"/>
<path d="M277.744 104.392C258.508 107.511 237.993 112.247 217.908 116.885C193.58 122.503 170.606 127.808 152.285 129.621C141.853 130.656 131.797 131.047 122.572 131.047C103.621 131.047 88.1611 129.407 80.052 128.33V127.365C91.6626 128.931 119.994 131.873 151.937 128.707C170.048 126.913 192.931 121.631 217.149 116.037C235.461 111.809 254.12 107.501 271.893 104.392H277.744Z" fill="#FEFFD0"/>
<path d="M537.163 261.346V262.832C523.45 271.41 504.91 278.911 481.807 285.208C444.489 295.381 396.218 302.032 338.347 304.983C273.465 308.293 223.448 317.934 192.913 325.444C173.979 330.095 160.001 334.524 151.471 337.475H148.253C156.545 334.534 171.365 329.709 192.063 324.618C222.735 317.071 272.98 307.38 338.164 304.055C395.797 301.119 443.84 294.499 480.939 284.388C504.626 277.927 523.468 270.203 537.163 261.346Z" fill="#FEFFD0"/>
<path d="M410.446 313.223C410.444 313.225 410.44 313.227 410.438 313.229C410.437 313.229 410.434 313.232 410.434 313.232L410.446 313.223Z" fill="#F9A830"/>
<path d="M216.874 255.835C216.399 255.866 216.235 255.914 216.235 255.914C216.235 255.914 216.457 255.883 216.874 255.835Z" fill="#F9A830"/>
<path d="M314.444 296.066C314.444 296.066 335.032 294.083 346.33 290.385L343.116 290.089L308.281 295.217L314.444 296.066Z" fill="#FEFFD0"/>
<path d="M358.242 200.484C358.242 200.484 360.091 187.226 369.958 181.235C369.958 181.235 353.47 186.927 358.242 200.484Z" fill="#F9A830"/>
<path d="M537.242 364.751H80.7708V337.195H537.242V364.751Z" fill="#D4E6F9"/>
<path d="M522.733 350.411C522.733 351.419 521.915 352.239 520.906 352.239H126.91C125.902 352.239 125.084 351.419 125.084 350.411C125.084 349.401 125.902 348.583 126.91 348.583H520.906C521.915 348.583 522.733 349.401 522.733 350.411Z" fill="#8AC5FF"/>
<path d="M114.609 350.502C114.609 355.847 110.279 360.182 104.935 360.182C99.5922 360.182 95.262 355.847 95.262 350.502C95.262 345.157 99.5922 340.822 104.935 340.822C110.279 340.822 114.609 345.157 114.609 350.502Z" fill="#8AC5FF"/>
<path d="M102.31 344.715V356.105L110.701 350.583L102.31 344.715Z" fill="white"/>
<path d="M170.6 350.411C170.6 353.555 168.054 356.105 164.911 356.105C161.768 356.105 159.22 353.555 159.22 350.411C159.22 347.264 161.768 344.714 164.911 344.714C168.054 344.714 170.6 347.264 170.6 350.411Z" fill="white"/>
</g>
<path d="M415.934 427.758C415.934 427.758 413.916 428.942 411.4 427.758C411.4 427.758 409.89 428.785 406.709 427.102C406.709 427.102 404.509 428.108 402.332 425.761C400.155 423.401 397.979 421.888 390.252 417.351C383.756 413.549 374.169 407.342 366.782 404.283C365.394 403.697 364.075 403.234 362.879 402.918C362.879 402.918 277.284 381.757 220.879 362.595C175.572 347.224 164.429 331.695 162.951 321.2C162.59 318.626 162.804 316.357 163.244 314.462C163.244 314.462 172.29 297.962 209.465 306.178C249.222 314.958 287.469 345.463 310.071 359.243C331.547 372.334 349.604 379.658 363.432 379.782C364.165 379.782 364.875 379.76 365.574 379.727C379.685 379.06 383.361 380.077 390.76 387.13C398.137 394.184 400.483 403.246 409.212 408.956C417.954 414.677 420.626 423.401 421.303 425.761C421.979 428.108 419.453 429.281 415.934 427.758Z" fill="url(#paint1_linear_0_175)"/>
<path d="M359.405 263.428C364.199 270.165 368.925 277.343 372.534 284.002L310.5 330.826V331.469L310.072 331.152L309.643 331.469V330.826L247.61 284.002C250.779 278.133 254.828 271.859 259.035 265.832C270.224 249.829 282.518 235.632 282.518 235.632C282.518 235.632 273.551 221.683 263.615 200.839C260.231 193.729 256.723 185.829 253.43 177.398C240.447 144.253 241.79 134.852 241.79 134.852C245.782 129.221 257.468 124.503 268.656 119.966C278.785 115.858 288.507 111.897 291.698 107.53C294.552 103.636 295.95 99.5733 296.604 96.1986C297.508 91.6165 297.067 88.2767 297.067 88.2767H323.077C323.077 88.2767 322.534 92.3623 323.866 97.7003C324.633 100.735 326.008 104.189 328.445 107.53C333.046 113.827 351.183 119.278 364.604 125.541C370.785 128.42 375.962 131.467 378.353 134.852C378.353 134.852 379.696 144.253 366.713 177.398C363.252 186.246 359.563 194.519 356.01 201.899C346.276 222.157 337.626 235.632 337.626 235.632C337.626 235.632 348.702 248.43 359.394 263.428H359.405Z" fill="white"/>
<path d="M364.604 125.542C355.66 131.918 340.423 137.876 316.963 132.663C296.357 128.082 280.025 123.499 268.656 119.967C278.785 115.859 288.507 111.897 291.699 107.53C294.553 103.637 295.951 99.5739 296.605 96.1992C303.395 95.7591 310.963 95.951 319.309 97.0567C320.877 97.2598 322.388 97.4742 323.866 97.6999C324.633 100.736 326.009 104.19 328.446 107.53C333.046 113.828 351.183 119.279 364.604 125.542Z" fill="#EDEDED"/>
<path d="M359.394 263.428C348.87 265.934 332.167 268.869 309.666 269.591C284.796 270.381 268.239 267.909 259.036 265.832C270.224 249.83 282.517 235.632 282.517 235.632C282.517 235.632 273.551 221.683 263.615 200.839C271.07 207.023 285.495 215.093 309.146 213.671C332.201 212.293 347.562 206.323 356.01 201.899C346.277 222.157 337.627 235.632 337.627 235.632C337.627 235.632 348.701 248.431 359.394 263.428" fill="#EDEDED"/>
<path d="M297.981 206.967V229.131C297.981 229.131 221.443 278.178 177.58 251.748C177.58 251.748 174.896 243.69 190.562 224.877C206.228 206.064 225.019 162.625 225.019 162.625C230.399 142.91 241.79 134.852 241.79 134.852L251.4 158.055L256.159 169.533L259.047 176.507L256.881 179.498L222.887 226.344L221.939 227.653C224.884 226.829 227.861 226.175 230.839 225.769C257.253 222.191 291.27 212.79 297.981 206.967Z" fill="white"/>
<path d="M316.058 183.98C315.483 182.26 314.755 181.131 314.135 182.458C313.963 179.034 313.625 176.557 313.204 175.834C312.016 173.797 311.47 173.824 310.497 176.002C310.397 174.617 309.917 173.667 309.399 173.567C308.532 173.399 306.993 177.682 306.154 181.208C305.55 183.745 304.862 190.554 304.522 194.19L302.824 197.507C302.991 192.339 301.176 186.799 300.111 187.255C298.936 187.76 299.44 190.615 299.607 196.744C299.692 199.848 299.691 202.149 299.67 203.671L297.985 206.962C297.985 206.962 296.195 222.638 297.985 229.133C297.985 229.133 302.244 227.19 306.564 221.401V221.406C306.564 221.406 312.533 213.961 315.218 204.556C317.904 195.149 316.896 186.499 316.058 183.98Z" fill="#FF9E81"/>
<path d="M443.523 251.748C399.659 278.178 323.111 229.131 323.111 229.131V206.966C329.833 212.79 363.849 222.191 390.253 225.768C393.23 226.175 396.209 226.829 399.163 227.653L398.137 226.242L364.853 180.367L362.055 176.507L376.381 132.662C376.381 132.662 389.52 139.942 396.073 162.625C396.073 162.625 414.875 206.064 430.541 224.877C446.207 243.69 443.523 251.748 443.523 251.748Z" fill="white"/>
<path d="M305.041 183.98C305.614 182.26 306.344 181.131 306.963 182.458C307.134 179.034 307.474 176.557 307.894 175.834C309.082 173.797 309.627 173.824 310.6 176.002C310.702 174.617 311.182 173.667 311.699 173.567C312.567 173.399 314.105 177.682 314.945 181.208C315.549 183.745 316.235 190.554 316.576 194.19L318.273 197.507C318.107 192.339 319.923 186.799 320.987 187.255C322.163 187.76 321.658 190.615 321.49 196.744C321.405 199.848 321.406 202.149 321.429 203.671L323.113 206.962C323.113 206.962 324.903 222.638 323.113 229.133C323.113 229.133 318.854 227.19 314.534 221.401L314.535 221.406C314.535 221.406 308.565 213.961 305.881 204.556C303.195 195.149 304.201 186.499 305.041 183.98Z" fill="#FF9E81"/>
<path d="M366.782 404.284C365.394 403.697 364.075 403.234 362.88 402.918C362.88 402.918 277.285 381.757 220.88 362.594C175.573 347.224 164.43 331.694 162.952 321.2C166.663 325.906 176.058 333.952 199.89 345.272C240.494 364.57 352.582 392.4 366.782 404.284Z" fill="url(#paint2_linear_0_175)"/>
<path d="M396.945 362.597C344.648 380.358 267.241 399.844 256.243 402.586C255.381 402.806 254.926 402.916 254.926 402.916C247.375 404.923 235.296 412.823 227.573 417.354C219.849 421.884 217.672 423.404 215.494 425.756C213.301 428.107 211.123 427.105 211.123 427.105C207.927 428.781 206.423 427.762 206.423 427.762C203.9 428.939 201.895 427.762 201.895 427.762C198.371 429.283 195.848 428.107 196.522 425.756C197.196 423.404 199.874 414.674 208.6 408.951C217.327 403.246 219.677 394.184 227.071 387.13C234.45 380.076 238.148 379.057 252.248 379.731C253.814 379.809 255.444 379.778 257.135 379.669C270.593 378.681 287.67 371.485 307.755 359.242C330.361 345.464 368.604 314.958 408.349 306.18C445.527 297.966 454.806 314.307 454.806 314.307C457.046 323.932 453.344 343.458 396.945 362.597Z" fill="url(#paint3_linear_0_175)"/>
<path d="M421.411 288.366C400.521 282.893 378.773 282.234 372.37 283.616C369.824 277.605 363.676 269.586 363.676 269.586C363.676 269.586 339.389 285.342 302.461 285.006C265.532 284.67 253.312 274.385 253.312 274.385C251.798 276.724 247.606 283.998 247.606 283.998C247.606 283.998 229.625 282.352 196.41 289.373C164.63 296.091 163.252 314.455 163.252 314.455C163.252 314.455 184.29 301.018 223.681 311.767C262.179 322.274 281.868 352.442 308.232 354.221V354.316C308.541 354.311 308.844 354.281 309.151 354.269C309.458 354.281 309.762 354.311 310.07 354.316V354.221C336.434 352.442 356.122 322.274 394.621 311.767C434.012 301.018 455.049 314.455 455.049 314.455C455.049 314.455 456.038 297.435 421.411 288.366" fill="url(#paint4_linear_0_175)"/>
<path d="M256.243 402.587C255.381 402.806 254.926 402.916 254.926 402.916C247.375 404.922 235.296 412.823 227.573 417.353C219.849 421.883 217.672 423.404 215.493 425.756C213.301 428.107 211.123 427.104 211.123 427.104C207.927 428.781 206.423 427.763 206.423 427.763C203.9 428.938 201.895 427.763 201.895 427.763C198.371 429.283 195.848 428.107 196.522 425.756C197.196 423.404 199.874 414.673 208.6 408.951C217.327 403.246 219.677 394.185 227.071 387.13C234.45 380.076 238.148 379.058 252.248 379.732C253.814 379.81 255.444 379.779 257.135 379.668C254.614 388.149 255.319 397.006 256.243 402.587Z" fill="#FF9E81"/>
<path d="M415.931 427.762C415.931 427.762 413.911 428.938 411.404 427.762C411.404 427.762 409.885 428.781 406.704 427.104C406.704 427.104 404.51 428.107 402.333 425.756C400.155 423.404 397.977 421.884 390.254 417.354C383.752 413.544 374.165 407.337 366.786 404.279C367.726 392.774 365.078 383.979 363.433 379.779C364.169 379.779 364.874 379.762 365.58 379.732C379.679 379.058 383.362 380.076 390.755 387.13C398.135 394.184 400.484 403.246 409.21 408.951C417.953 414.673 420.631 423.404 421.305 425.756C421.978 428.107 419.456 429.283 415.931 427.762Z" fill="#FF9E81"/>
<path d="M394.691 303.886C380.688 308.467 364.503 319.186 348.553 330.608C344.349 330.809 339.425 330.512 334.751 328.944C330.916 327.658 328.673 327.888 328.912 326.028C331.014 309.706 357.675 293.879 357.675 293.879C340.178 299.066 329.136 314.374 324.745 323.019C321.445 327.04 316.032 331.989 309.645 331.475C299.039 330.618 295.521 321.419 292.091 316.489C286.578 308.565 275.072 298.397 259.828 293.879C259.828 293.879 283.557 307.288 291.787 324.766C294.055 329.586 294.244 334.105 286.414 331.475C273.847 327.252 252.056 310.959 244.844 307.663C225.276 298.724 209.832 301.397 206.407 302.167C208.413 301.902 215.418 302.154 236.626 310.566C254.321 317.584 276.196 333.676 289.044 343.823L299.643 352.49C299.8 352.625 299.907 352.716 299.907 352.716C299.907 352.716 299.848 352.654 299.761 352.562C300.552 353.029 306.046 355.92 316.796 353.387C313.234 355.803 309.787 358.039 306.491 360.008C280.592 375.486 257.135 379.669 257.135 379.669C257.135 379.669 259.345 384.082 290.281 373.199C321.217 362.317 350.944 331.604 379.706 315.885C408.467 300.166 427.802 302.101 436.261 305.003C436.261 305.003 421.759 295.031 394.691 303.886Z" fill="url(#paint5_linear_0_175)"/>
<path d="M256.881 179.498L222.887 226.344C216.188 227.259 211.495 226.084 211.495 226.084C227.004 213.93 247.745 166.621 251.4 158.055C251.783 157.198 251.975 156.723 251.975 156.723C254.016 160.402 255.404 164.792 256.159 169.532C256.678 172.726 256.915 176.089 256.881 179.498Z" fill="#EDEDED"/>
<path d="M410.228 226.085C410.228 226.085 405.209 227.337 398.136 226.243L364.852 180.367C364.65 171.598 366.207 163.1 369.737 156.724C369.737 156.724 393.152 212.7 410.228 226.085Z" fill="#EDEDED"/>
<path d="M256.236 180.374C256.236 180.374 254.162 151.2 243.098 138.018C243.098 138.018 261.586 150.543 256.236 180.374Z" fill="#EDEDED"/>
<path d="M221.936 227.653C221.936 227.653 194.089 230.277 188.772 240.917C188.772 240.917 189.98 233.372 202.669 227.653C215.357 221.933 224.08 224.697 224.08 224.697L221.936 227.653Z" fill="#EDEDED"/>
<path d="M399.227 227.653C399.227 227.653 427.072 230.277 432.391 240.917C432.391 240.917 431.181 233.372 418.493 227.653C405.804 221.933 397.081 224.697 397.081 224.697L399.227 227.653Z" fill="#EDEDED"/>
<path d="M293.636 105.137C293.636 105.137 299.684 110.108 309.782 109.693C323.283 109.138 325.927 103.463 325.927 103.463L323.302 93.9971L297.197 92.7927L293.636 105.137Z" fill="#FF9E81"/>
<path fill-rule="evenodd" clip-rule="evenodd" d="M419.099 88.5085C417.746 74.4013 402.304 62.9806 402.304 62.9806C419.099 64.3233 426.035 85.145 426.035 85.145L427.603 82.6853C427.603 73.7243 417.305 58.2744 395.593 55.1377C373.881 52.0112 367.622 50.6685 357.551 45.9623C352.41 43.5605 350.243 39.4096 347.597 34.3422C345.059 29.4808 342.08 23.7758 335.613 17.9624C322.406 6.10163 313.462 7.44434 313.462 7.44434C312.006 7.37664 310.777 7.81669 309.875 8.30187C308.96 7.81669 307.742 7.37664 306.288 7.44434C306.288 7.44434 297.333 6.10163 284.125 17.9624C277.666 23.774 274.69 29.4772 272.154 34.3376C269.509 39.4071 267.342 43.5597 262.2 45.9623C252.127 50.6685 245.856 52.0112 224.145 55.1377C202.445 58.2744 192.147 73.7243 192.147 82.6853L193.714 85.145C193.714 85.145 200.652 64.3233 217.434 62.9806C217.434 62.9806 201.993 74.4013 200.652 88.5085C199.331 102.356 213.34 108.879 213.847 109.105L213.858 109.116C213.858 109.116 213.633 103.733 216.092 99.7035C216.092 99.7035 214.794 105.075 218.46 111.576C222.136 118.065 232.649 121.428 237.352 122.32C237.352 122.32 239.145 116.057 240.262 113.145C240.262 113.145 240.138 119.634 241.988 123.449L246.747 124.566C246.747 124.566 247.199 119.86 249.217 116.723C249.217 116.723 249.68 121.44 250.785 124.566C250.785 124.566 257.711 128.369 268.414 129.836C271.297 130.233 272.539 128.705 274.007 126.899C275.457 125.115 277.127 123.06 280.814 122.32C289.426 120.597 284.685 97.8159 280.809 79.1971C279.974 75.1866 279.18 71.3692 278.568 67.997C279.208 69.4026 279.658 70.157 279.658 70.157C279.658 70.157 283.346 66.6746 283.794 60.2923C284.241 53.9101 282.003 49.6553 282.003 49.6553C282.003 49.6553 284.689 48.5352 288.716 45.5123C292.746 42.4894 297.669 35.7707 297.669 35.7707C294.871 42.0411 287.71 49.0952 287.71 49.0952L289.612 49.6553C289.612 49.6553 296.214 46.6324 302.369 35.9943C305.092 31.2892 306.761 27.6847 307.778 25.1214C308.652 27.657 310.413 31.879 313.896 37.8971C320.05 48.5341 326.653 51.557 326.653 51.557L328.554 50.998C328.554 50.998 321.393 43.9439 318.595 37.6725C318.595 37.6725 323.519 44.3911 327.547 47.414C331.576 50.4379 334.262 51.557 334.262 51.557C334.262 51.557 332.024 55.8118 332.472 62.1951C332.854 67.6401 336.005 71.7412 336.922 72.8283C336.928 72.8522 336.934 72.8761 336.941 72.9C337.601 73.031 336.837 87.5129 336.08 101.845C335.338 115.905 334.604 129.82 335.229 129.904C354.572 132.454 368.965 124.566 368.965 124.566C370.058 121.44 370.532 116.723 370.532 116.723C372.54 119.86 372.99 124.566 372.99 124.566L377.751 123.449C379.6 119.634 379.475 113.145 379.475 113.145C380.604 116.057 382.386 122.32 382.386 122.32C387.089 121.428 397.612 118.065 401.278 111.576C404.944 105.075 403.647 99.7035 403.647 99.7035C404.504 101.091 405.034 102.649 405.36 104.082C405.992 106.813 405.891 109.116 405.891 109.116C405.891 109.116 420.44 102.616 419.099 88.5085Z" fill="url(#paint6_linear_0_175)"/>
<path d="M341.724 55.1171C341.724 75.0362 322.842 100.116 309.682 100.116C295.721 100.116 277.354 75.0362 277.354 55.1171C277.354 35.1971 291.765 19.0486 309.539 19.0486C327.313 19.0486 341.724 35.1971 341.724 55.1171Z" fill="#FFBC9F"/>
<path d="M287.036 59.0386C287.036 59.0386 288.79 61.6706 295.075 62.1097C301.362 62.5487 303.774 60.5741 303.774 60.5741C303.774 60.5741 292.737 60.2089 287.036 59.0386" fill="#2B2A2A"/>
<path d="M300.851 53.7224C300.851 53.7224 299.484 53.5675 295.737 53.3255C291.991 53.0834 288.486 53.9296 288.486 53.9296C288.486 53.9296 291.991 50.7252 296.281 50.7252C300.571 50.7252 300.851 53.7224 300.851 53.7224Z" fill="#2B2A2A"/>
<path d="M331.388 59.0386C331.388 59.0386 329.634 61.6707 323.348 62.1097C317.063 62.5487 314.651 60.5741 314.651 60.5741C314.651 60.5741 325.687 60.209 331.388 59.0386" fill="#2B2A2A"/>
<path d="M317.573 53.7222C317.573 53.7222 318.942 53.5674 322.688 53.3253C326.435 53.0832 329.939 53.9294 329.939 53.9294C329.939 53.9294 326.435 50.725 322.144 50.725C317.853 50.725 317.573 53.7222 317.573 53.7222Z" fill="#2B2A2A"/>
<path d="M305.71 76.1981C305.71 76.1981 307.424 77.4413 309.467 77.6024C311.51 77.7634 313.283 76.393 313.283 76.393L309.618 75.6678L305.71 76.1981Z" fill="#FF9E81"/>
<path d="M301.498 82.7244C301.498 82.7244 305.387 83.9768 309.232 84.0661C313.078 84.1563 317.573 82.6792 317.573 82.6792C317.573 82.6792 312.676 82.232 311.379 82.3213C310.083 82.4105 309.412 83.1942 309.412 83.1942C309.412 83.1942 308.876 82.31 307.221 82.3161C305.566 82.3213 301.498 82.7244 301.498 82.7244Z" fill="#EE876D"/>
<path d="M303.088 85.2967C303.088 85.2967 305.989 87.5779 309.77 87.5113C313.551 87.4436 315.898 85.2967 315.898 85.2967C315.898 85.2967 313.97 89.7925 309.77 89.7248C305.569 89.6582 303.088 85.2967 303.088 85.2967Z" fill="#FF9E81"/>
<path d="M321.575 71.6555C323.096 70.9925 323.787 73.5963 323.787 73.5963C323.787 73.5963 324.599 71.0364 326.085 71.7807C327.572 72.5271 324.657 77.7282 323.691 77.7018C322.725 77.6755 320.057 72.3186 321.575 71.6555Z" fill="#602B50"/>
<path d="M292.359 71.6555C293.88 70.9925 294.571 73.5963 294.571 73.5963C294.571 73.5963 295.383 71.0364 296.869 71.7807C298.356 72.5271 295.441 77.7282 294.475 77.7018C293.508 77.6755 290.841 72.3186 292.359 71.6555Z" fill="#602B50"/>
<path fill-rule="evenodd" clip-rule="evenodd" d="M418.33 88.5087C416.977 74.4015 401.535 62.9808 401.535 62.9808C418.33 64.3235 425.266 85.1453 425.266 85.1453L426.834 82.6855C426.834 73.7245 416.536 58.2747 394.824 55.1379C373.112 52.0114 366.853 50.6687 356.782 45.9626C351.641 43.5607 349.474 39.4098 346.828 34.3424C344.29 29.481 341.311 23.776 334.844 17.9626C321.637 6.10186 312.693 7.44457 312.693 7.44457C311.237 7.37687 310.008 7.81692 309.106 8.3021C308.191 7.81692 306.973 7.37687 305.519 7.44457C305.519 7.44457 296.564 6.10186 283.356 17.9626C276.897 23.7742 273.921 29.4774 271.385 34.3378C268.74 39.4073 266.573 43.56 261.431 45.9626C251.358 50.6687 245.087 52.0114 223.376 55.1379C201.676 58.2747 191.378 73.7245 191.378 82.6855L192.946 85.1453C192.946 85.1453 199.883 64.3235 216.665 62.9808C216.665 62.9808 201.225 74.4015 199.883 88.5087C198.562 102.356 212.571 108.879 213.078 109.105L213.089 109.116C213.089 109.116 212.864 103.733 215.323 99.7037C215.323 99.7037 214.025 105.076 217.691 111.576C221.367 118.066 231.88 121.428 236.584 122.321C236.584 122.321 238.376 116.057 239.493 113.145C239.493 113.145 239.369 119.634 241.219 123.449L245.978 124.566C245.978 124.566 246.43 119.86 248.448 116.723C248.448 116.723 248.911 121.44 250.016 124.566C250.016 124.566 256.942 128.369 267.645 129.836C270.584 130.241 271.616 129.236 272.925 127.959C274.168 126.747 275.662 125.291 279.277 124.566C287.948 122.831 283.402 98.81 279.74 79.4586C278.923 75.1405 278.149 71.0548 277.577 67.5012C278.332 69.2245 278.889 70.1571 278.889 70.1571C278.889 70.1571 282.576 66.6746 283.024 60.2924C283.471 53.9102 281.233 49.6554 281.233 49.6554C281.233 49.6554 283.919 48.5352 287.947 45.5124C291.977 42.4895 296.9 35.7708 296.9 35.7708C294.102 42.0412 286.94 49.0953 286.94 49.0953L288.843 49.6554C288.843 49.6554 295.445 46.6325 301.6 35.9944C304.323 31.2893 305.991 27.6848 307.008 25.1214C307.883 27.6571 309.644 31.8791 313.126 37.8972C319.28 48.5342 325.883 51.5571 325.883 51.5571L327.785 50.9981C327.785 50.9981 320.623 43.944 317.826 37.6725C317.826 37.6725 322.749 44.3912 326.778 47.4141C330.807 50.438 333.493 51.5571 333.493 51.5571C333.493 51.5571 331.255 55.8119 331.703 62.1952C332.084 67.6411 335.236 71.7426 336.153 72.8289C336.159 72.8527 336.165 72.8764 336.172 72.9002C336.832 73.0312 336.068 87.5131 335.311 101.845C334.569 115.905 333.835 129.82 334.46 129.904C353.803 132.454 368.196 124.566 368.196 124.566C369.289 121.44 369.763 116.723 369.763 116.723C371.771 119.86 372.221 124.566 372.221 124.566L376.982 123.449C378.831 119.634 378.706 113.145 378.706 113.145C379.835 116.057 381.617 122.321 381.617 122.321C386.32 121.428 396.843 118.066 400.509 111.576C404.175 105.076 402.878 99.7037 402.878 99.7037C403.735 101.092 404.265 102.65 404.591 104.083C405.223 106.813 405.122 109.116 405.122 109.116C405.122 109.116 419.671 102.616 418.33 88.5087Z" fill="url(#paint7_linear_0_175)"/>
<path d="M297.095 94.3312L293.251 106.256L287.1 126.258C287.1 126.258 275.952 130.986 268.042 129.902C257.338 128.435 250.412 124.632 250.412 124.632C249.307 121.506 248.845 116.789 248.845 116.789C246.826 119.925 246.374 124.632 246.374 124.632L241.616 123.514C239.765 119.7 239.889 113.211 239.889 113.211C238.773 116.123 236.98 122.386 236.98 122.386C232.277 121.495 221.764 118.131 218.088 111.642C214.422 105.141 215.719 99.7694 215.719 99.7694C213.26 103.799 213.486 109.182 213.486 109.182L213.475 109.17C213.204 108.73 206.832 98.201 213.486 87.3896C220.275 76.3638 240.284 79.9067 240.284 79.9067C240.284 79.9067 229.299 82.2434 226.4 87.6829L228.013 89.6011C228.013 89.6011 233.495 83.5071 248.958 82.1869C264.421 80.8771 276.987 73.2889 279.796 68.9439C287.235 88.4513 297.095 94.3312 297.095 94.3312Z" fill="url(#paint8_linear_0_175)"/>
<path d="M404.988 104.148C404.662 102.715 404.131 101.157 403.274 99.7695C403.274 99.7695 404.572 105.141 400.906 111.643C397.239 118.131 386.717 121.495 382.014 122.386C382.014 122.386 380.232 116.123 379.103 113.211C379.103 113.211 379.227 119.7 377.378 123.515L372.618 124.632C372.618 124.632 372.167 119.926 370.159 116.789C370.159 116.789 369.685 121.506 368.592 124.632C368.592 124.632 355.528 132.028 332.847 130.104L322.467 93.562C322.467 93.562 329.387 90.2341 336.481 72.7748C339.278 77.1199 351.335 83.4283 366.81 84.7371C382.273 86.0583 387.754 92.1523 387.754 92.1523L389.368 90.2341C386.469 84.7935 375.484 82.4579 375.484 82.4579C375.484 82.4579 395.491 78.9139 402.282 89.9397C405.463 95.0972 405.665 100.187 404.988 104.148Z" fill="url(#paint9_linear_0_175)"/>
<defs>
<linearGradient id="paint0_linear_0_175" x1="30.8945" y1="380.131" x2="119.886" y2="380.131" gradientUnits="userSpaceOnUse">
<stop stop-color="#001226"/>
<stop offset="0.665961" stop-color="#6D2E55"/>
<stop offset="1" stop-color="#6D2E55"/>
</linearGradient>
<linearGradient id="paint1_linear_0_175" x1="292.093" y1="428.442" x2="292.093" y2="303.885" gradientUnits="userSpaceOnUse">
<stop stop-color="#001226"/>
<stop offset="0.665961" stop-color="#6D2E55"/>
<stop offset="1" stop-color="#6D2E55"/>
</linearGradient>
<linearGradient id="paint2_linear_0_175" x1="264.869" y1="404.284" x2="264.869" y2="321.201" gradientUnits="userSpaceOnUse">
<stop stop-color="#6D2E55"/>
<stop offset="0.348958" stop-color="#260419"/>
<stop offset="0.536458" stop-color="#001226"/>
</linearGradient>
<linearGradient id="paint3_linear_0_175" x1="325.847" y1="428.444" x2="325.847" y2="303.871" gradientUnits="userSpaceOnUse">
<stop stop-color="#001226"/>
<stop offset="0.665961" stop-color="#6D2E55"/>
<stop offset="1" stop-color="#6D2E55"/>
</linearGradient>
<linearGradient id="paint4_linear_0_175" x1="309.155" y1="354.316" x2="309.155" y2="269.586" gradientUnits="userSpaceOnUse">
<stop stop-color="#001226"/>
<stop offset="0.665961" stop-color="#6D2E55"/>
<stop offset="1" stop-color="#6D2E55"/>
</linearGradient>
<linearGradient id="paint5_linear_0_175" x1="321.336" y1="380.554" x2="321.336" y2="293.88" gradientUnits="userSpaceOnUse">
<stop stop-color="#6D2E55"/>
<stop offset="0.348958" stop-color="#260419"/>
<stop offset="0.536458" stop-color="#001226"/>
</linearGradient>
<linearGradient id="paint6_linear_0_175" x1="313.106" y1="-29.4184" x2="313.106" y2="54.4368" gradientUnits="userSpaceOnUse">
<stop stop-color="#6D2E55"/>
<stop offset="0.334039" stop-color="#6D2E55"/>
<stop offset="1" stop-color="#001226"/>
</linearGradient>
<linearGradient id="paint7_linear_0_175" x1="312.337" y1="-29.4182" x2="312.337" y2="54.437" gradientUnits="userSpaceOnUse">
<stop stop-color="#6D2E55"/>
<stop offset="0.334039" stop-color="#6D2E55"/>
<stop offset="1" stop-color="#001226"/>
</linearGradient>
<linearGradient id="paint8_linear_0_175" x1="305.972" y1="99.8628" x2="210.467" y2="99.8628" gradientUnits="userSpaceOnUse">
<stop stop-color="#6D2E55"/>
<stop offset="0.334039" stop-color="#6D2E55"/>
<stop offset="1" stop-color="#001226"/>
</linearGradient>
<linearGradient id="paint9_linear_0_175" x1="405.304" y1="101.426" x2="309.798" y2="101.426" gradientUnits="userSpaceOnUse">
<stop stop-color="#6D2E55"/>
<stop offset="0.334039" stop-color="#6D2E55"/>
<stop offset="1" stop-color="#001226"/>
</linearGradient>
<clipPath id="clip0_0_175">
<rect width="630.224" height="406.921" fill="white"/>
</clipPath>
</defs>
</svg>
