<svg width="131" height="131" viewBox="0 0 131 131" fill="none" xmlns="http://www.w3.org/2000/svg">
<g clip-path="url(#clip0_48_52)">
<path d="M100.297 0H30.7031C13.7463 0 0 13.7463 0 30.7031V100.297C0 117.254 13.7463 131 30.7031 131H100.297C117.254 131 131 117.254 131 100.297V30.7031C131 13.7463 117.254 0 100.297 0Z" fill="url(#paint0_radial_48_52)"/>
<path d="M100.297 0H30.7031C13.7463 0 0 13.7463 0 30.7031V100.297C0 117.254 13.7463 131 30.7031 131H100.297C117.254 131 131 117.254 131 100.297V30.7031C131 13.7463 117.254 0 100.297 0Z" fill="url(#paint1_radial_48_52)"/>
<path d="M65.5046 14.3281C51.6073 14.3281 49.8629 14.389 44.4049 14.6372C38.9571 14.8869 35.2385 15.7492 31.985 17.0146C28.6189 18.3216 25.764 20.0701 22.9199 22.9153C20.0732 25.7599 18.3246 28.6148 17.0136 31.9794C15.7446 35.2339 14.8813 38.9541 14.6362 44.3993C14.3921 49.8578 14.3281 51.6027 14.3281 65.5005C14.3281 79.3983 14.3895 81.1371 14.6372 86.5951C14.8879 92.0429 15.7502 95.7615 17.0146 99.015C18.3226 102.381 20.0711 105.236 22.9163 108.08C25.7599 110.927 28.6148 112.679 31.9783 113.986C35.2344 115.252 38.9536 116.114 44.4003 116.364C49.8588 116.612 51.6017 116.673 65.4985 116.673C79.3973 116.673 81.1361 116.612 86.5941 116.364C92.0418 116.114 95.7646 115.252 99.0206 113.986C102.385 112.679 105.236 110.927 108.079 108.08C110.926 105.236 112.674 102.381 113.985 99.0166C115.243 95.7615 116.107 92.0418 116.363 86.5961C116.608 81.1381 116.672 79.3983 116.672 65.5005C116.672 51.6027 116.608 49.8588 116.363 44.4003C116.107 38.9525 115.243 35.2344 113.985 31.9809C112.674 28.6148 110.926 25.7599 108.079 22.9153C105.233 20.0691 102.386 18.3206 99.0176 17.0152C95.7554 15.7492 92.0347 14.8864 86.5869 14.6372C81.1284 14.389 79.3906 14.3281 65.4887 14.3281H65.5046ZM60.914 23.5498C62.2767 23.5478 63.797 23.5498 65.5046 23.5498C79.168 23.5498 80.7871 23.5989 86.1826 23.844C91.1719 24.0723 93.8799 24.9059 95.6837 25.6064C98.0719 26.5336 99.7744 27.6425 101.564 29.4341C103.355 31.2251 104.464 32.9306 105.394 35.3188C106.094 37.1201 106.929 39.8281 107.156 44.8174C107.401 50.2119 107.454 51.832 107.454 65.4887C107.454 79.1455 107.401 80.7661 107.156 86.1601C106.928 91.1494 106.094 93.8574 105.394 95.6592C104.466 98.0474 103.355 99.7478 101.564 101.538C99.7734 103.329 98.0729 104.437 95.6837 105.365C93.882 106.069 91.1719 106.9 86.1826 107.128C80.7881 107.373 79.168 107.427 65.5046 107.427C51.8407 107.427 50.2211 107.373 44.8271 107.128C39.8378 106.898 37.1298 106.064 35.3245 105.364C32.9368 104.436 31.2307 103.328 29.4397 101.537C27.6487 99.7458 26.5403 98.0443 25.6105 95.6551C24.91 93.8533 24.0753 91.1453 23.8481 86.156C23.603 80.7615 23.5539 79.1414 23.5539 65.476C23.5539 51.811 23.603 50.1991 23.8481 44.8046C24.0764 39.8153 24.91 37.1073 25.6105 35.3035C26.5382 32.9153 27.6487 31.2097 29.4402 29.4187C31.2312 27.6277 32.9368 26.5188 35.325 25.5895C37.1288 24.8859 39.8378 24.0544 44.8271 23.8251C49.5477 23.6117 51.3771 23.5478 60.914 23.537V23.5498ZM92.8202 32.0464C89.43 32.0464 86.6795 34.7943 86.6795 38.185C86.6795 41.5751 89.43 44.3256 92.8202 44.3256C96.2103 44.3256 98.9608 41.5751 98.9608 38.185C98.9608 34.7948 96.2103 32.0443 92.8202 32.0443V32.0464ZM65.5046 39.2212C50.9923 39.2212 39.2258 50.9877 39.2258 65.5005C39.2258 80.0134 50.9923 91.7742 65.5046 91.7742C80.0175 91.7742 91.7798 80.0134 91.7798 65.5005C91.7798 50.9882 80.0164 39.2212 65.5036 39.2212H65.5046ZM65.5046 48.4429C74.9248 48.4429 82.5622 56.0793 82.5622 65.5005C82.5622 74.9207 74.9248 82.5582 65.5046 82.5582C56.0839 82.5582 48.4475 74.9207 48.4475 65.5005C48.4475 56.0793 56.0839 48.4429 65.5046 48.4429Z" fill="white"/>
</g>
<defs>
<radialGradient id="paint0_radial_48_52" cx="0" cy="0" r="1" gradientUnits="userSpaceOnUse" gradientTransform="translate(34.7969 141.09) rotate(-90) scale(129.831 120.753)">
<stop stop-color="#FFDD55"/>
<stop offset="0.1" stop-color="#FFDD55"/>
<stop offset="0.5" stop-color="#FF543E"/>
<stop offset="1" stop-color="#C837AB"/>
</radialGradient>
<radialGradient id="paint1_radial_48_52" cx="0" cy="0" r="1" gradientUnits="userSpaceOnUse" gradientTransform="translate(-21.943 9.4366) rotate(78.681) scale(58.035 239.222)">
<stop stop-color="#3771C8"/>
<stop offset="0.128" stop-color="#3771C8"/>
<stop offset="1" stop-color="#6600FF" stop-opacity="0"/>
</radialGradient>
<clipPath id="clip0_48_52">
<rect width="131" height="131" fill="white"/>
</clipPath>
</defs>
</svg>
