<svg width="89" height="55" viewBox="0 0 89 55" fill="none" xmlns="http://www.w3.org/2000/svg">
<path d="M0 7.21006C0 3.22806 3.22806 0 7.21006 0H18.9264V54.0755H7.21006C3.22806 54.0755 0 50.8474 0 46.8654V7.21006Z" fill="#F4E9FF"/>
<path d="M20.08 37.1945C20.8731 37.0983 21.522 36.7979 22.0267 36.2932C22.5314 35.7885 22.7838 34.8993 22.7838 33.6255V31.6067C21.5821 32.2075 20.3204 32.5079 18.9985 32.5079C17.3642 32.5079 15.9222 32.1955 14.6725 31.5706C13.4227 30.9217 12.4494 30.0084 11.7524 28.8308C11.0795 27.6291 10.743 26.2352 10.743 24.649V14.3025H14.7085V24.2885C14.7085 25.7785 15.069 26.8721 15.79 27.569C16.511 28.266 17.5805 28.6145 18.9985 28.6145C19.7916 28.6145 20.4405 28.5304 20.9452 28.3621C21.474 28.1939 21.8345 28.0257 22.0267 27.8574C22.243 27.6892 22.4954 27.4609 22.7838 27.1725V14.3025H26.7493V33.9139C26.7493 35.8125 26.3408 37.2906 25.5236 38.3481C24.7065 39.4055 23.3125 40.0304 21.3418 40.2227L20.08 37.1945ZM44.9863 32.9045C44.9863 34.9233 44.4335 36.5936 43.328 37.9155C42.2224 39.2373 40.5521 39.8982 38.317 39.8982C36.0818 39.8982 34.3875 39.2373 33.2339 37.9155C32.1043 36.5696 31.5395 34.8993 31.5395 32.9045V28.1458C31.5395 25.8626 32.1163 24.1202 33.2699 22.9185C34.4476 21.6928 36.1299 21.08 38.317 21.08C40.4079 21.08 42.0422 21.7169 43.2198 22.9906C44.3975 24.2404 44.9863 25.9588 44.9863 28.1458V32.9045ZM41.0568 28.1458C41.0568 26.8721 40.7924 26.0429 40.2637 25.6584C39.7349 25.2738 39.086 25.0816 38.317 25.0816C36.4424 25.0816 35.505 26.103 35.505 28.1458V33.265C35.505 34.2263 35.7694 34.9233 36.2981 35.3559C36.8269 35.7885 37.4998 36.0048 38.317 36.0048C39.1101 36.0048 39.759 35.7765 40.2637 35.3198C40.7924 34.8632 41.0568 34.1783 41.0568 33.265V28.1458ZM55.4324 44.008C56.2496 44.008 56.8864 43.7676 57.3431 43.287C57.8238 42.8303 58.0641 42.1334 58.0641 41.196V39.2493C57.8718 39.3935 57.5233 39.5497 57.0186 39.718C56.538 39.8862 55.9131 39.9703 55.144 39.9703C53.0291 39.9703 51.3828 39.3935 50.2051 38.2399C49.0275 37.0863 48.4387 35.404 48.4387 33.1929V27.8214C48.4387 25.7064 49.0515 24.0721 50.2772 22.9185C51.527 21.7409 53.1973 21.1521 55.2882 21.1521C55.9612 21.1521 56.562 21.2362 57.0907 21.4044C57.6195 21.5486 57.9559 21.7048 58.1001 21.8731L58.8572 21.4765H62.0296V41.845C62.0296 45.3538 60.143 47.1083 56.3697 47.1083L55.4324 44.008ZM58.0641 28.1819C58.0641 27.2205 57.8478 26.4635 57.4152 25.9107C56.9826 25.3579 56.2255 25.0816 55.144 25.0816C54.1586 25.0816 53.4496 25.37 53.017 25.9468C52.6085 26.4995 52.4042 27.1845 52.4042 28.0016V32.6521C52.4042 34.9834 53.3175 36.149 55.144 36.149C56.3217 36.149 57.1027 35.7645 57.4873 34.9954C57.8718 34.2263 58.0641 32.9646 58.0641 31.2101V28.1819ZM68.9431 18.1959C68.3663 18.1959 67.8616 17.9796 67.429 17.547C66.9964 17.1144 66.7801 16.6097 66.7801 16.0329C66.7801 15.4802 66.9964 14.9995 67.429 14.5909C67.8616 14.1583 68.3663 13.942 68.9431 13.942C69.4959 13.942 69.9766 14.1583 70.3851 14.5909C70.8177 14.9995 71.034 15.4802 71.034 16.0329C71.034 16.6097 70.8177 17.1144 70.3851 17.547C69.9766 17.9796 69.4959 18.1959 68.9431 18.1959ZM66.8522 21.4765H70.8177V39.5377H66.8522V21.4765ZM79.1946 34.5628C79.1946 34.9954 79.4109 35.404 79.8435 35.7885C80.3002 36.173 80.9851 36.3653 81.8984 36.3653C82.6915 36.3653 83.3044 36.173 83.737 35.7885C84.1696 35.3799 84.3859 34.9113 84.3859 34.3825C84.3859 33.6375 84.1095 33.0847 83.5567 32.7242C83.028 32.3637 82.1628 31.9672 80.9611 31.5346C79.9277 31.1981 79.0745 30.8616 78.4015 30.5252C77.7286 30.1887 77.1278 29.684 76.599 29.011C76.0703 28.3381 75.7578 27.4609 75.6617 26.3794C75.5896 25.5622 75.7458 24.7451 76.1304 23.9279C76.5389 23.0868 77.2119 22.4018 78.1492 21.8731C79.1105 21.3203 80.3362 21.0439 81.8263 21.0439C82.5954 21.0439 83.2683 21.128 83.8451 21.2963C84.446 21.4405 84.9146 21.5967 85.2511 21.7649C85.5876 21.9332 85.7918 22.0413 85.8639 22.0894L84.7103 25.7665C84.6623 25.7184 84.5301 25.6343 84.3138 25.5142C84.1215 25.37 83.8091 25.2378 83.3765 25.1176C82.9439 24.9974 82.4271 24.9374 81.8263 24.9374C80.5285 24.9374 79.8796 25.2979 79.8796 26.0189C79.8796 26.1631 79.9036 26.3073 79.9517 26.4515C80.0238 26.7879 80.2761 27.0763 80.7087 27.3167C81.1414 27.533 81.7782 27.7973 82.6194 28.1098C83.7971 28.5424 84.7824 28.975 85.5755 29.4076C86.3927 29.8162 87.0897 30.441 87.6665 31.2822C88.2673 32.0994 88.5677 33.1568 88.5677 34.4546C88.5677 35.44 88.3274 36.3653 87.8467 37.2305C87.366 38.0717 86.621 38.7566 85.6116 39.2854C84.6262 39.8141 83.3885 40.0785 81.8984 40.0785C80.5285 40.0785 79.3388 39.8502 78.3294 39.3935C77.3441 38.9129 76.587 38.288 76.0583 37.5189C75.5536 36.7498 75.2772 35.8966 75.2291 34.9593L79.1946 34.5628Z" fill="#604F7C"/>
</svg>
