<svg width="407" height="103" viewBox="0 0 407 103" fill="none" xmlns="http://www.w3.org/2000/svg">
<g clip-path="url(#clip0_348_359)">
<path d="M217.042 40.7302C213.563 40.7302 211.055 41.8709 208.513 43.0331V69.331C210.948 69.563 212.344 69.563 214.655 69.563C223.005 69.563 224.15 65.739 224.15 60.3999V47.8399C224.15 43.897 222.841 40.7302 217.042 40.7302ZM161.588 39.295C155.794 39.295 154.472 42.4754 154.472 46.4145V48.6277H168.695V46.4145C168.695 42.4754 167.373 39.295 161.588 39.295ZM54.1617 66.6672C54.1617 69.7834 55.632 71.4019 58.8768 71.4019C62.3576 71.4019 64.4187 70.267 66.9596 69.1009V62.8628H59.3487C55.7451 62.8628 54.1617 63.5336 54.1617 66.6672ZM270.985 40.7302C265.182 40.7302 263.171 43.897 263.171 47.8399V62.229C263.171 66.1817 265.182 69.3583 270.985 69.3583C276.773 69.3583 278.799 66.1817 278.799 62.229V47.8399C278.797 43.897 276.771 40.7302 270.985 40.7302ZM25.7228 82.8016H8.66411V41.5121H0.140625V27.2849H8.66606V18.7399C8.66606 7.13155 13.4767 0.230469 27.1502 0.230469H38.5343V14.4616H31.4188C26.0952 14.4616 25.7442 16.4506 25.7442 20.1615L25.7228 27.2829H38.6123L37.105 41.5102H25.7228V82.8016ZM84.0222 82.9089H69.8047L69.1904 79.3131C62.6988 82.9089 56.9054 83.4919 53.0833 83.4919C42.6567 83.4919 37.1069 76.5265 37.1069 66.8934C37.1069 55.5288 43.5829 51.4728 55.1679 51.4728H66.9596V49.0158C66.9596 43.2145 66.2947 41.5121 57.3734 41.5121H42.7873L44.2128 27.2849H60.156C79.7302 27.2849 84.0222 33.4684 84.0222 49.1308V82.9089ZM132.369 42.5554C123.522 41.0383 120.981 40.7048 116.724 40.7048C109.078 40.7048 106.767 42.3916 106.767 48.8851V61.1682C106.767 67.6618 109.078 69.3563 116.724 69.3563C120.981 69.3563 123.522 69.017 132.369 67.494V81.3723C124.619 83.1097 119.571 83.566 115.304 83.566C96.9897 83.566 89.7104 73.9349 89.7104 60.0216V50.0551C89.7104 36.1301 96.9897 26.4815 115.304 26.4815C119.571 26.4815 124.619 26.9397 132.369 28.685V42.5554ZM185.752 60.0216H154.47V61.1682C154.47 67.6618 156.783 69.3563 164.427 69.3563C171.299 69.3563 175.493 69.017 184.325 67.494V81.3723C175.807 83.1097 171.369 83.566 163.013 83.566C144.697 83.566 137.413 73.9349 137.413 60.0216V48.6258C137.413 36.4519 142.817 26.4815 161.586 26.4815C180.355 26.4815 185.752 36.3368 185.752 48.6258V60.0216ZM241.205 60.2849C241.205 73.7321 237.361 83.5407 214.078 83.5407C205.67 83.5407 200.738 82.8016 191.458 81.3742V4.50489L208.511 1.65983V28.5485C212.196 27.1796 216.966 26.4834 221.307 26.4834C238.361 26.4834 241.203 34.1294 241.203 46.4164V60.2849H241.205ZM295.869 60.5774C295.869 72.178 291.08 83.4295 271.042 83.4295C250.994 83.4295 246.115 72.178 246.115 60.5774V49.3765C246.115 37.7701 250.994 26.5166 271.042 26.5166C291.08 26.5166 295.869 37.7701 295.869 49.3765V60.5774ZM350.497 60.5774C350.497 72.178 345.702 83.4295 325.667 83.4295C305.619 83.4295 300.74 72.178 300.74 60.5774V49.3765C300.74 37.7701 305.619 26.5166 325.667 26.5166C345.702 26.5166 350.497 37.7701 350.497 49.3765V60.5774ZM406.557 82.8016H388.073L372.44 56.7047V82.8016H355.381V4.50294L372.44 1.65788V52.0636L388.073 27.2849H406.557L389.491 54.3256L406.557 82.8016ZM325.609 40.7302C319.815 40.7302 317.805 43.897 317.805 47.8399V62.229C317.805 66.1817 319.815 69.3583 325.609 69.3583C331.394 69.3583 333.442 66.1817 333.442 62.229V47.8399C333.442 43.897 331.394 40.7302 325.609 40.7302ZM416.294 73.0633C419.166 73.0633 421.454 75.4052 421.454 78.3302C421.454 81.3001 419.164 83.6167 416.272 83.6167C413.394 83.6167 411.06 81.3001 411.06 78.3302C411.06 75.4052 413.394 73.0633 416.272 73.0633H416.294ZM416.272 73.8823C413.958 73.8823 412.064 75.8732 412.064 78.3302C412.064 80.8321 413.96 82.7977 416.294 82.7977C418.63 82.8211 420.496 80.8321 420.496 78.3536C420.496 75.8752 418.63 73.8823 416.294 73.8823H416.272ZM415.292 81.3957H414.356V75.5183C414.847 75.4501 415.315 75.3818 416.017 75.3818C416.906 75.3818 417.487 75.569 417.844 75.8245C418.189 76.0838 418.374 76.4797 418.374 77.0393C418.374 77.8155 417.864 78.2815 417.234 78.4706V78.5155C417.747 78.611 418.096 79.0752 418.215 79.939C418.351 80.8536 418.493 81.2026 418.585 81.3937H417.604C417.466 81.2026 417.323 80.6664 417.206 79.8922C417.07 79.1454 416.692 78.8645 415.943 78.8645H415.294V81.3957H415.292ZM415.292 78.143H415.97C416.738 78.143 417.392 77.8603 417.392 77.1329C417.392 76.6181 417.021 76.1053 415.97 76.1053C415.664 76.1053 415.451 76.1287 415.292 76.1501V78.143Z" fill="#3B5998"/>
</g>
<defs>
<clipPath id="clip0_348_359">
<rect width="407" height="103" fill="white"/>
</clipPath>
</defs>
</svg>
