<svg width="433" height="180" viewBox="0 0 433 180" fill="none" xmlns="http://www.w3.org/2000/svg">
<g clip-path="url(#clip0_348_363)">
<path d="M72.4487 145.896C68.9869 144.708 66.6206 143.097 63.7317 139.967C57.6635 133.391 57.33 131.429 57.33 102.229C57.33 74.0935 57.762 71.4439 63.4155 64.8375C71.342 55.5779 89.6701 55.8518 97.4972 65.3463C102.695 71.6529 103.118 74.4607 103.118 102.661C103.118 124.979 102.924 128.699 101.563 132.604C99.4756 138.584 93.3253 144.37 87.0852 146.223C81.2002 147.971 78.3017 147.907 72.4487 145.895V145.896ZM83.2088 132.362C86.7423 131.005 87.1353 128.037 87.1353 102.745C87.1353 86.6048 86.8105 77.8395 86.1591 76.4106C83.9734 71.6123 76.4745 71.6123 74.2888 76.4106C73.6374 77.8395 73.3126 86.6048 73.3126 102.745C73.3126 130.965 73.6728 132.602 79.9371 132.831C80.9678 132.868 82.4399 132.656 83.2088 132.362ZM121.59 145.422C120.346 144.747 118.596 142.72 117.703 140.921C116.195 137.887 116.059 134.784 115.82 98.1253L115.564 58.6008H132.059V94.7793C132.059 125.745 132.244 131.113 133.344 132.025C135.258 133.613 138.369 132.451 141.886 128.831L145.018 125.606V58.6017H161.433V145.858H145.018V137.072L140.915 140.715C138.658 142.718 135.56 144.889 134.031 145.54C130.466 147.054 124.49 146.997 121.59 145.422ZM21.466 121.882L21.453 97.9084L10.7775 63.7835L0.102051 29.6585L8.77583 29.4106C13.8531 29.2654 17.6682 29.5177 17.9775 30.0188C18.2686 30.4896 21.0219 40.4161 24.0958 52.0773C27.1713 63.7385 29.8823 73.2814 30.1234 73.2832C30.3653 73.2849 32.6305 65.4146 35.1583 55.7922C37.687 46.1707 40.3349 36.2572 41.0442 33.7622L42.334 29.2266H51.4363C58.8522 29.2266 60.454 29.4495 60.0782 30.4274C59.825 31.0875 54.9231 46.6216 49.1867 64.9472L38.7565 98.2661V145.856H21.4781L21.466 121.882Z" fill="#010101"/>
<path d="M246.209 179.508C204.002 178.099 192.574 175.096 184.803 163.363C181.664 158.624 178.14 148.017 177.018 139.927C173.078 111.533 174.046 52.3252 178.781 31.9185C183.07 13.4384 193.154 4.38532 211.551 2.49937C229.622 0.64626 276.732 -0.362802 322.554 0.120995C372.024 0.642804 395.315 1.70111 403.741 3.80994C420.225 7.93345 428.221 20.0759 431.009 45.2091C431.536 49.9607 432.184 66.5497 432.449 82.0727C433.515 144.737 428.8 164.672 410.833 173.475C404.049 176.799 399.611 177.563 380.436 178.708C359.61 179.95 274.623 180.457 246.209 179.508ZM266.973 145.352C268.429 144.598 271.325 142.412 273.409 140.489L277.198 136.998V145.857H293.613V59.4647H277.198V125.351L273.425 129.124C269.375 133.175 267.737 133.68 265.598 131.541C264.407 130.35 264.239 125.817 264.239 94.8242V59.4638H247.825V96.8881C247.825 138.172 248.164 141.439 252.808 144.905C255.748 147.098 263.144 147.332 266.973 145.352ZM345.979 145.073C347.486 144.154 349.575 141.592 350.73 139.245C352.757 135.13 352.798 134.563 353.082 106.565C353.393 75.868 352.899 70.3251 349.293 64.1031C347.289 60.6457 342.512 57.736 338.836 57.736C335.295 57.736 330.222 60.1178 326.355 63.5951L322.123 67.399V30.0905H306.573V145.856H322.123V137.88L325.67 141.085C327.62 142.846 330.439 144.82 331.933 145.47C335.944 147.217 342.781 147.024 345.979 145.073ZM325.362 130.981L322.122 129.103V76.1185L325.956 74.0849C329.067 72.4348 330.248 72.2127 332.22 72.9047C336.48 74.4011 336.939 77.7012 336.643 104.68L336.377 128.73L333.953 130.813C330.985 133.365 329.527 133.394 325.362 130.981ZM398.147 144.92C406.496 141.136 410.256 134.735 410.914 123.186L411.346 115.62H394.691V120.748C394.691 127.029 393.717 129.772 390.814 131.675C387.543 133.817 383.476 132.456 381.519 128.56C380.336 126.21 380.007 123.345 380.007 115.403L380.004 105.252H411.105V92.5668C411.105 76.6015 409.857 71.513 404.474 65.526C399.717 60.2362 394.621 58.1299 386.916 58.2716C380.529 58.3883 376.261 59.9805 371.778 63.9165C364.452 70.3501 363.341 76.0823 363.779 105.253C364.064 124.206 364.378 128.824 365.608 132.083C367.709 137.649 371.504 141.886 376.716 144.484C382.591 147.409 392.224 147.606 398.147 144.92ZM380.005 85.785C380.005 75.0395 382.762 71.373 389.699 72.897C393.182 73.6624 394.693 77.5604 394.693 85.7858V92.2929H380.006V85.7858L380.005 85.785ZM231.41 96.1814V46.5059H250.417V30.0913H195.99V46.5059H214.132V145.857H231.41V96.1814Z" fill="#D02726"/>
</g>
<defs>
<clipPath id="clip0_348_363">
<rect width="432.692" height="180" fill="white"/>
</clipPath>
</defs>
</svg>
