<svg width="408" height="147" viewBox="0 0 408 147" fill="none" xmlns="http://www.w3.org/2000/svg">
<g clip-path="url(#clip0_348_352)">
<path d="M40.1921 16.4553C32.5598 20.4148 24.1692 31.5867 21.5193 45.6205C18.1632 63.3961 32.1292 70.9132 33.2747 68.4524C34.6229 65.5554 30.7722 64.5761 29.9795 55.3528C28.9551 43.4402 33.4272 30.1293 39.056 24.2888C40.1023 23.2037 40.0521 24.7139 40.0521 27.5075C40.0521 32.5038 39.8293 77.3484 39.8293 86.7084C39.8293 99.3726 39.4069 103.372 38.648 107.323C37.8791 111.327 36.6439 114.033 37.5798 115.076C38.6261 116.242 43.0925 113.469 45.6784 108.999C48.779 103.639 49.8643 97.2017 50.0595 90.2108C50.2948 81.7835 50.2848 68.4112 50.2948 60.7837C50.3042 53.7882 50.3896 33.3037 50.1957 20.9892C50.1486 17.9687 43.3843 14.7997 40.1921 16.4553ZM392.212 82.986C391.104 82.986 390.6 84.3991 390.182 86.7783C388.731 95.0509 387.208 96.918 385.243 96.918C383.047 96.918 381.074 92.8217 380.567 84.6229C380.169 78.1762 380.233 66.3063 380.742 54.5002C380.847 52.0743 380.306 49.674 375.052 47.3103C372.791 46.2928 369.505 44.7966 367.869 49.688C363.246 63.5073 361.436 74.4794 361.011 78.9348C360.989 79.1656 360.761 79.2123 360.72 78.6736C360.449 75.1043 359.843 68.6171 359.767 54.9891C359.753 52.33 359.298 50.0665 356.928 48.2135C355.39 47.0103 350.72 44.8844 349.039 47.4144C347.583 49.4836 345.895 55.052 344.142 61.6527C342.717 67.0167 341.725 70.6459 341.725 70.6459C341.725 70.6459 341.743 56.1705 341.761 50.6798C341.768 48.6084 340.621 47.9173 340.275 47.793C338.718 47.2333 335.65 46.2983 334.348 46.2983C332.74 46.2983 332.347 47.4106 332.347 49.0312C332.347 49.2434 332.093 68.0894 332.093 81.2674C332.093 81.8395 332.094 82.4644 332.096 83.1282C331.207 89.1848 328.325 97.4069 325.19 97.4069C322.052 97.4069 320.572 93.9697 320.572 78.2593C320.572 69.0952 320.794 65.1093 320.903 58.4814C320.967 54.6634 321.089 51.7307 321.082 51.0661C321.059 49.0258 318.21 47.9974 316.884 47.6165C315.552 47.2341 314.395 47.0849 313.491 47.1486C312.212 47.238 311.307 48.2772 311.307 49.7067C311.307 50.4731 311.314 51.9297 311.314 51.9297C309.667 48.7234 307.016 46.4918 305.253 45.8451C300.505 44.0993 295.549 45.6469 291.812 52.1232C288.841 57.2696 287.05 63.0992 286.345 71.4737C285.83 77.5955 285.998 83.8045 286.914 89.055C285.807 94.9794 283.753 97.4069 281.504 97.4069C278.238 97.4069 275.87 90.8062 276.145 79.3895C276.327 71.8802 277.54 66.611 278.866 58.9874C279.432 55.7368 278.972 54.0361 277.82 52.4054C276.763 50.9091 274.511 50.1458 271.273 51.0856C268.967 51.7548 265.67 52.4761 262.654 53.0295C262.654 53.0295 262.836 52.1302 262.985 50.5446C263.77 42.2292 256.473 42.9039 254.145 45.5599C252.756 47.1455 251.81 49.0156 251.451 52.3782C250.881 57.7134 254.395 60.2311 254.395 60.2311C253.242 66.768 250.416 75.3057 247.498 81.4788C245.936 84.7862 244.739 87.2369 243.196 89.8424C243.191 88.8739 243.186 87.9054 243.184 86.9369C243.148 73.1953 243.296 62.3802 243.361 58.4822C243.425 54.6642 243.549 51.81 243.541 51.1454C243.524 49.653 242.82 49.0887 241.357 48.3759C240.063 47.7448 238.532 47.308 236.945 47.1556C234.942 46.9628 233.734 48.278 233.766 49.8341C233.773 50.1279 233.773 51.932 233.773 51.932C232.125 48.7257 229.475 46.4941 227.712 45.8474C222.963 44.1017 218.008 45.6492 214.27 52.1256C211.3 57.2719 209.355 64.4937 208.804 71.4115C208.291 77.859 208.385 83.3381 209.085 87.9536C208.33 92.5753 206.159 97.4084 203.704 97.4084C200.566 97.4084 198.78 93.9713 198.78 78.2609C198.78 69.0967 199.002 65.1116 199.111 58.4829C199.175 54.6649 199.297 51.7323 199.29 51.0677C199.267 49.0273 196.418 47.999 195.092 47.6181C193.705 47.2201 192.507 47.0748 191.588 47.1587C190.374 47.2707 189.522 48.6153 189.522 49.6188V51.932C187.874 48.7257 185.224 46.4941 183.461 45.8474C178.712 44.1017 173.784 45.6741 170.019 52.1256C167.564 56.3322 165.576 60.9959 164.553 71.3198C164.257 74.303 164.127 77.0973 164.144 79.7082C163.164 87.1234 158.841 95.6697 155.302 95.6697C153.232 95.6697 151.261 90.6982 151.261 80.1015C151.261 65.986 151.967 45.8894 152.086 43.9524C152.086 43.9524 156.555 43.8584 157.421 43.8459C159.651 43.8156 161.67 43.8809 164.639 43.6928C166.128 43.5988 167.563 36.9794 166.026 36.1602C165.33 35.7894 160.405 35.4645 158.454 35.4132C156.813 35.3674 152.243 34.9484 152.243 34.9484C152.243 34.9484 152.653 21.6087 152.749 20.1995C152.83 19.0242 151.602 18.4203 150.899 18.0526C149.187 17.1572 147.657 16.7274 145.842 16.2641C143.336 15.6236 142.198 16.2501 141.976 18.8711C141.642 22.8469 141.468 34.4952 141.468 34.4952C139.628 34.4952 133.345 34.0499 131.504 34.0499C129.794 34.0499 127.949 43.1557 130.313 43.2676C133.033 43.3982 137.772 43.5109 140.914 43.6283C140.914 43.6283 140.774 64.0568 140.774 70.3637C140.774 71.0345 140.776 71.6804 140.78 72.3077C139.051 83.4694 132.959 89.4988 132.959 89.4988C134.267 82.1146 131.595 76.5695 126.783 71.8755C125.009 70.1453 121.509 66.8714 117.593 63.2827C117.593 63.2827 119.861 60.514 121.873 54.9432C123.298 50.9977 123.36 46.4825 119.861 45.4868C114.08 43.8413 109.313 49.098 107.892 54.7108C106.79 59.0597 107.378 62.2854 109.536 65.6378C109.693 65.8827 109.864 66.1322 110.04 66.384C108.735 69.4986 106.943 73.692 105.424 76.9442C101.21 85.9731 98.0269 93.1147 95.6205 93.1147C93.6973 93.1147 93.7237 85.8643 93.7237 79.0755C93.7237 73.2233 94.0727 64.4245 94.3513 55.3147C94.4436 52.302 93.2266 50.5858 91.1873 49.0312C89.9483 48.0868 87.304 46.2299 85.7731 46.2299C83.4809 46.2299 76.8673 46.6162 70.6184 69.0011C69.8307 71.8227 68.2835 76.9636 68.2835 76.9636L68.4165 50.0448C68.4165 49.4136 68.1448 48.8027 67.5234 48.3853C66.4702 47.6779 63.6576 46.2299 61.1571 46.2299C59.9658 46.2299 59.3708 46.9162 59.3708 48.2842L59.1523 90.3997C59.1523 93.5998 59.2195 97.333 59.4756 98.9653C59.7298 100.601 60.1421 101.93 60.6531 102.721C61.1627 103.511 61.7527 104.113 62.7256 104.362C63.6307 104.593 68.5873 105.381 68.8452 103.035C69.154 100.224 69.1653 97.183 71.7682 85.8425C75.8204 68.1865 81.1034 59.5719 83.5876 56.5125C84.0214 55.9778 84.5172 55.9459 84.4933 56.8211C84.3879 60.6912 84.0151 70.3645 83.7634 78.5819C83.0905 100.573 86.3211 104.649 90.9375 104.649C94.4693 104.649 99.4479 100.302 104.785 89.3022C108.111 82.4465 111.342 75.7246 113.664 70.8798C115.281 72.7344 117.096 74.7297 118.91 76.8618C123.126 81.8162 124.51 86.5242 123.591 90.9904C122.889 94.405 120.244 97.9238 115.537 94.5037C114.165 93.5065 113.578 92.7354 112.199 91.6099C111.458 91.006 110.327 90.8249 109.649 91.4584C107.885 93.1039 106.877 95.1979 106.302 97.7893C105.742 100.311 107.781 101.644 109.895 102.81C111.715 103.813 115.628 104.723 118.123 104.826C127.843 105.229 135.631 99.0135 141.052 82.9813C142.023 96.827 146.152 104.662 153.328 104.662C158.125 104.662 162.935 96.9833 165.038 89.4289C165.642 92.5085 166.536 95.1854 167.69 97.4504C173.219 108.299 183.945 105.964 189.333 96.7524C190.998 93.906 191.252 92.8823 191.252 92.8823C192.038 101.581 197.694 104.621 200.933 104.621C204.56 104.621 208.306 102.497 210.93 95.1792C211.231 95.9601 211.569 96.7187 211.94 97.4512C217.469 108.3 228.195 105.965 233.583 96.7532C233.837 96.3203 234.058 95.9285 234.25 95.5764L234.408 101.291L229.448 106.925C221.134 116.362 214.817 123.52 214.352 131.855C213.762 142.484 220.718 146.434 225.989 146.952C231.576 147.501 236.369 143.675 239.312 138.321C241.901 133.609 243.595 123.466 243.471 113.448C243.422 109.436 243.34 104.336 243.276 98.8682C246.194 94.6709 249.483 89.3651 252.51 83.1562C255.81 76.3884 259.347 67.3012 261.157 60.2287C261.157 60.2287 264.229 60.2614 267.508 59.9955C268.557 59.9108 268.858 60.1751 268.664 61.128C268.43 62.2776 264.522 80.9472 268.089 93.3837C270.53 101.897 276.034 104.636 279.297 104.636C283.117 104.636 286.771 101.064 288.729 95.7591C288.965 96.3506 289.212 96.9226 289.481 97.4512C295.01 108.3 305.699 105.952 311.124 96.7532C312.348 94.6779 313.043 92.8831 313.043 92.8831C314.208 101.886 319.861 104.667 323.099 104.667C326.472 104.667 329.673 102.954 332.27 95.344C332.378 98.6956 332.549 101.435 332.819 102.298C332.983 102.827 333.942 103.49 334.639 103.81C337.725 105.226 340.872 104.557 342.036 104.266C342.843 104.064 343.472 103.262 343.558 101.193C343.783 95.7598 343.645 86.6314 344.975 79.8465C347.207 68.4609 349.29 64.0436 350.278 61.8579C350.831 60.6329 351.455 60.4308 351.477 61.7273C351.523 64.3506 351.629 72.0543 352.494 82.4046C353.129 90.0165 353.977 94.5162 354.629 95.9402C356.49 100.012 358.789 100.204 360.661 100.204C361.851 100.204 364.341 99.7978 364.118 97.2064C364.01 95.9433 364.2 88.137 366.401 76.9201C367.838 69.595 370.235 62.9772 371.099 60.5567C371.418 59.6644 371.566 60.3679 371.561 60.5047C371.379 65.5492 370.97 82.0494 372.63 91.0736C374.879 103.299 381.386 104.667 383.654 104.667C388.495 104.667 392.454 100.106 393.788 88.1067C394.113 85.216 393.637 82.986 392.212 82.986ZM189.423 75.5676C189.145 81.918 188.145 87.2268 186.539 91.0829C183.634 98.0621 177.887 100.275 175.353 90.1906C173.526 82.9191 174.148 73.0033 174.908 67.6479C176.036 59.6986 178.86 54.0633 183.27 54.5973C187.799 55.1461 190.001 62.3538 189.423 75.5676ZM233.673 75.6593C233.414 81.656 232.159 87.68 230.79 91.0837C227.963 98.1111 222.053 100.308 219.603 90.1914C217.929 83.279 218.33 74.3333 219.158 68.6972C220.234 61.383 222.84 54.5981 227.52 54.5981C232.071 54.5973 234.314 60.7798 233.673 75.6593ZM234.828 116.572C234.766 127.511 233.377 137.103 230.395 139.888C226.167 143.839 220.483 140.876 221.66 132.893C222.702 125.829 227.626 118.615 234.84 109.801C234.84 109.801 234.855 111.811 234.828 116.572ZM311.215 75.7231C310.969 82.3066 309.792 87.453 308.332 91.0829C305.504 98.1103 299.636 100.292 297.145 90.1906C295.788 84.6843 295.724 75.4875 296.7 67.8033C297.694 59.9761 300.468 54.0633 305.062 54.5973C309.593 55.1235 311.714 62.3538 311.215 75.7231Z" fill="#6D6E70"/>
</g>
<defs>
<clipPath id="clip0_348_352">
<rect width="408" height="147" fill="white"/>
</clipPath>
</defs>
</svg>
