<svg width="131" height="131" viewBox="0 0 131 131" fill="none" xmlns="http://www.w3.org/2000/svg">
<g clip-path="url(#clip0_347_355)">
<path d="M101.596 0H29.4035C13.1644 0 0 13.1644 0 29.4035V101.596C0 117.836 13.1644 131 29.4035 131H101.596C117.836 131 131 117.836 131 101.596V29.4035C131 13.1644 117.836 0 101.596 0Z" fill="#FD3832"/>
<path fill-rule="evenodd" clip-rule="evenodd" d="M36.3006 89.7082C34.9912 89.3114 33.7964 88.6054 32.8171 87.6498C31.8378 86.6942 31.1028 85.5171 30.674 84.2178C28.2237 77.5021 27.4977 49.4599 32.2168 43.924C33.7874 42.1232 36.0048 41.0144 38.3879 40.8385C51.0477 39.4772 90.1617 39.6587 94.6539 41.2922C95.9174 41.7021 97.0717 42.3927 98.0304 43.3121C98.9891 44.2315 99.7274 45.356 100.19 46.6012C102.867 53.5437 102.958 78.7727 99.8267 85.4429C98.9962 87.1792 97.6057 88.5857 95.879 89.436C91.16 91.7955 42.5625 91.7502 36.3006 89.7082ZM56.4021 76.5493L79.09 64.7515L56.4021 52.8631V76.5493Z" fill="white"/>
</g>
<defs>
<clipPath id="clip0_347_355">
<rect width="131" height="131" fill="white"/>
</clipPath>
</defs>
</svg>
